<?xml version="1.0" encoding="utf-8"?>
<!-- Generator: Adobe Illustrator 26.0.0, SVG Export Plug-In . SVG Version: 6.00 Build 0)  -->
<svg version="1.1" id="Capa_1" xmlns="http://www.w3.org/2000/svg" xmlns:xlink="http://www.w3.org/1999/xlink" x="0px" y="0px"
	 viewBox="0 0 396.85 396.85" style="enable-background:new 0 0 396.85 396.85;" xml:space="preserve">
<style type="text/css">
	.st0{fill:#494A24;}
	.st1{fill:#281816;}
	.st2{fill:#E0A988;}
	.st3{fill:#D69F83;}
	.st4{fill:#190F0E;}
	.st5{fill:#EDEDED;}
	.st6{fill:#3C312F;}
	.st7{fill:#070404;}
	.st8{opacity:0.42;}
	.st9{fill:#99715E;}
	.st10{opacity:0.34;}
	.st11{fill:#FFFFFF;}
	.st12{opacity:0.42;fill:#99715E;}
	.st13{fill:none;stroke:#FFFFFF;stroke-width:2;stroke-miterlimit:10;}
	.st14{fill:#231413;}
	.st15{opacity:0.21;}
	.st16{fill:#BF8A79;}
	.st17{fill:#AF806D;}
	.st18{fill:#A07365;}
	.st19{fill:#F2F2F2;}
	.st20{opacity:0.43;}
	.st21{fill:#C6C6C6;}
	.st22{fill:#9F9F35;}
	.st23{fill:none;}
</style>
<circle class="st0" cx="199.02" cy="198.63" r="191.85"/>
<g>
	<path class="st1" d="M196.75,95.93c0,0-57.09,86.8-42.31,123.55s-5.91,45.01-5.91,45.01S34.26,372.94,33.16,348.06
		c-1.09-24.88,8.01-56.54,20.5-72.87c4.97-6.5,42.4-39.29,51.98-89.81s9.49-50.89,29.37-97.7s61.73-37.77,61.73-37.77
		s41.39-9.04,61.27,37.77s19.79,47.18,29.37,97.7s47.01,83.31,51.98,89.81c12.49,16.33,21.59,47.99,20.5,72.87
		s-115.36-83.58-115.36-83.58s-13.89-8.59-5.91-45.01c8.47-38.69-42.31-123.55-42.31-123.55"/>
	<path class="st2" d="M192.35,287.63c-33.98,1.16-44.44-22.17-44.44-22.17c9.19-4.05,9.55-25.56,6.53-45.99l42.5,28.9h-0.84
		l42.5-28.9c-1.53,20.41,1.15,41.56,6.53,45.99c0,0-11.49,22.17-48.38,22.17H192.35z"/>
	<path class="st3" d="M195.87,249.66l41.55-28.9c-5.3,28.94-28.18,44.54-41.77,45.59c-13.59-1.05-35.99-16.65-41.29-45.59
		l41.08,28.9H195.87z"/>
	<path class="st2" d="M195.65,249.66c-4.69,0-14.94-4.45-14.94-4.45c-32.97-12.65-38.99-53-38.99-53
		c-5.57-45.69,12.93-86.91,12.93-86.91c11.81-30.53,42.1-9.36,42.1-9.36h-0.46c0,0,30.29-21.17,42.1,9.36
		c0,0,18.5,41.23,12.93,86.91c-1.29,7.19-6.82,36.72-38.99,53C206.54,247.85,200.78,249.72,195.65,249.66z"/>
	<g>
		<g>
			<g>
				<path class="st1" d="M251.71,124.69c-0.02,0.01-0.16-0.17-0.42-0.53c-0.26-0.36-0.63-0.9-1.12-1.59
					c-0.97-1.39-2.37-3.39-4.15-5.83c-1.78-2.44-3.95-5.31-6.44-8.43c-2.51-3.1-5.27-6.54-8.43-9.86c-3.17-3.3-6.73-6-10.48-7.27
					c-3.75-1.28-7.41-1.29-10.39-1.08c-3,0.23-5.41,0.68-7.08,0.96c-0.83,0.14-1.48,0.26-1.92,0.33c-0.44,0.07-0.67,0.1-0.68,0.08
					s0.22-0.09,0.65-0.19c0.43-0.11,1.07-0.26,1.9-0.44c1.66-0.35,4.06-0.86,7.09-1.15c3.01-0.27,6.73-0.31,10.6,0.98
					c3.87,1.28,7.53,4.03,10.73,7.37c3.2,3.36,5.94,6.8,8.44,9.93c2.48,3.15,4.61,6.05,6.35,8.53c1.74,2.47,3.1,4.52,4.01,5.94
					c0.46,0.71,0.8,1.27,1.03,1.65C251.61,124.47,251.72,124.68,251.71,124.69z"/>
			</g>
		</g>
	</g>
	<g>
		<g>
			<g>
				<path class="st1" d="M255.45,205.04c-0.01,0-0.03-0.09-0.06-0.27c-0.03-0.18-0.07-0.45-0.12-0.8c-0.09-0.7-0.23-1.73-0.4-3.06
					c-0.32-2.66-0.79-6.52-1.38-11.28c-1.16-9.52-2.69-22.69-4.85-37.17c-2.15-14.48-4.65-27.5-7.08-36.78
					c-1.2-4.64-2.34-8.35-3.18-10.89c-0.44-1.27-0.77-2.25-1-2.92c-0.11-0.34-0.19-0.59-0.25-0.77c-0.05-0.17-0.08-0.26-0.07-0.27
					s0.05,0.08,0.12,0.25c0.07,0.17,0.17,0.42,0.3,0.75c0.25,0.66,0.63,1.63,1.11,2.89c0.91,2.53,2.12,6.23,3.37,10.86
					c2.54,9.27,5.1,22.31,7.25,36.8c2.17,14.49,3.63,27.67,4.69,37.21c0.5,4.77,0.91,8.63,1.19,11.3c0.13,1.34,0.23,2.37,0.29,3.08
					c0.03,0.35,0.05,0.62,0.06,0.8C255.46,204.94,255.46,205.03,255.45,205.04z"/>
			</g>
		</g>
	</g>
	<g>
		<g>
			<g>
				<path class="st1" d="M246.21,119.55c-0.01,0.02-0.16-0.07-0.43-0.26c-0.27-0.19-0.67-0.47-1.14-0.88
					c-0.95-0.81-2.25-2.1-3.59-3.9c-1.34-1.8-2.72-4.09-4.09-6.7c-1.39-2.61-2.78-5.53-4.55-8.41c-1.76-2.88-3.77-5.44-6.03-7.27
					c-2.24-1.85-4.69-2.95-6.84-3.42c-2.15-0.5-3.96-0.46-5.19-0.37c-1.23,0.11-1.91,0.26-1.92,0.21c0-0.02,0.16-0.07,0.48-0.16
					c0.32-0.09,0.79-0.19,1.42-0.28c1.24-0.17,3.09-0.27,5.3,0.19c2.21,0.42,4.76,1.52,7.09,3.41c2.34,1.87,4.4,4.47,6.18,7.39
					c1.79,2.92,3.17,5.86,4.53,8.47c1.34,2.62,2.67,4.9,3.95,6.71c1.28,1.81,2.51,3.12,3.41,3.98
					C245.69,119.09,246.25,119.5,246.21,119.55z"/>
			</g>
		</g>
	</g>
	<g>
		<path class="st1" d="M212.85,143.17c0,0,20.28-9.67,24.52-9.05c4.09,0.59,9.13,4.33,9.13,4.33l-1.15-5.57
			c0,0-5.58-7.18-15.28-3.15c-10.18,4.23-15.92,7.58-15.92,7.58S211.48,139.72,212.85,143.17z"/>
		<g>
			<g>
				<g>
					<path class="st4" d="M210.85,138.84c0.09,0,0.14,1.02,0.44,2.24c0.3,1.22,0.73,2.15,0.65,2.18c-0.06,0.04-0.63-0.86-0.93-2.11
						C210.69,139.89,210.77,138.84,210.85,138.84z"/>
				</g>
			</g>
		</g>
		<g>
			<g>
				<g>
					<path class="st4" d="M211.97,137.99c0.09,0.02-0.21,1.24-0.06,2.75c0.13,1.51,0.64,2.66,0.56,2.7
						c-0.06,0.04-0.71-1.09-0.85-2.67C211.46,139.19,211.9,137.96,211.97,137.99z"/>
				</g>
			</g>
		</g>
		<g>
			<g>
				<g>
					<path class="st4" d="M213.89,137.48c0.08,0.05-0.88,1.09-1.15,2.72c-0.28,1.63,0.21,2.95,0.11,2.97
						c-0.05,0.04-0.69-1.29-0.4-3.02C212.74,138.41,213.86,137.41,213.89,137.48z"/>
				</g>
			</g>
		</g>
		<g>
			<g>
				<g>
					<path class="st4" d="M215.56,138.43c0.06,0.06-0.77,0.92-1.49,2.19c-0.73,1.26-1.04,2.42-1.13,2.39
						c-0.07-0.01,0.12-1.23,0.87-2.54C214.56,139.16,215.52,138.37,215.56,138.43z"/>
				</g>
			</g>
		</g>
		<g>
			<g>
				<g>
					<path class="st4" d="M216.6,136.04c0.07,0.08-1.22,1.02-2.31,2.6c-1.08,1.59-1.49,3.13-1.58,3.09
						c-0.03-0.01,0.03-0.4,0.23-1.01c0.2-0.61,0.56-1.43,1.11-2.25c0.56-0.81,1.19-1.45,1.69-1.86
						C216.24,136.21,216.58,136.01,216.6,136.04z"/>
				</g>
			</g>
		</g>
		<g>
			<g>
				<g>
					<path class="st4" d="M219.19,134.95c0.07,0.06-1.39,1.58-2.87,3.69c-0.74,1.05-1.33,2.06-1.72,2.8
						c-0.39,0.75-0.6,1.23-0.65,1.21c-0.03-0.01,0.11-0.52,0.46-1.3c0.35-0.78,0.92-1.82,1.67-2.88c0.75-1.06,1.52-1.96,2.1-2.58
						C218.77,135.27,219.17,134.92,219.19,134.95z"/>
				</g>
			</g>
		</g>
		<g>
			<g>
				<g>
					<path class="st4" d="M217.87,135.41c0.06,0.05-0.34,0.61-0.88,1.25c-0.55,0.64-1.04,1.11-1.1,1.05
						c-0.06-0.05,0.34-0.61,0.88-1.25C217.32,135.83,217.81,135.36,217.87,135.41z"/>
				</g>
			</g>
		</g>
		<g>
			<g>
				<g>
					<path class="st4" d="M220.82,134.5c0.06,0.06-1.26,1.46-2.59,3.41c-1.34,1.95-2.16,3.69-2.24,3.65
						c-0.03-0.02,0.13-0.47,0.47-1.18c0.34-0.71,0.86-1.65,1.54-2.64c0.68-0.99,1.37-1.82,1.91-2.39
						C220.43,134.79,220.8,134.48,220.82,134.5z"/>
				</g>
			</g>
		</g>
		<g>
			<g>
				<g>
					<path class="st4" d="M221.52,135.16c0.06,0.06-1.02,1.22-2.11,2.83c-1.09,1.61-1.75,3.05-1.84,3.01
						c-0.07-0.02,0.48-1.54,1.59-3.18C220.27,136.18,221.47,135.1,221.52,135.16z"/>
				</g>
			</g>
		</g>
		<g>
			<g>
				<g>
					<path class="st4" d="M224.88,132.08c0.07,0.07-1.56,1.38-2.89,3.53c-1.36,2.14-1.83,4.17-1.93,4.14
						c-0.03-0.01,0.04-0.52,0.29-1.32c0.25-0.8,0.7-1.88,1.39-2.97c0.68-1.09,1.46-1.96,2.07-2.54
						C224.43,132.34,224.86,132.05,224.88,132.08z"/>
				</g>
			</g>
		</g>
		<g>
			<g>
				<g>
					<path class="st4" d="M222.67,133.33c0.06,0.06-0.23,0.44-0.64,0.85c-0.41,0.41-0.79,0.7-0.85,0.64s0.23-0.44,0.64-0.85
						C222.23,133.56,222.61,133.28,222.67,133.33z"/>
				</g>
			</g>
		</g>
		<g>
			<g>
				<g>
					<path class="st4" d="M224.77,133.54c0.06,0.07-1.07,1.06-2.02,2.63c-0.96,1.56-1.31,3.03-1.4,3.01c-0.07,0,0.16-1.54,1.15-3.16
						C223.48,134.41,224.74,133.48,224.77,133.54z"/>
				</g>
			</g>
		</g>
		<g>
			<g>
				<g>
					<path class="st4" d="M228.37,131.83c0.06,0.08-1.57,1.16-3.1,2.99c-1.54,1.81-2.34,3.6-2.43,3.56
						c-0.03-0.01,0.13-0.48,0.49-1.18c0.36-0.7,0.94-1.64,1.72-2.56c0.78-0.92,1.6-1.65,2.24-2.13
						C227.92,132.04,228.35,131.8,228.37,131.83z"/>
				</g>
			</g>
		</g>
		<g>
			<g>
				<g>
					<path class="st4" d="M229.42,130.37c0.04,0.08-1.03,0.63-2.22,1.51c-1.19,0.87-2.04,1.73-2.1,1.67
						c-0.06-0.05,0.71-1.01,1.93-1.9C228.25,130.75,229.4,130.3,229.42,130.37z"/>
				</g>
			</g>
		</g>
		<g>
			<g>
				<g>
					<path class="st4" d="M226.23,131.43c0.04,0.07-0.36,0.4-0.81,0.86c-0.45,0.45-0.78,0.87-0.85,0.82
						c-0.07-0.04,0.16-0.55,0.64-1.03C225.68,131.61,226.19,131.37,226.23,131.43z"/>
				</g>
			</g>
		</g>
		<g>
			<g>
				<g>
					<path class="st4" d="M228.5,133.16c0.05,0.07-1.15,1-2.41,2.37c-1.27,1.36-2.1,2.63-2.18,2.58c-0.06-0.03,0.67-1.39,1.96-2.78
						C227.16,133.94,228.46,133.1,228.5,133.16z"/>
				</g>
			</g>
		</g>
		<g>
			<g>
				<g>
					<path class="st4" d="M232.74,129.62c0.03,0.08-1.19,0.58-2.52,1.5c-1.34,0.91-2.25,1.87-2.31,1.81
						c-0.06-0.04,0.77-1.12,2.15-2.05C231.42,129.94,232.72,129.55,232.74,129.62z"/>
				</g>
			</g>
		</g>
		<g>
			<g>
				<g>
					<path class="st4" d="M233.1,129.01c0.01,0.08-0.81,0.26-1.74,0.69c-0.94,0.42-1.6,0.94-1.66,0.88
						c-0.05-0.05,0.56-0.69,1.54-1.14C232.21,128.99,233.09,128.94,233.1,129.01z"/>
				</g>
			</g>
		</g>
		<g>
			<g>
				<g>
					<path class="st4" d="M229.05,133.75c0.05,0.06-0.83,0.97-1.99,2.04c-1.15,1.07-2.13,1.89-2.18,1.83
						c-0.05-0.06,0.83-0.97,1.99-2.04C228.02,134.51,229,133.69,229.05,133.75z"/>
				</g>
			</g>
		</g>
		<g>
			<g>
				<g>
					<path class="st4" d="M236.67,130c0.01,0.09-1.74,0.13-3.67,0.97c-1.94,0.82-3.17,2.07-3.23,2c-0.02-0.02,0.25-0.37,0.78-0.82
						c0.53-0.46,1.35-1.01,2.34-1.44c0.99-0.42,1.95-0.63,2.65-0.7C236.23,129.93,236.67,129.97,236.67,130z"/>
				</g>
			</g>
		</g>
		<g>
			<g>
				<g>
					<path class="st4" d="M238.37,129.36c-0.02,0.09-1.17-0.21-2.6-0.06c-1.43,0.13-2.5,0.66-2.54,0.57
						c-0.04-0.06,1.01-0.72,2.51-0.86C237.23,128.86,238.4,129.3,238.37,129.36z"/>
				</g>
			</g>
		</g>
		<g>
			<g>
				<g>
					<path class="st4" d="M235.36,131.95c0.03,0.09-1.93,0.72-4.09,2.02c-2.17,1.28-3.66,2.71-3.72,2.64
						c-0.03-0.03,0.32-0.42,0.94-0.97c0.62-0.56,1.54-1.26,2.64-1.92c1.1-0.65,2.16-1.12,2.94-1.4
						C234.84,132.03,235.35,131.91,235.36,131.95z"/>
				</g>
			</g>
		</g>
		<g>
			<g>
				<g>
					<path class="st4" d="M237.87,130.87c0,0.09-1.55,0.1-3.37,0.61c-1.83,0.49-3.17,1.27-3.21,1.2c-0.04-0.05,1.26-0.97,3.13-1.48
						C236.29,130.68,237.88,130.8,237.87,130.87z"/>
				</g>
			</g>
		</g>
		<g>
			<g>
				<g>
					<path class="st4" d="M239.54,132.05c0.01,0.04-0.58,0.17-1.52,0.4c-0.94,0.24-2.23,0.6-3.61,1.13
						c-1.38,0.53-2.59,1.1-3.45,1.55c-0.86,0.45-1.38,0.75-1.4,0.71c-0.02-0.03,0.46-0.39,1.31-0.89c0.84-0.5,2.05-1.11,3.44-1.65
						c1.4-0.53,2.71-0.87,3.67-1.06C238.93,132.06,239.53,132.01,239.54,132.05z"/>
				</g>
			</g>
		</g>
		<g>
			<g>
				<g>
					<path class="st4" d="M242.45,133.47c-0.01,0.09-1.87-0.19-4.15,0.07c-2.28,0.24-4.04,0.92-4.07,0.83
						c-0.01-0.03,0.41-0.25,1.13-0.49c0.72-0.24,1.75-0.5,2.91-0.63c1.16-0.13,2.22-0.1,2.98-0.01
						C242,133.32,242.45,133.43,242.45,133.47z"/>
				</g>
			</g>
		</g>
		<g>
			<g>
				<g>
					<path class="st4" d="M244.22,132.51c-0.05,0.07-1.16-0.74-2.6-1.6c-1.44-0.87-2.67-1.46-2.64-1.54
						c0.03-0.07,1.33,0.41,2.79,1.29C243.23,131.54,244.26,132.45,244.22,132.51z"/>
				</g>
			</g>
		</g>
		<g>
			<g>
				<g>
					<path class="st4" d="M243.74,132.95c-0.06,0.07-1.04-1.03-2.63-1.8c-1.58-0.79-3.04-0.89-3.03-0.98
						c-0.01-0.07,1.51-0.1,3.16,0.72C242.9,131.69,243.81,132.92,243.74,132.95z"/>
				</g>
			</g>
		</g>
		<g>
			<g>
				<g>
					<path class="st4" d="M241.68,132.53c-0.04,0.08-0.97-0.38-2.2-0.58c-1.23-0.22-2.26-0.09-2.27-0.18
						c-0.02-0.07,1.03-0.33,2.32-0.11C240.82,131.88,241.73,132.48,241.68,132.53z"/>
				</g>
			</g>
		</g>
		<g>
			<g>
				<g>
					<path class="st4" d="M244.47,134.18c-0.06,0.06-0.87-0.72-2.01-1.48c-1.13-0.77-2.16-1.23-2.12-1.31
						c0.02-0.07,1.12,0.28,2.29,1.07C243.8,133.24,244.53,134.13,244.47,134.18z"/>
				</g>
			</g>
		</g>
		<g>
			<g>
				<g>
					<path class="st4" d="M245.68,137.63c-0.06,0.07-1.29-0.95-3.04-1.82c-1.74-0.89-3.3-1.28-3.27-1.36
						c0.01-0.04,0.41,0.02,1.04,0.19c0.63,0.17,1.48,0.47,2.37,0.92c0.89,0.45,1.64,0.95,2.15,1.36
						C245.42,137.31,245.7,137.6,245.68,137.63z"/>
				</g>
			</g>
		</g>
		<g>
			<g>
				<g>
					<path class="st4" d="M245.9,137.15c-0.07,0.06-0.98-1.06-2.49-1.97c-1.49-0.92-2.91-1.22-2.89-1.31c0-0.07,1.49,0.11,3.04,1.06
						C245.12,135.87,245.97,137.11,245.9,137.15z"/>
				</g>
			</g>
		</g>
		<g>
			<g>
				<g>
					<path class="st4" d="M245.43,135.69c-0.06,0.05-0.54-0.41-1.17-0.93c-0.62-0.53-1.16-0.92-1.12-0.99
						c0.04-0.07,0.66,0.22,1.31,0.77C245.1,135.08,245.49,135.64,245.43,135.69z"/>
				</g>
			</g>
		</g>
		<g>
			<g>
				<g>
					<path class="st4" d="M245.65,134.82c-0.08,0.03-0.32-0.47-0.7-1.01c-0.38-0.55-0.75-0.95-0.7-1.01
						c0.05-0.06,0.53,0.26,0.94,0.85C245.6,134.23,245.73,134.8,245.65,134.82z"/>
				</g>
			</g>
		</g>
		<g>
			<g>
				<g>
					<path class="st4" d="M244.78,132.63c-0.06,0.05-0.35-0.17-0.64-0.5c-0.29-0.33-0.48-0.64-0.42-0.7
						c0.06-0.05,0.35,0.17,0.64,0.5C244.66,132.27,244.84,132.58,244.78,132.63z"/>
				</g>
			</g>
		</g>
		<g>
			<g>
				<g>
					<path class="st4" d="M230.93,132.72c0.04,0.07-0.34,0.35-0.76,0.71c-0.43,0.37-0.76,0.69-0.82,0.64
						c-0.06-0.05,0.18-0.48,0.63-0.86C230.43,132.83,230.89,132.65,230.93,132.72z"/>
				</g>
			</g>
		</g>
		<g>
			<g>
				<g>
					<path class="st4" d="M231.4,130.86c0.04,0.08-0.61,0.46-1.3,1.06c-0.69,0.6-1.15,1.19-1.22,1.15
						c-0.07-0.04,0.31-0.73,1.03-1.37C230.63,131.07,231.37,130.79,231.4,130.86z"/>
				</g>
			</g>
		</g>
	</g>
	<path class="st5" d="M212.46,156.08c0,0-1.64,1.41,0,1.41c0,0,14.8,6.2,22.9-1.44C235.36,156.05,226.05,142.99,212.46,156.08z"/>
	<path class="st6" d="M229.05,154.22c0,3.02-2.45,5.47-5.47,5.47c-3.02,0-5.47-2.45-5.47-5.47c0-0.96,0.23-1.88,0.68-2.65
		c0,0,2.03-1.23,5.12-1.31c2.68-0.07,3.89,0.49,3.89,0.49C228.98,151.07,229.05,152.89,229.05,154.22z"/>
	<g>
		<g>
			<g>
				<path class="st7" d="M235.36,156.05c-0.11,0.1-1.08-1.05-2.97-2.46c-0.94-0.7-2.13-1.46-3.56-2.05
					c-1.41-0.59-3.09-0.97-4.83-0.86c-3.57,0.27-6.62,1.67-8.54,2.99c-1.95,1.33-2.89,2.5-3,2.4c-0.07-0.05,0.7-1.38,2.64-2.9
					c1.9-1.51,5.07-3.08,8.84-3.36c1.92-0.13,3.73,0.32,5.21,0.99c1.5,0.66,2.7,1.51,3.63,2.3
					C234.63,154.7,235.43,155.99,235.36,156.05z"/>
			</g>
		</g>
	</g>
	<g class="st8">
		<g>
			<g>
				<path class="st9" d="M221.33,142.9c0.02,0.04-0.58,0.41-1.52,1.06c-0.94,0.65-2.2,1.6-3.47,2.79c-1.27,1.19-2.32,2.37-3.03,3.26
					c-0.72,0.89-1.13,1.47-1.17,1.44c-0.02-0.01,0.07-0.17,0.24-0.44c0.17-0.28,0.43-0.66,0.77-1.12c0.68-0.93,1.71-2.15,3-3.35
					c1.29-1.2,2.58-2.13,3.56-2.74c0.49-0.31,0.89-0.54,1.18-0.68C221.16,142.95,221.32,142.88,221.33,142.9z"/>
			</g>
		</g>
	</g>
	<g class="st8">
		<g>
			<g>
				<path class="st9" d="M215.37,149.46c-0.02-0.01,0.12-0.2,0.39-0.53c0.26-0.34,0.68-0.79,1.23-1.32c1.1-1.05,2.84-2.32,4.99-3.22
					c2.16-0.9,4.28-1.25,5.8-1.29c0.76-0.03,1.38-0.01,1.8,0.05c0.42,0.04,0.66,0.08,0.65,0.1c0,0.06-0.94-0.04-2.45,0.06
					c-1.5,0.1-3.57,0.47-5.7,1.35c-2.12,0.89-3.84,2.11-4.97,3.11C216.01,148.76,215.42,149.49,215.37,149.46z"/>
			</g>
		</g>
	</g>
	<g class="st8">
		<g>
			<g>
				<path class="st9" d="M220.82,160.4c0,0.03-0.51,0.09-1.32,0c-0.81-0.09-1.93-0.32-3.11-0.75c-2.38-0.81-4.02-2.08-3.93-2.17
					c0.03-0.03,0.43,0.27,1.14,0.64c0.71,0.38,1.73,0.85,2.89,1.26c1.16,0.42,2.24,0.68,3.04,0.82
					C220.32,160.34,220.82,160.35,220.82,160.4z"/>
			</g>
		</g>
	</g>
	<g>
		<g>
			<g>
				<path class="st1" d="M255.58,164.37c-0.08,0.02-2.52-10.38-5.46-23.23c-2.94-12.85-5.26-23.28-5.18-23.29
					c0.08-0.02,2.52,10.38,5.46,23.23S255.66,164.35,255.58,164.37z"/>
			</g>
		</g>
	</g>
	<g>
		<g>
			<g>
				<path class="st1" d="M254.97,175.91c-0.06,0.01-0.28-0.8-0.63-2.27c-0.35-1.47-0.83-3.6-1.4-6.25
					c-1.14-5.28-2.66-12.59-4.29-20.67c-1.62-8.08-3.05-15.41-4.03-20.72c-0.49-2.66-0.88-4.81-1.13-6.3s-0.36-2.32-0.3-2.33
					c0.06-0.01,0.28,0.79,0.63,2.26c0.35,1.47,0.83,3.6,1.4,6.24c1.14,5.28,2.66,12.59,4.29,20.67c1.63,8.08,3.05,15.41,4.04,20.72
					c0.49,2.66,0.88,4.81,1.12,6.3C254.92,175.07,255.03,175.9,254.97,175.91z"/>
			</g>
		</g>
	</g>
	<g>
		<g>
			<g>
				<path class="st1" d="M254.12,156.05c-0.1,0.04-0.91-1.58-2-4.3c-1.09-2.72-2.43-6.55-3.6-10.87c-1.17-4.32-1.96-8.3-2.39-11.19
					c-0.44-2.9-0.57-4.71-0.46-4.72c0.13-0.02,0.47,1.76,1.06,4.61c0.59,2.86,1.47,6.79,2.63,11.08c1.17,4.29,2.41,8.12,3.34,10.88
					C253.63,154.29,254.24,156,254.12,156.05z"/>
			</g>
		</g>
	</g>
	<g>
		<g>
			<g>
				<path class="st1" d="M257.06,183.48c-0.06,0.02-0.3-0.52-0.69-1.52c-0.39-1-0.91-2.46-1.5-4.28c-1.19-3.64-2.62-8.75-3.81-14.48
					c-1.18-5.73-1.87-10.99-2.22-14.8c-0.17-1.91-0.28-3.45-0.31-4.53c-0.04-1.07-0.03-1.66,0.03-1.67
					c0.13-0.01,0.39,2.34,0.89,6.13c0.5,3.78,1.29,9,2.46,14.7c1.18,5.7,2.51,10.8,3.54,14.47
					C256.49,181.18,257.18,183.44,257.06,183.48z"/>
			</g>
		</g>
	</g>
	<g class="st10">
		<g>
			<g>
				<path class="st11" d="M227.9,155.22c-0.16-0.04-0.08-0.84-0.18-1.79c-0.09-0.96-0.33-1.72-0.18-1.79
					c0.13-0.08,0.66,0.66,0.76,1.73C228.41,154.44,228.05,155.26,227.9,155.22z"/>
			</g>
		</g>
	</g>
	<g class="st10">
		<g>
			<g>
				<path class="st11" d="M226.6,157.35c-0.13-0.09-0.13-0.34,0.01-0.56c0.14-0.22,0.37-0.33,0.5-0.24
					c0.13,0.09,0.13,0.34-0.01,0.56C226.96,157.33,226.73,157.43,226.6,157.35z"/>
			</g>
		</g>
	</g>
	<g class="st10">
		<g>
			<g>
				<path class="st11" d="M218.85,154.08c-0.15,0.03-0.37-0.43-0.33-1.04c0.04-0.61,0.31-1.04,0.46-0.99
					c0.16,0.05,0.15,0.5,0.12,1.02C219.06,153.61,219.01,154.05,218.85,154.08z"/>
			</g>
		</g>
	</g>
	<g class="st10">
		<g>
			<g>
				<path class="st11" d="M212.19,157.81c0.07,0.04-0.04,0.3-0.4,0.31c-0.17,0.01-0.38-0.05-0.56-0.22
					c-0.18-0.18-0.26-0.43-0.25-0.68c0.02-0.51,0.33-0.84,0.54-1c0.22-0.16,0.38-0.21,0.43-0.15c0.15,0.12-0.37,0.63-0.39,1.16
					c0,0.27,0.11,0.41,0.28,0.49C212,157.79,212.13,157.75,212.19,157.81z"/>
			</g>
		</g>
	</g>
	<g class="st8">
		<g>
			<g>
				<path class="st9" d="M235.36,156.05c0.01,0.01-0.21,0.26-0.64,0.71c-0.2,0.24-0.5,0.47-0.85,0.73
					c-0.18,0.13-0.36,0.27-0.56,0.42c-0.22,0.12-0.44,0.25-0.68,0.39c-1.91,1.13-4.96,1.9-8.33,1.88c-3.37,0.01-6.38-0.67-8.47-1.33
					c-1.05-0.34-1.88-0.65-2.44-0.91c-0.56-0.25-0.87-0.4-0.86-0.42c0.01-0.02,0.33,0.09,0.9,0.31c0.57,0.23,1.41,0.51,2.46,0.82
					c2.1,0.6,5.08,1.25,8.41,1.23c3.33,0.02,6.33-0.72,8.23-1.77C234.44,157.09,235.3,155.98,235.36,156.05z"/>
			</g>
		</g>
	</g>
	<path class="st12" d="M201.99,196.39c0,0,5.2-4.97,6.23-2.39C209.24,196.57,201.99,196.39,201.99,196.39z"/>
	<g class="st8">
		<g>
			<g>
				<path class="st9" d="M210.91,196.29c-0.05-0.03,0.3-0.51,0.61-1.38c0.32-0.87,0.53-2.16,0.3-3.55c-0.2-1.4-0.77-2.58-1.24-3.37
					c-0.48-0.8-0.86-1.24-0.82-1.27c0.02-0.01,0.12,0.09,0.3,0.28c0.19,0.19,0.42,0.49,0.7,0.88c0.52,0.78,1.14,1.99,1.35,3.44
					c0.23,1.45-0.02,2.8-0.4,3.67c-0.18,0.44-0.38,0.78-0.54,0.99C211.02,196.19,210.93,196.3,210.91,196.29z"/>
			</g>
		</g>
	</g>
	<g class="st10">
		<g>
			<g>
				<path class="st11" d="M237.57,134.57c0.01,0.17-1.21,0.38-2.68,0.77c-1.47,0.38-2.64,0.8-2.71,0.65
					c-0.07-0.14,1.03-0.81,2.56-1.21C236.27,134.38,237.56,134.42,237.57,134.57z"/>
			</g>
		</g>
	</g>
	<g class="st10">
		<g>
			<g>
				<path class="st11" d="M239.28,135.09c-0.13,0.09-0.31,0.09-0.45,0.05c-0.14-0.04-0.3-0.12-0.37-0.27
					c-0.08-0.14,0.17-0.38,0.51-0.3C239.33,134.68,239.42,135.01,239.28,135.09z"/>
			</g>
		</g>
	</g>
	<g class="st10">
		<g>
			<g>
				<path class="st11" d="M236.05,156.99c0.08,0.14-0.6,0.65-1.51,1.14c-0.91,0.49-1.71,0.77-1.78,0.63
					c-0.08-0.14,0.6-0.65,1.51-1.14C235.18,157.13,235.98,156.84,236.05,156.99z"/>
			</g>
		</g>
	</g>
	<g class="st10">
		<g>
			<g>
				<path class="st11" d="M197.84,186.33c0.07,0.04,0.04,0.25-0.08,0.56c-0.11,0.29-0.35,0.81-0.91,1.06
					c-0.55,0.24-1.05,0.16-1.37,0.1c-0.33-0.08-0.52-0.18-0.51-0.26c0-0.19,0.88-0.08,1.64-0.37c0.36-0.15,0.59-0.48,0.79-0.74
					C197.61,186.43,197.77,186.28,197.84,186.33z"/>
			</g>
		</g>
	</g>
	<g class="st10">
		<g>
			<g>
				<path class="st11" d="M197.27,172.9c-0.16,0-0.33-3.13-0.38-6.99s0.04-7,0.2-7c0.16,0,0.33,3.13,0.38,6.99
					S197.43,172.9,197.27,172.9z"/>
			</g>
		</g>
	</g>
	<g class="st8">
		<g>
			<g>
				<path class="st9" d="M203.62,172.26c-0.02,0-0.08-0.25-0.17-0.72c-0.09-0.47-0.2-1.15-0.29-1.99c-0.2-1.69-0.3-4.05-0.09-6.65
					c0.22-2.59,0.71-4.91,1.18-6.54c0.23-0.82,0.45-1.47,0.62-1.92c0.17-0.45,0.27-0.69,0.29-0.68s-0.05,0.26-0.18,0.72
					c-0.14,0.45-0.32,1.12-0.53,1.94c-0.42,1.64-0.87,3.94-1.09,6.51c-0.21,2.57-0.14,4.92,0,6.6c0.07,0.84,0.14,1.53,0.2,2
					C203.62,171.99,203.64,172.26,203.62,172.26z"/>
			</g>
		</g>
	</g>
	<g class="st10">
		<g>
			<g>
				<path class="st11" d="M296.54,236.28c-0.02,0.01-0.23-0.26-0.61-0.79c-0.38-0.53-0.95-1.32-1.67-2.33
					c-0.67-1.05-1.5-2.33-2.4-3.85c-0.86-1.54-1.87-3.29-2.82-5.31c-1.96-4-3.97-8.93-5.74-14.55c-1.78-5.62-3.36-11.9-4.72-18.56
					c-1.37-6.65-2.46-13.03-3.49-18.81c-1.01-5.79-1.92-11.01-2.69-15.39c-0.74-4.38-1.35-7.93-1.76-10.38
					c-0.2-1.23-0.35-2.18-0.45-2.83c-0.1-0.65-0.14-0.99-0.12-0.99c0.02,0,0.1,0.33,0.23,0.97c0.13,0.64,0.32,1.59,0.56,2.81
					c0.46,2.44,1.12,5.98,1.94,10.35c0.8,4.37,1.75,9.58,2.81,15.37c1.05,5.78,2.17,12.15,3.53,18.79
					c1.35,6.64,2.91,12.91,4.66,18.51c1.74,5.6,3.7,10.52,5.6,14.53c0.93,2.02,1.9,3.77,2.73,5.33c0.87,1.53,1.67,2.82,2.31,3.89
					c0.69,1.04,1.22,1.84,1.58,2.39C296.37,235.97,296.55,236.27,296.54,236.28z"/>
			</g>
		</g>
	</g>
	<g class="st10">
		<g>
			<g>
				<path class="st11" d="M343.2,289.59c-0.03,0.03-0.38-0.34-0.99-1.01c-0.61-0.68-1.49-1.65-2.58-2.86
					c-2.18-2.41-5.25-5.69-8.8-9.16c-3.54-3.47-6.88-6.48-9.34-8.61c-1.22-1.08-2.21-1.95-2.89-2.55c-0.67-0.61-1.04-0.97-1.01-1
					c0.03-0.03,0.44,0.26,1.16,0.82c0.71,0.57,1.74,1.39,3.01,2.41c2.53,2.05,5.93,5.02,9.49,8.5c3.56,3.48,6.59,6.82,8.7,9.31
					c1.06,1.24,1.89,2.27,2.45,2.99C342.94,289.15,343.24,289.56,343.2,289.59z"/>
			</g>
		</g>
	</g>
	<g class="st10">
		<g>
			<g>
				<path class="st11" d="M258.4,252.75c-0.04,0.02-0.27-0.38-0.67-1.11c-0.4-0.73-0.95-1.79-1.61-3.12
					c-1.31-2.66-3.06-6.39-4.46-10.71c-0.69-2.17-1.2-4.28-1.54-6.22c-0.3-1.95-0.48-3.72-0.46-5.22c-0.03-0.75,0.03-1.42,0.06-2.01
					c0.02-0.59,0.08-1.1,0.15-1.51c0.12-0.82,0.2-1.28,0.24-1.27c0.12,0.01-0.16,1.84-0.04,4.78c0.04,1.47,0.25,3.22,0.58,5.13
					c0.37,1.91,0.89,3.99,1.57,6.13c1.39,4.28,3.07,8.02,4.28,10.72c0.61,1.35,1.1,2.44,1.44,3.2
					C258.27,252.3,258.44,252.73,258.4,252.75z"/>
			</g>
		</g>
	</g>
	<g class="st10">
		<g>
			<g>
				<path class="st11" d="M250.9,104.77c-0.04,0.02-0.35-0.53-0.91-1.51c-0.56-0.99-1.38-2.4-2.48-4.11
					c-2.18-3.4-5.51-7.94-9.89-12.29c-2.18-2.17-4.47-4.03-6.79-5.33c-2.31-1.31-4.61-2.05-6.56-2.59
					c-1.95-0.53-3.56-0.85-4.67-1.09c-1.11-0.24-1.72-0.38-1.71-0.42c0.01-0.04,0.63,0.03,1.76,0.2c1.12,0.17,2.75,0.44,4.73,0.92
					c1.98,0.49,4.33,1.2,6.72,2.52c2.39,1.31,4.73,3.19,6.94,5.38c4.42,4.39,7.72,9.01,9.83,12.49c1.06,1.74,1.83,3.2,2.33,4.22
					C250.69,104.17,250.94,104.76,250.9,104.77z"/>
			</g>
		</g>
	</g>
	<g class="st10">
		<g>
			<g>
				<path class="st11" d="M262,202.88c-0.02,0-0.07-0.26-0.15-0.76c-0.07-0.5-0.18-1.24-0.32-2.19c-0.26-1.91-0.63-4.67-1.1-8.08
					c-0.93-6.82-2.22-16.25-3.65-26.66c-1.51-10.4-2.87-19.81-3.86-26.63c-0.5-3.41-0.9-6.16-1.18-8.07c-0.13-0.95-0.23-1.7-0.3-2.2
					c-0.06-0.5-0.08-0.77-0.06-0.77s0.08,0.26,0.18,0.75c0.09,0.5,0.23,1.23,0.4,2.18c0.32,1.9,0.79,4.65,1.36,8.04
					c1.11,6.8,2.56,16.2,4.03,26.61c1.47,10.41,2.67,19.85,3.48,26.69c0.39,3.42,0.7,6.19,0.92,8.11c0.09,0.96,0.17,1.7,0.21,2.21
					C262,202.61,262.02,202.88,262,202.88z"/>
			</g>
		</g>
	</g>
	<g>
		<g>
			<g>
				<path class="st14" d="M291.64,268.77c0,0-0.19-0.17-0.53-0.52c-0.33-0.35-0.85-0.84-1.45-1.54c-1.24-1.35-2.92-3.41-4.77-6.13
					c-3.72-5.41-7.7-13.69-10.26-23.38c-2.56-9.69-3.57-18.74-4.24-25.25c-0.32-3.26-0.55-5.9-0.7-7.73
					c-0.07-0.91-0.12-1.62-0.16-2.1c-0.03-0.48-0.04-0.74-0.04-0.74s0.04,0.25,0.09,0.73c0.05,0.48,0.12,1.19,0.22,2.1
					c0.19,1.82,0.46,4.46,0.79,7.72c0.72,6.5,1.76,15.53,4.31,25.2c2.55,9.67,6.48,17.93,10.15,23.34c1.81,2.72,3.47,4.8,4.68,6.17
					c0.58,0.71,1.09,1.21,1.41,1.57C291.48,268.57,291.64,268.77,291.64,268.77z"/>
			</g>
		</g>
	</g>
	<g>
		<g>
			<g>
				<path class="st14" d="M263.84,132.91c-0.01,0-0.05-0.09-0.13-0.27c-0.07-0.18-0.18-0.44-0.33-0.79
					c-0.28-0.68-0.69-1.67-1.2-2.89c-1.03-2.43-2.55-5.75-4.45-9.3c-1.9-3.55-3.83-6.65-5.28-8.86c-0.74-1.1-1.33-1.98-1.74-2.6
					c-0.21-0.31-0.37-0.55-0.47-0.71c-0.11-0.16-0.16-0.25-0.15-0.26s0.08,0.07,0.2,0.22c0.12,0.15,0.29,0.38,0.52,0.68
					c0.45,0.59,1.07,1.46,1.82,2.55c1.5,2.18,3.45,5.28,5.36,8.84c1.91,3.56,3.4,6.91,4.39,9.36c0.49,1.23,0.87,2.23,1.11,2.93
					c0.12,0.35,0.21,0.62,0.28,0.81C263.82,132.81,263.85,132.91,263.84,132.91z"/>
			</g>
		</g>
	</g>
	<g>
		<g>
			<g>
				<path class="st14" d="M240.43,100.6c-0.01,0.01-0.1-0.08-0.27-0.25c-0.16-0.17-0.41-0.42-0.72-0.74
					c-0.3-0.33-0.68-0.73-1.16-1.15c-0.47-0.43-0.98-0.95-1.61-1.44c-0.61-0.52-1.29-1.08-2.06-1.61c-0.74-0.58-1.6-1.1-2.49-1.67
					c-1.82-1.08-3.89-2.14-6.17-3.01c-2.29-0.85-4.55-1.43-6.63-1.81c-1.05-0.16-2.04-0.33-2.98-0.39
					c-0.94-0.11-1.81-0.13-2.61-0.15c-0.8-0.05-1.52,0.01-2.16,0.02c-0.64,0.01-1.18,0.05-1.63,0.1c-0.45,0.04-0.79,0.07-1.03,0.09
					c-0.24,0.02-0.36,0.02-0.36,0.01c0,0,1.96-0.42,5.18-0.43c0.81,0,1.69,0.02,2.63,0.11c0.95,0.05,1.95,0.21,3,0.36
					c2.1,0.37,4.38,0.95,6.68,1.8c2.3,0.88,4.39,1.95,6.21,3.06c0.89,0.58,1.75,1.12,2.5,1.71c0.77,0.55,1.44,1.12,2.05,1.65
					C239.23,98.99,240.43,100.6,240.43,100.6z"/>
			</g>
		</g>
	</g>
	<g>
		<g>
			<g>
				<path class="st14" d="M311.42,268.56c-0.02,0.01-0.16-0.18-0.42-0.53c-0.25-0.35-0.62-0.86-1.07-1.49
					c-0.91-1.25-2.22-2.95-3.8-4.72c-1.58-1.76-3.11-3.26-4.25-4.31c-0.58-0.52-1.04-0.94-1.36-1.23c-0.32-0.29-0.5-0.46-0.48-0.47
					c0.01-0.02,0.21,0.12,0.56,0.39c0.35,0.26,0.84,0.66,1.43,1.17c1.18,1.01,2.75,2.49,4.33,4.27c1.58,1.78,2.88,3.5,3.75,4.79
					c0.44,0.64,0.78,1.18,1,1.55C311.33,268.34,311.44,268.55,311.42,268.56z"/>
			</g>
		</g>
	</g>
	<g>
		<g>
			<g>
				<path class="st1" d="M141.33,124.69c-0.02-0.01,0.1-0.22,0.32-0.6c0.23-0.38,0.57-0.94,1.03-1.65c0.91-1.43,2.26-3.47,4.01-5.94
					c1.74-2.47,3.88-5.38,6.35-8.53c2.5-3.13,5.23-6.57,8.44-9.93c3.2-3.34,6.85-6.09,10.73-7.37c3.87-1.29,7.59-1.25,10.6-0.98
					c3.03,0.28,5.43,0.8,7.09,1.15c0.83,0.18,1.47,0.33,1.9,0.44c0.43,0.11,0.66,0.17,0.65,0.19s-0.24-0.01-0.68-0.08
					c-0.44-0.08-1.09-0.19-1.92-0.33c-1.67-0.28-4.07-0.73-7.08-0.96c-2.98-0.21-6.64-0.2-10.39,1.08
					c-3.75,1.27-7.31,3.97-10.48,7.27c-3.17,3.32-5.92,6.76-8.43,9.86c-2.49,3.12-4.66,5.99-6.44,8.43
					c-1.78,2.44-3.18,4.44-4.15,5.83c-0.49,0.69-0.87,1.23-1.12,1.59C141.49,124.51,141.35,124.7,141.33,124.69z"/>
			</g>
		</g>
	</g>
	<g>
		<g>
			<g>
				<path class="st1" d="M137.59,205.04c-0.01,0-0.01-0.09,0-0.28c0.01-0.18,0.03-0.45,0.06-0.8c0.07-0.7,0.17-1.74,0.29-3.08
					c0.28-2.67,0.69-6.53,1.19-11.3c1.06-9.54,2.52-22.72,4.69-37.21c2.15-14.49,4.72-27.53,7.25-36.8
					c1.25-4.64,2.45-8.34,3.37-10.86c0.48-1.25,0.85-2.23,1.11-2.89c0.13-0.33,0.23-0.58,0.3-0.75c0.07-0.17,0.11-0.25,0.12-0.25
					c0.01,0-0.01,0.09-0.07,0.27c-0.06,0.17-0.14,0.43-0.25,0.77c-0.23,0.67-0.57,1.65-1,2.92c-0.85,2.54-1.99,6.25-3.18,10.89
					c-2.43,9.27-4.93,22.3-7.08,36.78c-2.16,14.48-3.69,27.65-4.85,37.17c-0.58,4.76-1.05,8.62-1.38,11.28
					c-0.17,1.33-0.31,2.36-0.4,3.06c-0.05,0.35-0.09,0.62-0.12,0.8C137.62,204.95,137.6,205.04,137.59,205.04z"/>
			</g>
		</g>
	</g>
	<g>
		<g>
			<g>
				<path class="st1" d="M146.82,119.55c-0.04-0.05,0.52-0.46,1.42-1.32c0.9-0.85,2.13-2.17,3.41-3.98
					c1.28-1.81,2.61-4.09,3.95-6.71c1.36-2.61,2.74-5.55,4.53-8.47c1.78-2.91,3.84-5.52,6.18-7.39c2.33-1.88,4.87-2.98,7.09-3.41
					c2.22-0.46,4.07-0.36,5.3-0.19c0.62,0.09,1.1,0.19,1.42,0.28c0.32,0.09,0.48,0.14,0.48,0.16c-0.01,0.05-0.69-0.11-1.92-0.21
					c-1.23-0.1-3.04-0.13-5.19,0.37c-2.15,0.47-4.59,1.57-6.84,3.42c-2.26,1.84-4.27,4.39-6.03,7.27c-1.77,2.88-3.16,5.81-4.55,8.41
					c-1.37,2.61-2.75,4.91-4.09,6.7c-1.34,1.8-2.64,3.09-3.59,3.9c-0.47,0.41-0.87,0.7-1.14,0.88
					C146.98,119.47,146.84,119.56,146.82,119.55z"/>
			</g>
		</g>
	</g>
	<g>
		<g>
			<g>
				<path class="st1" d="M157.69,104.07c-0.12-0.11,2.31-3.12,5.43-6.72c3.12-3.61,5.75-6.45,5.87-6.34s-2.31,3.12-5.43,6.72
					C160.44,101.33,157.81,104.17,157.69,104.07z"/>
			</g>
		</g>
	</g>
	<g>
		<path class="st1" d="M180.19,143.17c0,0-20.28-9.67-24.52-9.05c-4.09,0.59-9.13,4.33-9.13,4.33l1.15-5.57
			c0,0,5.58-7.18,15.28-3.15c10.18,4.23,15.92,7.58,15.92,7.58S181.55,139.72,180.19,143.17z"/>
		<g>
			<g>
				<g>
					<path class="st4" d="M182.19,138.84c0.07,0,0.15,1.05-0.16,2.31c-0.31,1.26-0.87,2.15-0.93,2.11
						c-0.08-0.04,0.35-0.97,0.65-2.18C182.05,139.86,182.1,138.84,182.19,138.84z"/>
				</g>
			</g>
		</g>
		<g>
			<g>
				<g>
					<path class="st4" d="M181.07,137.99c0.06-0.03,0.5,1.2,0.35,2.78c-0.14,1.58-0.79,2.71-0.85,2.67
						c-0.08-0.03,0.43-1.18,0.56-2.7C181.28,139.23,180.98,138.01,181.07,137.99z"/>
				</g>
			</g>
		</g>
		<g>
			<g>
				<g>
					<path class="st4" d="M179.15,137.48c0.02-0.07,1.15,0.93,1.44,2.67c0.29,1.73-0.35,3.06-0.4,3.02
						c-0.1-0.02,0.39-1.34,0.11-2.97C180.03,138.56,179.07,137.53,179.15,137.48z"/>
				</g>
			</g>
		</g>
		<g>
			<g>
				<g>
					<path class="st4" d="M177.47,138.43c0.04-0.06,1,0.73,1.74,2.04c0.75,1.31,0.95,2.53,0.87,2.54c-0.09,0.02-0.4-1.13-1.13-2.39
						C178.25,139.35,177.41,138.49,177.47,138.43z"/>
				</g>
			</g>
		</g>
		<g>
			<g>
				<g>
					<path class="st4" d="M176.43,136.04c0.02-0.03,0.36,0.17,0.86,0.58c0.49,0.41,1.13,1.04,1.69,1.86
						c0.55,0.81,0.91,1.64,1.11,2.25c0.2,0.61,0.26,1,0.23,1.01c-0.09,0.03-0.5-1.51-1.58-3.09
						C177.66,137.05,176.37,136.11,176.43,136.04z"/>
				</g>
			</g>
		</g>
		<g>
			<g>
				<g>
					<path class="st4" d="M173.84,134.95c0.03-0.03,0.42,0.32,1.01,0.94c0.58,0.62,1.35,1.51,2.1,2.58c0.75,1.07,1.32,2.1,1.67,2.88
						c0.35,0.78,0.49,1.29,0.46,1.3c-0.04,0.02-0.25-0.46-0.65-1.21c-0.39-0.75-0.98-1.75-1.72-2.8
						C175.23,136.53,173.77,135.01,173.84,134.95z"/>
				</g>
			</g>
		</g>
		<g>
			<g>
				<g>
					<path class="st4" d="M175.17,135.41c0.06-0.05,0.56,0.42,1.1,1.05c0.55,0.64,0.95,1.19,0.88,1.25
						c-0.06,0.05-0.56-0.42-1.1-1.05C175.5,136.02,175.1,135.46,175.17,135.41z"/>
				</g>
			</g>
		</g>
		<g>
			<g>
				<g>
					<path class="st4" d="M172.21,134.5c0.03-0.03,0.39,0.29,0.93,0.86c0.54,0.57,1.23,1.4,1.91,2.39c0.67,0.99,1.2,1.94,1.54,2.64
						c0.34,0.71,0.5,1.16,0.47,1.18c-0.08,0.04-0.9-1.71-2.24-3.65C173.48,135.96,172.15,134.56,172.21,134.5z"/>
				</g>
			</g>
		</g>
		<g>
			<g>
				<g>
					<path class="st4" d="M171.52,135.16c0.05-0.05,1.25,1.03,2.35,2.67c1.11,1.64,1.66,3.15,1.59,3.18
						c-0.08,0.04-0.74-1.4-1.84-3.01C172.54,136.37,171.46,135.22,171.52,135.16z"/>
				</g>
			</g>
		</g>
		<g>
			<g>
				<g>
					<path class="st4" d="M168.16,132.08c0.02-0.03,0.45,0.26,1.06,0.84c0.61,0.57,1.39,1.45,2.07,2.54
						c0.68,1.09,1.14,2.17,1.39,2.97c0.25,0.8,0.33,1.32,0.29,1.32c-0.09,0.03-0.57-2-1.93-4.14
						C169.71,133.46,168.09,132.15,168.16,132.08z"/>
				</g>
			</g>
		</g>
		<g>
			<g>
				<g>
					<path class="st4" d="M170.36,133.33c0.06-0.06,0.44,0.23,0.85,0.64c0.41,0.41,0.7,0.79,0.64,0.85
						c-0.06,0.06-0.44-0.23-0.85-0.64C170.6,133.77,170.31,133.39,170.36,133.33z"/>
				</g>
			</g>
		</g>
		<g>
			<g>
				<g>
					<path class="st4" d="M168.26,133.54c0.04-0.06,1.29,0.86,2.26,2.48c0.99,1.61,1.22,3.15,1.15,3.16
						c-0.09,0.02-0.44-1.44-1.4-3.01C169.34,134.61,168.2,133.61,168.26,133.54z"/>
				</g>
			</g>
		</g>
		<g>
			<g>
				<g>
					<path class="st4" d="M164.66,131.83c0.02-0.03,0.45,0.2,1.08,0.68c0.63,0.47,1.46,1.2,2.24,2.13c0.78,0.93,1.36,1.86,1.72,2.56
						c0.36,0.7,0.52,1.17,0.49,1.18c-0.08,0.04-0.88-1.74-2.43-3.56C166.23,133,164.61,131.91,164.66,131.83z"/>
				</g>
			</g>
		</g>
		<g>
			<g>
				<g>
					<path class="st4" d="M163.61,130.37c0.03-0.07,1.18,0.38,2.39,1.27c1.22,0.89,1.99,1.85,1.93,1.9c-0.06,0.06-0.91-0.8-2.1-1.67
						C164.64,131,163.57,130.45,163.61,130.37z"/>
				</g>
			</g>
		</g>
		<g>
			<g>
				<g>
					<path class="st4" d="M166.81,131.43c0.04-0.07,0.54,0.17,1.02,0.66c0.48,0.48,0.71,0.99,0.64,1.03
						c-0.07,0.04-0.4-0.37-0.85-0.82C167.17,131.84,166.76,131.5,166.81,131.43z"/>
				</g>
			</g>
		</g>
		<g>
			<g>
				<g>
					<path class="st4" d="M164.54,133.16c0.04-0.06,1.34,0.78,2.62,2.17c1.29,1.39,2.03,2.74,1.96,2.78
						c-0.07,0.05-0.91-1.22-2.18-2.58C165.68,134.17,164.48,133.23,164.54,133.16z"/>
				</g>
			</g>
		</g>
		<g>
			<g>
				<g>
					<path class="st4" d="M160.29,129.62c0.02-0.07,1.32,0.32,2.69,1.26c1.37,0.93,2.2,2.01,2.15,2.05
						c-0.06,0.06-0.97-0.9-2.31-1.81C161.49,130.2,160.26,129.71,160.29,129.62z"/>
				</g>
			</g>
		</g>
		<g>
			<g>
				<g>
					<path class="st4" d="M159.94,129.01c0-0.07,0.89-0.03,1.87,0.42c0.98,0.45,1.59,1.09,1.54,1.14c-0.06,0.07-0.72-0.45-1.66-0.88
						C160.75,129.27,159.92,129.1,159.94,129.01z"/>
				</g>
			</g>
		</g>
		<g>
			<g>
				<g>
					<path class="st4" d="M163.98,133.75c0.05-0.06,1.03,0.76,2.18,1.83c1.15,1.07,2.04,1.98,1.99,2.04
						c-0.05,0.06-1.03-0.76-2.18-1.83C164.82,134.72,163.93,133.81,163.98,133.75z"/>
				</g>
			</g>
		</g>
		<g>
			<g>
				<g>
					<path class="st4" d="M156.37,130c0-0.03,0.44-0.07,1.14,0c0.7,0.07,1.66,0.28,2.65,0.7c0.99,0.43,1.8,0.98,2.34,1.44
						c0.53,0.46,0.81,0.8,0.78,0.82c-0.06,0.07-1.29-1.18-3.23-2C158.11,130.13,156.36,130.1,156.37,130z"/>
				</g>
			</g>
		</g>
		<g>
			<g>
				<g>
					<path class="st4" d="M154.67,129.36c-0.03-0.06,1.13-0.51,2.63-0.35c1.5,0.14,2.55,0.81,2.51,0.86
						c-0.04,0.08-1.11-0.44-2.54-0.57C155.84,129.15,154.69,129.45,154.67,129.36z"/>
				</g>
			</g>
		</g>
		<g>
			<g>
				<g>
					<path class="st4" d="M157.68,131.95c0.01-0.03,0.52,0.08,1.3,0.36c0.78,0.28,1.84,0.75,2.94,1.4c1.1,0.65,2.01,1.36,2.64,1.92
						c0.62,0.56,0.96,0.94,0.94,0.97c-0.06,0.07-1.55-1.36-3.72-2.64C159.61,132.67,157.65,132.04,157.68,131.95z"/>
				</g>
			</g>
		</g>
		<g>
			<g>
				<g>
					<path class="st4" d="M155.17,130.87c-0.01-0.07,1.58-0.19,3.45,0.33c1.87,0.51,3.18,1.42,3.13,1.48
						c-0.04,0.08-1.39-0.7-3.21-1.2C156.72,130.97,155.17,130.96,155.17,130.87z"/>
				</g>
			</g>
		</g>
		<g>
			<g>
				<g>
					<path class="st4" d="M153.5,132.05c0.01-0.04,0.61,0.01,1.57,0.2c0.96,0.19,2.27,0.53,3.67,1.06c1.4,0.53,2.6,1.15,3.44,1.65
						c0.84,0.5,1.32,0.86,1.31,0.89c-0.02,0.04-0.55-0.26-1.4-0.71c-0.86-0.45-2.07-1.03-3.45-1.55c-1.38-0.52-2.67-0.89-3.61-1.13
						C154.08,132.21,153.49,132.09,153.5,132.05z"/>
				</g>
			</g>
		</g>
		<g>
			<g>
				<g>
					<path class="st4" d="M150.59,133.47c-0.01-0.04,0.45-0.15,1.21-0.23c0.76-0.08,1.82-0.11,2.98,0.01
						c1.16,0.13,2.19,0.39,2.91,0.63c0.72,0.24,1.14,0.46,1.13,0.49c-0.03,0.09-1.79-0.59-4.07-0.83
						C152.46,133.28,150.6,133.56,150.59,133.47z"/>
				</g>
			</g>
		</g>
		<g>
			<g>
				<g>
					<path class="st4" d="M148.82,132.51c-0.05-0.06,0.99-0.98,2.45-1.85c1.46-0.88,2.76-1.36,2.79-1.29
						c0.03,0.08-1.2,0.67-2.64,1.54C149.98,131.77,148.87,132.58,148.82,132.51z"/>
				</g>
			</g>
		</g>
		<g>
			<g>
				<g>
					<path class="st4" d="M149.29,132.95c-0.06-0.03,0.85-1.26,2.5-2.06c1.65-0.82,3.17-0.79,3.16-0.72
						c0.01,0.09-1.45,0.19-3.03,0.98C150.33,131.92,149.36,133.01,149.29,132.95z"/>
				</g>
			</g>
		</g>
		<g>
			<g>
				<g>
					<path class="st4" d="M151.35,132.53c-0.04-0.06,0.86-0.65,2.15-0.87c1.29-0.22,2.34,0.04,2.32,0.11
						c-0.01,0.09-1.04-0.04-2.27,0.18C152.32,132.16,151.39,132.61,151.35,132.53z"/>
				</g>
			</g>
		</g>
		<g>
			<g>
				<g>
					<path class="st4" d="M148.56,134.18c-0.06-0.05,0.68-0.94,1.85-1.72c1.16-0.79,2.26-1.14,2.29-1.07
						c0.03,0.08-0.99,0.54-2.12,1.31C149.43,133.46,148.62,134.24,148.56,134.18z"/>
				</g>
			</g>
		</g>
		<g>
			<g>
				<g>
					<path class="st4" d="M147.36,137.63c-0.02-0.03,0.26-0.32,0.77-0.72c0.51-0.4,1.26-0.91,2.15-1.36
						c0.89-0.45,1.74-0.75,2.37-0.92c0.63-0.17,1.03-0.22,1.04-0.19c0.02,0.09-1.53,0.48-3.27,1.36
						C148.65,136.68,147.42,137.7,147.36,137.63z"/>
				</g>
			</g>
		</g>
		<g>
			<g>
				<g>
					<path class="st4" d="M147.13,137.15c-0.06-0.03,0.78-1.28,2.34-2.21c1.55-0.95,3.04-1.13,3.04-1.06
						c0.02,0.09-1.4,0.39-2.89,1.31C148.12,136.08,147.2,137.21,147.13,137.15z"/>
				</g>
			</g>
		</g>
		<g>
			<g>
				<g>
					<path class="st4" d="M147.6,135.69c-0.06-0.05,0.34-0.62,0.98-1.16c0.65-0.54,1.27-0.84,1.31-0.77
						c0.04,0.07-0.5,0.46-1.12,0.99C148.15,135.28,147.67,135.75,147.6,135.69z"/>
				</g>
			</g>
		</g>
		<g>
			<g>
				<g>
					<path class="st4" d="M147.38,134.82c-0.07-0.02,0.05-0.59,0.46-1.18c0.4-0.59,0.89-0.91,0.94-0.85
						c0.05,0.06-0.32,0.46-0.7,1.01C147.7,134.35,147.46,134.85,147.38,134.82z"/>
				</g>
			</g>
		</g>
		<g>
			<g>
				<g>
					<path class="st4" d="M148.25,132.63c-0.06-0.05,0.13-0.36,0.42-0.7c0.29-0.33,0.58-0.56,0.64-0.5c0.06,0.05-0.13,0.36-0.42,0.7
						C148.6,132.46,148.31,132.69,148.25,132.63z"/>
				</g>
			</g>
		</g>
		<g>
			<g>
				<g>
					<path class="st4" d="M162.11,132.72c0.04-0.07,0.5,0.1,0.95,0.49c0.46,0.39,0.7,0.82,0.63,0.86c-0.07,0.05-0.39-0.28-0.82-0.64
						C162.44,133.07,162.07,132.8,162.11,132.72z"/>
				</g>
			</g>
		</g>
		<g>
			<g>
				<g>
					<path class="st4" d="M161.64,130.86c0.03-0.07,0.77,0.21,1.49,0.84c0.72,0.63,1.1,1.33,1.03,1.37
						c-0.07,0.05-0.53-0.55-1.22-1.15C162.25,131.32,161.6,130.93,161.64,130.86z"/>
				</g>
			</g>
		</g>
	</g>
	<path class="st5" d="M180.58,156.08c0,0,1.64,1.41,0,1.41c0,0-14.8,6.2-22.9-1.44C157.68,156.05,166.99,142.99,180.58,156.08z"/>
	<path class="st6" d="M163.98,154.22c0,3.02,2.45,5.47,5.47,5.47c3.02,0,5.47-2.45,5.47-5.47c0-0.96-0.23-1.88-0.68-2.65
		c0,0-2.03-1.23-5.12-1.31c-2.68-0.07-3.89,0.49-3.89,0.49C164.05,151.07,163.98,152.89,163.98,154.22z"/>
	<g>
		<g>
			<g>
				<path class="st7" d="M157.68,156.05c-0.07-0.05,0.73-1.35,2.58-2.95c0.93-0.79,2.13-1.64,3.63-2.3
					c1.48-0.67,3.29-1.12,5.21-0.99c3.77,0.28,6.93,1.85,8.84,3.36c1.93,1.52,2.71,2.85,2.64,2.9c-0.11,0.1-1.05-1.07-3-2.4
					c-1.92-1.33-4.97-2.72-8.54-2.99c-1.74-0.12-3.42,0.26-4.83,0.86c-1.43,0.58-2.61,1.34-3.56,2.05
					C158.75,155,157.79,156.14,157.68,156.05z"/>
			</g>
		</g>
	</g>
	<g class="st8">
		<g>
			<g>
				<path class="st9" d="M171.7,142.9c0.01-0.02,0.17,0.06,0.46,0.2c0.29,0.15,0.69,0.38,1.18,0.68c0.98,0.61,2.27,1.55,3.56,2.74
					c1.29,1.2,2.32,2.42,3,3.35c0.34,0.46,0.6,0.85,0.77,1.12c0.17,0.27,0.25,0.43,0.24,0.44c-0.04,0.03-0.45-0.55-1.17-1.44
					c-0.72-0.89-1.76-2.07-3.03-3.26c-1.28-1.18-2.54-2.14-3.47-2.79C172.29,143.3,171.68,142.94,171.7,142.9z"/>
			</g>
		</g>
	</g>
	<g class="st8">
		<g>
			<g>
				<path class="st9" d="M177.66,149.46c-0.04,0.04-0.63-0.7-1.76-1.7c-1.12-1-2.84-2.21-4.97-3.11c-2.13-0.88-4.2-1.26-5.7-1.35
					c-1.51-0.1-2.44,0-2.45-0.06c0-0.02,0.23-0.05,0.65-0.1c0.42-0.05,1.04-0.07,1.8-0.05c1.52,0.05,3.64,0.39,5.8,1.29
					c2.16,0.91,3.89,2.17,4.99,3.22c0.55,0.52,0.97,0.98,1.23,1.32C177.54,149.25,177.68,149.44,177.66,149.46z"/>
			</g>
		</g>
	</g>
	<g class="st8">
		<g>
			<g>
				<path class="st9" d="M172.21,160.4c0-0.05,0.5-0.07,1.3-0.2c0.79-0.14,1.88-0.4,3.04-0.82c1.16-0.41,2.17-0.88,2.89-1.26
					c0.72-0.37,1.11-0.68,1.14-0.64c0.09,0.09-1.56,1.37-3.93,2.17c-1.18,0.42-2.29,0.66-3.11,0.75
					C172.72,160.49,172.21,160.44,172.21,160.4z"/>
			</g>
		</g>
	</g>
	<g>
		<g>
			<g>
				<path class="st1" d="M137.45,164.37c-0.08-0.02,2.24-10.45,5.18-23.29s5.38-23.25,5.46-23.23c0.08,0.02-2.24,10.45-5.18,23.29
					C139.98,153.99,137.53,164.39,137.45,164.37z"/>
			</g>
		</g>
	</g>
	<g>
		<g>
			<g>
				<path class="st1" d="M138.06,175.91c-0.06-0.01,0.05-0.84,0.3-2.33c0.25-1.49,0.63-3.64,1.12-6.3
					c0.99-5.31,2.41-12.64,4.04-20.72c1.63-8.08,3.14-15.39,4.29-20.67c0.57-2.64,1.05-4.77,1.4-6.24s0.57-2.28,0.63-2.26
					c0.06,0.01-0.05,0.84-0.3,2.33s-0.63,3.64-1.13,6.3c-0.99,5.31-2.41,12.64-4.03,20.72c-1.62,8.08-3.14,15.39-4.29,20.67
					c-0.57,2.64-1.05,4.77-1.4,6.25C138.34,175.11,138.12,175.92,138.06,175.91z"/>
			</g>
		</g>
	</g>
	<g>
		<g>
			<g>
				<path class="st1" d="M138.92,156.05c-0.12-0.05,0.48-1.75,1.42-4.52c0.94-2.76,2.17-6.59,3.34-10.88
					c1.16-4.29,2.04-8.22,2.63-11.08c0.59-2.86,0.94-4.63,1.06-4.61c0.11,0.02-0.02,1.83-0.46,4.72c-0.44,2.9-1.22,6.88-2.39,11.19
					c-1.18,4.32-2.52,8.15-3.6,10.87C139.83,154.47,139.02,156.09,138.92,156.05z"/>
			</g>
		</g>
	</g>
	<g>
		<g>
			<g>
				<path class="st1" d="M135.98,183.48c-0.12-0.04,0.57-2.3,1.6-5.98c1.04-3.67,2.37-8.77,3.54-14.47
					c1.17-5.7,1.96-10.91,2.46-14.7c0.5-3.78,0.76-6.14,0.89-6.13c0.06,0,0.07,0.6,0.03,1.67c-0.03,1.07-0.13,2.62-0.31,4.53
					c-0.34,3.81-1.04,9.07-2.22,14.8c-1.18,5.73-2.62,10.83-3.81,14.48c-0.59,1.82-1.11,3.28-1.5,4.28
					C136.28,182.96,136.03,183.5,135.98,183.48z"/>
			</g>
		</g>
	</g>
	<g class="st10">
		<g>
			<g>
				<path class="st11" d="M165.13,155.22c-0.15,0.05-0.51-0.78-0.4-1.85c0.11-1.08,0.63-1.81,0.76-1.73
					c0.15,0.07-0.09,0.84-0.18,1.79C165.21,154.38,165.29,155.17,165.13,155.22z"/>
			</g>
		</g>
	</g>
	<g class="st10">
		<g>
			<g>
				<path class="st11" d="M166.44,157.35c-0.13,0.09-0.36-0.02-0.5-0.24c-0.14-0.22-0.15-0.47-0.01-0.56
					c0.13-0.09,0.36,0.02,0.5,0.24C166.56,157.01,166.57,157.26,166.44,157.35z"/>
			</g>
		</g>
	</g>
	<g class="st10">
		<g>
			<g>
				<path class="st11" d="M174.19,154.08c-0.16-0.03-0.21-0.48-0.25-1c-0.03-0.52-0.04-0.97,0.12-1.02
					c0.15-0.05,0.43,0.38,0.46,0.99C174.56,153.65,174.35,154.11,174.19,154.08z"/>
			</g>
		</g>
	</g>
	<g class="st10">
		<g>
			<g>
				<path class="st11" d="M180.84,157.81c0.06-0.06,0.2-0.02,0.35-0.1c0.17-0.08,0.28-0.21,0.28-0.49
					c-0.02-0.53-0.54-1.05-0.39-1.16c0.06-0.05,0.22-0.01,0.43,0.15c0.2,0.15,0.52,0.48,0.54,1c0.01,0.25-0.08,0.51-0.25,0.68
					c-0.18,0.17-0.39,0.23-0.56,0.22C180.88,158.1,180.78,157.84,180.84,157.81z"/>
			</g>
		</g>
	</g>
	<g class="st8">
		<g>
			<g>
				<path class="st9" d="M157.68,156.05c0.06-0.07,0.92,1.04,2.84,2.07c1.9,1.06,4.9,1.79,8.23,1.77c3.34,0.01,6.32-0.64,8.41-1.23
					c1.05-0.31,1.89-0.59,2.46-0.82c0.57-0.22,0.89-0.33,0.9-0.31s-0.3,0.17-0.86,0.42c-0.56,0.26-1.39,0.57-2.44,0.91
					c-2.09,0.65-5.1,1.34-8.47,1.33c-3.37,0.02-6.42-0.76-8.33-1.88c-0.24-0.14-0.47-0.27-0.68-0.39c-0.2-0.15-0.39-0.29-0.56-0.42
					c-0.35-0.26-0.65-0.49-0.85-0.73C157.89,156.31,157.66,156.06,157.68,156.05z"/>
			</g>
		</g>
	</g>
	<path class="st12" d="M191.05,196.39c0,0-5.2-4.97-6.23-2.39C183.79,196.57,191.05,196.39,191.05,196.39z"/>
	<g class="st8">
		<g>
			<g>
				<path class="st9" d="M182.12,196.29c-0.02,0.01-0.11-0.1-0.27-0.32c-0.16-0.21-0.35-0.55-0.54-0.99
					c-0.38-0.87-0.63-2.22-0.4-3.67c0.21-1.45,0.83-2.66,1.35-3.44c0.27-0.39,0.51-0.69,0.7-0.88c0.18-0.19,0.29-0.29,0.3-0.28
					c0.04,0.03-0.34,0.48-0.82,1.27c-0.47,0.8-1.04,1.97-1.24,3.37c-0.22,1.4-0.02,2.69,0.3,3.55
					C181.83,195.78,182.17,196.26,182.12,196.29z"/>
			</g>
		</g>
	</g>
	<g class="st10">
		<g>
			<g>
				<path class="st11" d="M155.46,134.57c0.01-0.15,1.3-0.2,2.82,0.21c1.53,0.4,2.63,1.07,2.56,1.21c-0.07,0.15-1.24-0.26-2.71-0.65
					C156.67,134.95,155.45,134.74,155.46,134.57z"/>
			</g>
		</g>
	</g>
	<g class="st10">
		<g>
			<g>
				<path class="st11" d="M153.75,135.09c-0.14-0.09-0.04-0.42,0.3-0.51c0.35-0.09,0.59,0.15,0.51,0.3
					c-0.07,0.15-0.23,0.22-0.37,0.27C154.06,135.18,153.89,135.19,153.75,135.09z"/>
			</g>
		</g>
	</g>
	<g class="st10">
		<g>
			<g>
				<path class="st11" d="M156.98,156.99c0.08-0.14,0.88,0.14,1.78,0.63c0.91,0.49,1.58,1,1.51,1.14c-0.08,0.14-0.88-0.14-1.78-0.63
					C157.58,157.64,156.91,157.13,156.98,156.99z"/>
			</g>
		</g>
	</g>
	<g class="st8">
		<g>
			<g>
				<path class="st9" d="M189.41,172.26c-0.02,0,0-0.27,0.06-0.74c0.06-0.47,0.13-1.15,0.2-2c0.14-1.69,0.21-4.03,0-6.6
					c-0.22-2.57-0.67-4.87-1.09-6.51c-0.21-0.82-0.39-1.48-0.53-1.94c-0.13-0.46-0.2-0.71-0.18-0.72s0.12,0.24,0.29,0.68
					c0.17,0.44,0.38,1.1,0.62,1.92c0.47,1.64,0.96,3.95,1.18,6.54c0.21,2.59,0.11,4.96-0.09,6.65c-0.1,0.85-0.2,1.53-0.29,1.99
					C189.49,172.01,189.43,172.26,189.41,172.26z"/>
			</g>
		</g>
	</g>
	<g class="st15">
		<g>
			<g>
				<path class="st9" d="M193.4,229.76c-0.05-0.1,1.44-0.63,3.35-0.62c1.9-0.05,3.4,0.43,3.36,0.53c-0.01,0.04-0.38-0.05-0.98-0.12
					c-0.6-0.08-1.45-0.12-2.37-0.12c-0.93,0.01-1.77,0.08-2.37,0.17C193.78,229.7,193.42,229.8,193.4,229.76z"/>
			</g>
		</g>
	</g>
	<g class="st10">
		<g>
			<g>
				<path class="st11" d="M96.5,236.28c-0.02-0.01,0.16-0.31,0.52-0.86c0.36-0.55,0.89-1.35,1.58-2.39
					c0.64-1.06,1.44-2.36,2.31-3.89c0.83-1.55,1.81-3.31,2.73-5.33c1.91-4.01,3.86-8.93,5.6-14.53c1.75-5.6,3.31-11.87,4.66-18.51
					c1.37-6.64,2.48-13.01,3.53-18.79c1.06-5.78,2.01-10.99,2.81-15.37c0.82-4.37,1.48-7.91,1.94-10.35
					c0.24-1.22,0.43-2.17,0.56-2.81c0.13-0.64,0.21-0.98,0.23-0.97c0.02,0-0.02,0.35-0.12,0.99c-0.1,0.65-0.25,1.6-0.45,2.83
					c-0.42,2.45-1.02,6-1.76,10.38c-0.76,4.38-1.68,9.6-2.69,15.39c-1.02,5.79-2.12,12.16-3.49,18.81
					c-1.35,6.65-2.93,12.94-4.72,18.56c-1.77,5.62-3.78,10.55-5.74,14.55c-0.95,2.01-1.96,3.76-2.82,5.31
					c-0.91,1.52-1.73,2.8-2.4,3.85c-0.73,1.01-1.29,1.8-1.67,2.33C96.73,236.02,96.52,236.29,96.5,236.28z"/>
			</g>
		</g>
	</g>
	<g class="st10">
		<g>
			<g>
				<path class="st11" d="M49.83,289.59c-0.03-0.03,0.26-0.44,0.82-1.16c0.56-0.72,1.39-1.75,2.45-2.99
					c2.11-2.48,5.14-5.82,8.7-9.31c3.56-3.48,6.95-6.45,9.49-8.5c1.27-1.02,2.3-1.84,3.01-2.41c0.72-0.56,1.13-0.85,1.16-0.82
					s-0.33,0.38-1.01,1c-0.68,0.6-1.67,1.47-2.89,2.55c-2.46,2.13-5.8,5.13-9.34,8.61c-3.55,3.47-6.61,6.75-8.8,9.16
					c-1.09,1.21-1.97,2.19-2.58,2.86C50.21,289.25,49.86,289.61,49.83,289.59z"/>
			</g>
		</g>
	</g>
	<g class="st10">
		<g>
			<g>
				<path class="st11" d="M134.64,252.75c-0.04-0.02,0.13-0.45,0.46-1.21c0.34-0.76,0.83-1.85,1.44-3.2
					c1.21-2.7,2.89-6.43,4.28-10.72c0.68-2.14,1.2-4.22,1.57-6.13c0.32-1.92,0.54-3.66,0.58-5.13c0.11-2.94-0.16-4.77-0.04-4.78
					c0.04-0.01,0.12,0.45,0.24,1.27c0.07,0.41,0.13,0.92,0.15,1.51c0.03,0.59,0.09,1.26,0.06,2.01c0.02,1.49-0.16,3.27-0.46,5.22
					c-0.34,1.94-0.85,4.05-1.54,6.22c-1.4,4.33-3.15,8.05-4.46,10.71c-0.66,1.33-1.21,2.4-1.61,3.12
					C134.91,252.37,134.67,252.76,134.64,252.75z"/>
			</g>
		</g>
	</g>
	<g class="st10">
		<g>
			<g>
				<path class="st11" d="M153.48,104.77c-0.03-0.02,0.21-0.6,0.71-1.62c0.5-1.02,1.27-2.48,2.33-4.22
					c2.11-3.48,5.41-8.09,9.83-12.49c2.21-2.19,4.55-4.08,6.94-5.38c2.39-1.31,4.74-2.03,6.72-2.52c1.98-0.48,3.61-0.74,4.73-0.92
					c1.12-0.17,1.75-0.24,1.76-0.2c0.01,0.04-0.61,0.19-1.71,0.42c-1.11,0.24-2.72,0.57-4.67,1.09c-1.94,0.53-4.25,1.28-6.56,2.59
					c-2.32,1.3-4.61,3.16-6.79,5.33c-4.38,4.35-7.7,8.89-9.89,12.29c-1.1,1.7-1.92,3.12-2.48,4.11
					C153.83,104.24,153.52,104.79,153.48,104.77z"/>
			</g>
		</g>
	</g>
	<g class="st10">
		<g>
			<g>
				<path class="st11" d="M131.04,202.88c-0.02,0-0.01-0.27,0.04-0.77c0.05-0.5,0.12-1.25,0.21-2.21c0.22-1.91,0.53-4.68,0.92-8.11
					c0.81-6.84,2.02-16.28,3.48-26.69c1.47-10.41,2.92-19.81,4.03-26.61c0.57-3.4,1.04-6.14,1.36-8.04c0.18-0.95,0.31-1.68,0.4-2.18
					c0.1-0.5,0.16-0.76,0.18-0.75c0.02,0,0,0.27-0.06,0.77c-0.07,0.5-0.17,1.24-0.3,2.2c-0.28,1.91-0.68,4.66-1.18,8.07
					c-0.99,6.81-2.35,16.23-3.86,26.63c-1.43,10.41-2.72,19.83-3.65,26.66c-0.46,3.41-0.84,6.17-1.1,8.08
					c-0.14,0.95-0.25,1.69-0.32,2.19C131.11,202.62,131.06,202.88,131.04,202.88z"/>
			</g>
		</g>
	</g>
	<g>
		<g>
			<g>
				<path class="st14" d="M101.4,268.77c0,0,0.16-0.2,0.48-0.56c0.32-0.36,0.82-0.86,1.41-1.57c1.21-1.37,2.87-3.45,4.68-6.17
					c3.67-5.42,7.6-13.68,10.15-23.34c2.55-9.67,3.59-18.69,4.31-25.2c0.33-3.26,0.6-5.9,0.79-7.72c0.09-0.91,0.17-1.62,0.22-2.1
					c0.05-0.48,0.09-0.73,0.09-0.73s0,0.25-0.04,0.74c-0.04,0.48-0.09,1.19-0.16,2.1c-0.15,1.83-0.37,4.47-0.7,7.73
					c-0.67,6.51-1.68,15.56-4.24,25.25c-2.55,9.7-6.54,17.98-10.26,23.38c-1.84,2.72-3.53,4.78-4.77,6.13
					c-0.6,0.69-1.12,1.18-1.45,1.54C101.59,268.6,101.4,268.77,101.4,268.77z"/>
			</g>
		</g>
	</g>
	<g>
		<g>
			<g>
				<path class="st14" d="M129.2,132.91c-0.01,0,0.02-0.1,0.08-0.29c0.06-0.18,0.16-0.46,0.28-0.81c0.24-0.7,0.62-1.7,1.11-2.93
					c0.98-2.46,2.48-5.8,4.39-9.36c1.91-3.56,3.87-6.66,5.36-8.84c0.75-1.09,1.37-1.96,1.82-2.55c0.23-0.29,0.4-0.52,0.52-0.68
					c0.12-0.15,0.19-0.23,0.2-0.22c0.01,0.01-0.04,0.09-0.15,0.26c-0.11,0.16-0.27,0.4-0.47,0.71c-0.41,0.61-1.01,1.5-1.74,2.6
					c-1.45,2.21-3.37,5.31-5.28,8.86c-1.9,3.55-3.42,6.87-4.45,9.3c-0.51,1.22-0.91,2.21-1.2,2.89c-0.14,0.34-0.25,0.61-0.33,0.79
					C129.25,132.82,129.21,132.92,129.2,132.91z"/>
			</g>
		</g>
	</g>
	<g>
		<g>
			<g>
				<path class="st14" d="M81.61,268.56c-0.02-0.01,0.1-0.22,0.32-0.6c0.22-0.38,0.56-0.91,1-1.55c0.87-1.29,2.17-3.01,3.75-4.79
					c1.58-1.77,3.15-3.25,4.33-4.27c0.59-0.51,1.08-0.9,1.43-1.17c0.35-0.26,0.54-0.4,0.56-0.39c0.01,0.02-0.16,0.18-0.48,0.47
					c-0.32,0.29-0.79,0.71-1.36,1.23c-1.14,1.05-2.68,2.54-4.25,4.31c-1.57,1.77-2.88,3.46-3.8,4.72c-0.45,0.63-0.82,1.14-1.07,1.49
					C81.78,268.38,81.63,268.57,81.61,268.56z"/>
			</g>
		</g>
	</g>
	<path class="st16" d="M173.55,217.31c8,7.45,14.33,11.13,23.17,10.62c9.36,0.25,16.66-3.9,22.76-10.62l-22.76,0.96L173.55,217.31z"
		/>
	<path class="st17" d="M173.55,217.31c13.32-3.9,16.83-8.64,22.97-5.37c7.6-3.8,13.24,3.88,22.96,5.37l-22.43,1.67L173.55,217.31z"
		/>
	<g>
		<g>
			<g>
				<path class="st18" d="M189.49,218.44c0.01-0.04,0.74,0.1,1.94,0.18c1.2,0.08,2.86,0.12,4.7,0.1c1.84-0.01,3.5-0.07,4.71-0.11
					c1.2-0.04,1.95-0.1,1.95-0.06c0,0.02-0.18,0.06-0.52,0.11c-0.34,0.05-0.82,0.1-1.42,0.15c-1.2,0.1-2.87,0.19-4.72,0.2
					c-1.84,0.01-3.52-0.05-4.72-0.19c-0.6-0.07-1.09-0.15-1.42-0.22C189.67,218.51,189.49,218.46,189.49,218.44z"/>
			</g>
		</g>
	</g>
	<g class="st8">
		<g>
			<g>
				<path class="st9" d="M197.99,196.83c0.06,0.05-0.63,0.68-1.72,0.72c-1.09,0.06-1.84-0.5-1.78-0.55
					c0.04-0.08,0.78,0.32,1.77,0.26C197.24,197.22,197.94,196.76,197.99,196.83z"/>
			</g>
		</g>
	</g>
	<g>
		<path class="st19" d="M188.03,279.66c-13.03-1.97-26.78-4.67-35.37-21.5c-18.2,7.93-111.43,0.91-127.22,91.37
			c68.9,20.8,139.91,47.6,181.83,44.7c43.06,1.64,98.99-23.61,163.07-44.43c-16.2-90.46-110.02-83.44-128.68-91.37
			C232.85,275.27,207.15,281.17,188.03,279.66z"/>
		<g class="st20">
			<g>
				<g>
					<path class="st21" d="M181.52,279.99c0.01-0.08,1.33,0.01,3.45,0.19c2.13,0.18,5.06,0.46,8.3,0.58
						c3.24,0.12,6.18-0.01,8.29-0.24c2.11-0.22,3.41-0.47,3.43-0.38c0.01,0.04-0.31,0.14-0.89,0.29c-0.58,0.16-1.43,0.33-2.49,0.49
						c-2.12,0.34-5.09,0.53-8.36,0.41c-3.27-0.12-6.21-0.47-8.32-0.75C182.81,280.3,181.51,280.06,181.52,279.99z"/>
				</g>
			</g>
		</g>
		<g class="st20">
			<g>
				<g>
					<path class="st21" d="M28.14,348.86c-0.03,0-0.03-0.35,0-1.02c0.01-0.67,0.12-1.65,0.29-2.9c0.35-2.51,1.12-6.11,2.47-10.44
						c2.71-8.62,7.75-20.27,16-31.44c8.18-11.21,18.26-19.22,26.38-23.26c4.04-2.09,7.54-3.24,9.95-4.01
						c1.22-0.33,2.18-0.56,2.83-0.71c0.65-0.15,0.99-0.22,1-0.19c0.01,0.03-0.32,0.15-0.95,0.36c-0.63,0.2-1.57,0.49-2.77,0.87
						c-2.36,0.87-5.81,2.09-9.77,4.23c-7.97,4.15-17.85,12.12-25.96,23.23c-8.17,11.07-13.27,22.59-16.11,31.11
						c-1.41,4.28-2.27,7.83-2.72,10.3C28.3,347.47,28.21,348.86,28.14,348.86z"/>
				</g>
			</g>
		</g>
		<g id="Capa_4_2_">
			<path class="st0" d="M264.78,341.94h0.59c0.3,0,0.51,0.17,0.51,0.47c0,0.3-0.2,0.48-0.52,0.48h-0.44v0.73h-0.13V341.94z
				 M264.91,342.77h0.45c0.26,0,0.37-0.14,0.37-0.36c0.01-0.18-0.13-0.34-0.31-0.35c-0.02,0-0.04,0-0.06,0h-0.46V342.77z"/>
			<path class="st0" d="M266.36,342.83v0.78h-0.12v-1.68h0.59c0.32,0,0.49,0.18,0.49,0.44c0.01,0.19-0.12,0.36-0.31,0.39
				c0.17,0.04,0.28,0.15,0.28,0.44v0.06c-0.01,0.11,0,0.23,0.02,0.34h-0.13c-0.03-0.11-0.03-0.23-0.02-0.35v-0.04
				c0-0.28-0.08-0.39-0.39-0.39H266.36z M266.36,342.71h0.4c0.29,0,0.42-0.11,0.42-0.33s-0.13-0.32-0.39-0.32h-0.43V342.71z"/>
			<path class="st0" d="M269.1,342.77c0,0.46-0.23,0.87-0.74,0.87c-0.46,0-0.73-0.38-0.73-0.86c0-0.48,0.26-0.86,0.75-0.86
				C268.82,341.92,269.1,342.28,269.1,342.77z M267.76,342.77c0,0.39,0.21,0.75,0.6,0.75c0.42,0,0.6-0.36,0.6-0.75
				s-0.2-0.73-0.6-0.73C267.95,342.04,267.76,342.39,267.76,342.77L267.76,342.77z"/>
			<path class="st0" d="M269.83,343.62v-0.63c0-0.01,0-0.03-0.01-0.04l-0.59-1.01h0.15c0.16,0.29,0.45,0.78,0.52,0.91
				c0.07-0.12,0.36-0.62,0.53-0.91h0.14l-0.61,1.02c-0.01,0.01-0.01,0.02-0.01,0.04v0.62H269.83z"/>
			<path class="st0" d="M271.79,342.79h-0.84v0.7h0.91l-0.02,0.12h-1.02v-1.68h1v0.12h-0.88v0.61h0.84V342.79z"/>
			<path class="st0" d="M273.44,343.17c-0.07,0.29-0.33,0.48-0.62,0.47c-0.47,0-0.72-0.38-0.72-0.86c0-0.45,0.24-0.87,0.72-0.87
				c0.35,0,0.56,0.2,0.62,0.48h-0.13c-0.06-0.23-0.27-0.38-0.5-0.36c-0.41,0-0.58,0.38-0.58,0.74c0,0.36,0.17,0.74,0.59,0.74
				c0.22,0.01,0.42-0.13,0.48-0.35L273.44,343.17z"/>
			<path class="st0" d="M274.17,342.06h-0.55v-0.12h1.23v0.12h-0.55v1.56h-0.13V342.06z"/>
			<path class="st0" d="M276.45,342.77c0,0.46-0.23,0.87-0.74,0.87c-0.46,0-0.73-0.38-0.73-0.86c0-0.48,0.26-0.86,0.75-0.86
				C276.17,341.92,276.45,342.28,276.45,342.77z M275.11,342.77c0,0.39,0.21,0.75,0.6,0.75c0.42,0,0.6-0.36,0.6-0.75
				s-0.2-0.73-0.6-0.73C275.29,342.04,275.11,342.39,275.11,342.77L275.11,342.77z"/>
			<path class="st0" d="M278.42,342.79h-0.84v0.7h0.92l-0.02,0.12h-1.02v-1.68h1.01v0.12h-0.88v0.61h0.84V342.79z"/>
			<path class="st0" d="M278.85,341.94h0.54c0.45,0,0.76,0.32,0.76,0.82c0,0.5-0.3,0.85-0.76,0.85h-0.54V341.94z M278.97,343.5h0.4
				c0.43,0,0.65-0.31,0.65-0.73c0-0.37-0.19-0.71-0.65-0.71h-0.4V343.5z"/>
			<path class="st0" d="M280.67,341.94v1.02c0,0.45,0.25,0.56,0.48,0.56c0.27,0,0.48-0.12,0.48-0.56v-1.02h0.13v1.01
				c0,0.52-0.27,0.69-0.61,0.69c-0.34,0-0.6-0.18-0.6-0.67v-1.03H280.67z"/>
			<path class="st0" d="M283.46,343.17c-0.07,0.29-0.33,0.48-0.62,0.47c-0.47,0-0.72-0.38-0.72-0.86c0-0.45,0.24-0.87,0.72-0.87
				c0.35,0,0.56,0.2,0.62,0.48h-0.13c-0.06-0.23-0.27-0.38-0.5-0.36c-0.41,0-0.59,0.38-0.59,0.74c0,0.36,0.17,0.74,0.59,0.74
				c0.22,0.01,0.42-0.13,0.48-0.35L283.46,343.17z"/>
			<path class="st0" d="M283.99,343.04l-0.21,0.58h-0.13l0.6-1.68h0.15l0.63,1.68h-0.14l-0.21-0.58H283.99z M284.64,342.92
				c-0.18-0.5-0.28-0.74-0.31-0.85l0,0c-0.04,0.13-0.15,0.42-0.29,0.85H284.64z"/>
			<path class="st0" d="M285.47,342.06h-0.55v-0.12h1.23v0.12h-0.55v1.56h-0.13V342.06z"/>
			<path class="st0" d="M286.55,341.94v1.68h-0.13v-1.68H286.55z"/>
			<path class="st0" d="M287.44,343.62l-0.61-1.68h0.14l0.32,0.88c0.09,0.25,0.19,0.53,0.23,0.68l0,0c0.04-0.12,0.15-0.42,0.23-0.67
				l0.33-0.89h0.13l-0.63,1.68H287.44z"/>
			<path class="st0" d="M289.88,342.77c0,0.46-0.23,0.87-0.75,0.87c-0.46,0-0.73-0.38-0.73-0.86c0-0.48,0.26-0.86,0.75-0.86
				C289.61,341.92,289.88,342.28,289.88,342.77z M288.55,342.77c0,0.39,0.21,0.75,0.6,0.75c0.42,0,0.6-0.36,0.6-0.75
				s-0.2-0.73-0.6-0.73C288.73,342.04,288.55,342.39,288.55,342.77L288.55,342.77z"/>
			<path class="st0" d="M265.01,349.92l-0.6,0.12l-0.77-4.27l0,0c-0.1,0.21-0.31,0.68-0.64,1.43s-0.66,1.5-0.97,2.25h-0.51
				c-0.29-0.7-0.62-1.45-0.98-2.26s-0.57-1.28-0.63-1.42h-0.01c-0.02,0.07-0.12,0.55-0.3,1.45c-0.18,0.9-0.36,1.84-0.53,2.81
				l-0.57-0.11c0.25-1.09,0.48-2.18,0.7-3.25c0.22-1.07,0.33-1.65,0.35-1.74l0.59-0.09l0.53,1.22c0.33,0.76,0.71,1.63,1.15,2.62
				h0.02c0.34-0.78,0.69-1.6,1.07-2.48c0.38-0.88,0.57-1.33,0.59-1.36l0.56,0.05c0.01,0.06,0.11,0.61,0.31,1.67
				C264.55,347.62,264.77,348.74,265.01,349.92z"/>
			<path class="st0" d="M269.45,349.99h-0.49c-0.31,0-0.69,0-1.14,0c-0.31,0-0.6,0-0.86,0c-0.26,0-0.48,0-0.66,0
				c0-0.15,0.01-0.47,0.01-0.96c0-0.49,0-1,0-1.52c0-0.29,0-0.67,0-1.14c0-0.47-0.01-0.96-0.02-1.46h0.66c0.26,0,0.54,0,0.82,0
				c0.47,0,0.86,0,1.15,0h0.48v0.53h-0.47c-0.29,0-0.64,0-1.07-0.01h-0.55h-0.42c0,0.29,0,0.57-0.01,0.86s-0.01,0.55-0.01,0.81h0.4
				h0.41c0.44,0,0.83,0,1.17,0l0.55-0.01v0.52h-0.61c-0.39,0-0.74,0-1.07,0h-0.42h-0.41c0,0.48,0,0.86,0,1.14
				c0,0.28,0,0.52,0.01,0.71c0.15,0,0.32,0,0.53,0.01h0.67c0.37,0,0.68,0,0.93,0h0.42L269.45,349.99z"/>
			<path class="st0" d="M276.96,349.92l-0.6,0.12l-0.77-4.27l0,0c-0.1,0.21-0.31,0.68-0.64,1.43s-0.65,1.5-0.97,2.25h-0.51
				c-0.29-0.7-0.62-1.45-0.98-2.26c-0.36-0.81-0.57-1.28-0.63-1.42h-0.01c-0.01,0.07-0.11,0.55-0.3,1.45s-0.36,1.84-0.53,2.81
				l-0.57-0.11c0.25-1.09,0.48-2.18,0.7-3.25c0.22-1.07,0.33-1.65,0.35-1.74l0.59-0.09l0.53,1.22c0.33,0.76,0.71,1.63,1.15,2.62
				h0.02c0.34-0.78,0.69-1.6,1.07-2.48c0.38-0.88,0.57-1.33,0.59-1.36l0.56,0.05c0.01,0.06,0.11,0.61,0.31,1.67
				C276.5,347.62,276.72,348.74,276.96,349.92z"/>
			<path class="st0" d="M282.64,347.46c0,0.39-0.07,0.77-0.21,1.13c-0.12,0.32-0.3,0.61-0.54,0.85c-0.43,0.46-1.04,0.72-1.66,0.71
				c-0.3,0-0.59-0.05-0.87-0.16c-0.27-0.11-0.52-0.27-0.73-0.48c-0.25-0.25-0.45-0.54-0.59-0.87c-0.15-0.38-0.23-0.78-0.22-1.18
				c0-0.36,0.05-0.72,0.17-1.07c0.12-0.32,0.29-0.61,0.52-0.86c0.22-0.24,0.48-0.43,0.77-0.55c0.6-0.26,1.27-0.26,1.87-0.01
				c0.28,0.12,0.53,0.29,0.74,0.51c0.24,0.25,0.43,0.56,0.55,0.89C282.57,346.71,282.64,347.08,282.64,347.46z M282,347.52
				c0-0.33-0.05-0.66-0.16-0.97c-0.1-0.3-0.27-0.58-0.49-0.8c-0.15-0.14-0.32-0.26-0.5-0.34c-0.2-0.08-0.41-0.12-0.62-0.12
				c-0.43-0.01-0.84,0.17-1.14,0.49c-0.21,0.21-0.37,0.47-0.47,0.75c-0.22,0.62-0.22,1.3,0,1.92c0.11,0.28,0.27,0.53,0.48,0.73
				c0.15,0.14,0.32,0.26,0.5,0.34c0.4,0.17,0.84,0.17,1.24,0c0.19-0.09,0.37-0.21,0.52-0.36c0.2-0.2,0.35-0.44,0.46-0.7
				C281.94,348.16,282.01,347.84,282,347.52L282,347.52z"/>
			<path class="st0" d="M287.89,349.7l-0.47,0.39c-0.05-0.06-0.25-0.28-0.58-0.66c-0.33-0.38-0.84-0.98-1.53-1.79v-0.03
				c0.13-0.04,0.26-0.1,0.38-0.17c0.14-0.08,0.27-0.17,0.39-0.28c0.1-0.09,0.18-0.2,0.24-0.32c0.08-0.16,0.11-0.33,0.1-0.51
				c0-0.18-0.05-0.36-0.15-0.5c-0.1-0.14-0.25-0.25-0.41-0.31c-0.15-0.06-0.3-0.09-0.45-0.1c-0.16-0.01-0.3-0.02-0.44-0.02h-0.2
				h-0.1c0,0.48-0.01,0.9-0.01,1.27c0,0.37,0,0.63,0,0.78c0,0.35,0,0.82,0.01,1.42c0,0.6,0.01,0.97,0.01,1.12h-0.61
				c0-0.15,0-0.45,0.01-0.88c0.01-0.44,0.01-0.98,0.01-1.63v-0.7c0-0.34-0.01-0.97-0.02-1.87l0.37-0.01c0.22,0,0.43-0.01,0.62-0.01
				c0.21,0,0.42,0.01,0.63,0.04c0.2,0.03,0.4,0.08,0.59,0.16c0.23,0.1,0.44,0.26,0.59,0.47c0.15,0.21,0.22,0.47,0.22,0.73
				c0.01,0.33-0.11,0.65-0.32,0.9c-0.18,0.21-0.38,0.39-0.61,0.53v0.02c0.34,0.41,0.71,0.83,1.12,1.26
				C287.65,349.43,287.87,349.66,287.89,349.7z"/>
			<path class="st0" d="M289.58,350h-0.61c0-0.15,0.01-0.42,0.01-0.81c0-0.39,0.01-0.95,0.01-1.68c0-0.29,0-0.67,0-1.14
				c0-0.47-0.01-0.96-0.02-1.46h0.61c0,0.36-0.01,0.78-0.01,1.27c0,0.48-0.01,0.87-0.01,1.18c0,0.77,0,1.37,0.01,1.79
				S289.58,349.85,289.58,350z"/>
			<path class="st0" d="M295.52,349.8l-0.58,0.31c-0.01-0.03-0.09-0.22-0.23-0.57s-0.35-0.8-0.59-1.35h-2.21
				c-0.26,0.59-0.46,1.05-0.6,1.37c-0.14,0.32-0.22,0.51-0.23,0.54l-0.5-0.28c0.06-0.13,0.33-0.71,0.8-1.74s0.95-2.11,1.45-3.25
				h0.48c0.5,1.14,0.98,2.24,1.46,3.3S295.5,349.76,295.52,349.8z M293.91,347.71c-0.13-0.31-0.27-0.63-0.42-0.97
				s-0.3-0.69-0.46-1.06h-0.01c-0.13,0.28-0.28,0.62-0.45,1.03s-0.32,0.74-0.44,1l0,0L293.91,347.71L293.91,347.71z"/>
			<path class="st22" d="M291.5,315.56c-1.49-0.68-3.07,0.65-3.93,2.59c-0.93,2.09-0.92,4.96-2.22,7.26
				c-0.96,1.89-2.57,2.88-3.95,2.32c-1.38-0.57-1.58-2.05-1.1-4.23c2.22-7.79,5.54-8.39,7.52-13.86c0.44-1.8-0.1-4.07-1.76-4.6
				c-1.92-0.61-3.63,1.09-4.72,2.98c-1.96,3.82-0.3,7.34-1.9,12.22c-0.46,1.96-1.71,3.49-3.19,3.23s-2.19-1.2-2.42-3.65
				c-0.48-3.65-1.03-7.78-1.21-9.11c-0.28-2.22-1.92-3.86-3.66-3.65s-2.84,2.19-2.82,4.4c0.11,1.27,0.38,2.11,0.9,2.99
				c2.34,3.63,5.16,5,7.39,11.38c0.79,2.16,0.57,4.01-0.78,4.7s-3.17,0.04-4-1.98c-1.02-2.49-2.37-4.35-4.43-5.32
				c-1.27-0.69-2.95-0.76-3.6,0.02c-0.65,0.79-0.18,2.33,0.44,3.11c1.55,1.97,3.51,1.97,5.76,3.23c1.24,0.7,3.16,1.8,4.65,3.75
				c2.51-4.24,6.92-5.05,10.44-2.2c-4.05-2.28-7.41-1.6-10.42,2.22c0.39,0.51,0.72,1.05,1.01,1.62c1.34,3.11,1.39,4.43,4.91,4.43
				c5.22,0,3.31-4.96,5.62-9.18c2.49-4.96,3.39-4.9,6.55-7.75c0.72-0.65,1.6-1.3,2.06-2.67C293.3,317.85,292.73,316.11,291.5,315.56
				z M281.87,311.78c0.91,0.44,1.8,0.16,2.27,0.01c0.81-0.26,1.53-0.78,2.03-1.49c0.98-1.44,0.96-3.69-0.06-4.27
				c-0.49-0.28-1.08-0.1-1.26-0.05c-0.9,0.27-1.4,1.13-1.51,1.87c-0.12,0.8,0.21,1.87,0.84,1.98c0.49,0.09,1.08-0.39,1.23-1.03
				c0.14-0.6-0.16-1.25-0.76-1.6c0.65,0.36,1,1.03,0.91,1.68c-0.09,0.62-0.53,1.29-1.25,1.3c-0.85,0.02-1.33-0.94-1.43-1.69
				c-0.06-1.17,0.54-2.27,1.53-2.83c0.27-0.15,1.04-0.41,1.65-0.17c0.84,0.33,1.15,1.38,1.24,1.88c0.05,0.31,0.18,2.09-1.08,3.49
				c-0.7,0.75-1.63,1.24-2.64,1.36c-0.48,0.06-1.2,0.14-1.89-0.29c-0.89-0.54-1.08-1.5-1.12-1.7
				C280.78,310.9,281.25,311.46,281.87,311.78L281.87,311.78z M272.07,311.75c-0.12,1-0.6,1.92-1.35,2.59
				c-0.36,0.31-0.9,0.78-1.72,0.82c-1.05,0.05-1.78-0.62-1.93-0.76c0.18,0.13,0.97,0.69,1.99,0.54c1-0.14,1.56-0.87,1.86-1.26
				c0.51-0.67,0.78-1.5,0.77-2.35c-0.06-1.73-1.42-3.55-2.59-3.45c-0.56,0.05-0.94,0.52-1.05,0.66c-0.58,0.72-0.47,1.71-0.12,2.37
				c0.38,0.72,1.29,1.4,1.86,1.14c0.45-0.2,0.65-0.93,0.39-1.53c-0.24-0.57-0.88-0.93-1.57-0.88c0.74-0.07,1.43,0.28,1.74,0.86
				c0.29,0.55,0.33,1.35-0.25,1.77c-0.68,0.49-1.65-0.03-2.17-0.58c-0.79-0.99-0.88-2.26-0.44-3.17c0.13-0.27,0.61-0.92,1.24-1.06
				c0.88-0.2,1.77,0.48,2.13,0.84C271.1,308.52,272.26,309.9,272.07,311.75L272.07,311.75z M266.49,326.29
				c-0.03,0.34-0.07,0.85-0.49,1.29c-0.53,0.56-1.26,0.59-1.41,0.59c0.16-0.02,0.87-0.14,1.33-0.74s0.38-1.24,0.34-1.58
				c-0.08-0.61-0.36-1.16-0.8-1.58c-0.92-0.84-2.57-1.08-3.15-0.43c-0.27,0.31-0.23,0.74-0.22,0.87c0.07,0.66,0.63,1.11,1.15,1.26
				c0.57,0.17,1.4,0.06,1.58-0.37c0.13-0.33-0.13-0.8-0.58-0.97c-0.46-0.16-0.97-0.02-1.29,0.35c0.34-0.4,0.86-0.58,1.37-0.45
				c0.44,0.13,0.87,0.52,0.78,1.02c-0.11,0.59-0.89,0.82-1.45,0.81c-0.94-0.1-1.63-0.69-1.86-1.38c-0.07-0.2-0.15-0.77,0.11-1.17
				c0.36-0.55,1.19-0.65,1.56-0.66c0.23,0,1.56,0.1,2.41,1.13C266.31,324.86,266.54,325.57,266.49,326.29L266.49,326.29z
				 M280.21,339.06c0.19-0.21,0.89-1,0.87-2.16c0-0.13-0.05-1.69-1.31-2.4c-0.2-0.11-0.91-0.51-1.65-0.24
				c-0.85,0.31-1.34,1.33-1.11,2.19c0.22,0.83,1.03,1.7,1.81,1.41c0.41-0.18,0.66-0.62,0.61-1.08c-0.07-0.56-0.66-1.03-1.38-0.99
				c0.62-0.16,1.26,0.12,1.53,0.63c0.22,0.45,0.14,0.99-0.2,1.36c-0.46,0.52-1.17,0.43-1.26,0.42c-0.84-0.11-1.37-0.96-1.53-1.6
				c-0.24-1,0.22-2.27,1.26-2.68c0.92-0.37,1.83,0.12,2.03,0.23c1.03,0.56,1.32,1.58,1.38,1.86
				C281.65,337.67,280.3,338.97,280.21,339.06z M274.12,336.46c0.22-5.19,5.35-6.24,8.59-3.15
				C278.52,330.42,274.78,332.29,274.12,336.46L274.12,336.46z M291.39,320.23c-0.45,0.65-1.11,1.12-1.86,1.32
				c-0.36,0.09-0.9,0.23-1.48-0.02c-0.5-0.23-0.88-0.65-1.05-1.18c0.24,0.49,0.66,0.87,1.17,1.05c0.75,0.24,1.39-0.07,1.74-0.24
				c0.59-0.29,1.08-0.76,1.38-1.36c0.59-1.21,0.31-2.92-0.53-3.26c-0.4-0.16-0.84,0.04-0.97,0.1c-0.66,0.3-0.95,1.02-0.94,1.59
				c0,0.62,0.38,1.4,0.87,1.42c0.38,0.01,0.78-0.42,0.82-0.92c0.04-0.47-0.26-0.94-0.76-1.14c0.53,0.2,0.88,0.68,0.88,1.19
				c0,0.48-0.26,1.04-0.81,1.13c-0.65,0.1-1.12-0.58-1.29-1.14c-0.18-0.88,0.15-1.79,0.85-2.33c0.19-0.14,0.75-0.42,1.24-0.31
				c0.68,0.16,1.04,0.94,1.16,1.31C291.9,317.68,292.2,319.02,291.39,320.23z"/>
		</g>
	</g>
	<circle class="st23" cx="199.02" cy="198.63" r="191.85"/>
	<path d="M235.36,156.05l8.14-3.99c0,0-6.12,1.65-11.57,0.26C231.93,152.32,235.09,154.88,235.36,156.05z"/>
	<g>
		<g>
			<g>
				<path d="M228.35,150.36c0.04-0.09,1.54,0.65,3.38,1.52c1.85,0.82,3.55,0.91,3.52,1.04c0,0.04-0.42,0.03-1.09-0.06
					c-0.67-0.09-1.6-0.28-2.55-0.71c-0.94-0.43-1.75-0.88-2.34-1.2C228.69,150.61,228.33,150.39,228.35,150.36z"/>
			</g>
		</g>
	</g>
	<path d="M157.75,156.02l-8.14-3.99c0,0,6.12,1.65,11.57,0.26C161.18,152.29,158.02,154.85,157.75,156.02z"/>
	<g>
		<g>
			<g>
				<path d="M164.76,150.33c0.02,0.04-0.34,0.25-0.92,0.58c-0.59,0.32-1.39,0.78-2.34,1.2c-0.95,0.43-1.88,0.62-2.55,0.71
					c-0.67,0.09-1.09,0.1-1.09,0.06c-0.03-0.12,1.67-0.22,3.52-1.04C163.22,150.98,164.72,150.24,164.76,150.33z"/>
			</g>
		</g>
	</g>
</g>
</svg>
