<?xml version="1.0" encoding="utf-8"?>
<!-- Generator: Adobe Illustrator 26.0.0, SVG Export Plug-In . SVG Version: 6.00 Build 0)  -->
<svg version="1.1" id="Capa_1" xmlns="http://www.w3.org/2000/svg" xmlns:xlink="http://www.w3.org/1999/xlink" x="0px" y="0px"
	 viewBox="0 0 396.85 396.85" style="enable-background:new 0 0 396.85 396.85;" xml:space="preserve">
<style type="text/css">
	.st0{fill:#494A24;}
	.st1{opacity:0.43;}
	.st2{fill:#FFFFFF;}
	.st3{fill:#301C19;}
	.st4{fill:#C89175;}
	.st5{fill:#C28C73;}
	.st6{clip-path:url(#SVGID_00000085973671532156149870000004429050438357108377_);}
	.st7{clip-path:url(#SVGID_00000085973671532156149870000004429050438357108377_);fill:#301C19;}
	.st8{clip-path:url(#SVGID_00000085973671532156149870000004429050438357108377_);fill:#F6F6F6;}
	.st9{fill:#231413;}
	.st10{clip-path:url(#SVGID_00000085973671532156149870000004429050438357108377_);fill:#120B0B;}
	.st11{fill:#120B0B;}
	.st12{opacity:0.5;clip-path:url(#SVGID_00000085973671532156149870000004429050438357108377_);fill:#190D0C;}
	.st13{opacity:0.5;clip-path:url(#SVGID_00000085973671532156149870000004429050438357108377_);}
	.st14{fill:#381E1B;}
	.st15{opacity:0.34;clip-path:url(#SVGID_00000085973671532156149870000004429050438357108377_);}
	.st16{opacity:0.18;clip-path:url(#SVGID_00000085973671532156149870000004429050438357108377_);}
	.st17{fill:#131214;}
	.st18{fill:none;stroke:#301C19;stroke-miterlimit:10;}
	.st19{opacity:0.33;clip-path:url(#SVGID_00000085973671532156149870000004429050438357108377_);}
	.st20{opacity:0.32;clip-path:url(#SVGID_00000085973671532156149870000004429050438357108377_);}
	.st21{fill:none;stroke:#381E1B;stroke-miterlimit:10;}
	.st22{opacity:0.43;clip-path:url(#SVGID_00000085973671532156149870000004429050438357108377_);}
	.st23{fill:#C6C6C6;}
	.st24{fill:#996B5C;}
	.st25{fill:#8A6153;}
	.st26{fill:#F2F2F2;}
	.st27{fill:#9F9F35;}
	.st28{clip-path:url(#SVGID_00000085973671532156149870000004429050438357108377_);fill:none;}
</style>
<circle class="st0" cx="198.09" cy="196.84" r="195.84"/>
<g class="st1">
	<g>
		<g>
			<path class="st2" d="M211.29,50.06c-0.04,0.07-0.94-0.32-2.45-0.84c-1.51-0.52-3.61-1.19-5.96-1.81
				c-2.32-0.62-4.54-0.56-6.09-0.31c-1.56,0.24-2.49,0.61-2.52,0.52c-0.03-0.06,0.86-0.57,2.45-0.92c1.58-0.36,3.9-0.49,6.32,0.16
				c2.37,0.63,4.48,1.36,5.96,1.99C210.47,49.46,211.33,49.98,211.29,50.06z"/>
		</g>
	</g>
</g>
<path class="st3" d="M187.69,47.27c0,0-3.97-4.37-14.33-0.97c-8.61,2.83-32.24,11.23-42.83,26.51
	c-10.24,14.78-30.08,63.85-34.25,106c-4.17,42.14-17.15,62.26-26.45,72.47s-16.89,42.11-17.22,52.97
	c-0.46,15.31,96.47-32.62,96.47-32.62c6.47-7.49,2.65-28.65-0.4-40.95c-2.15-8.69-18.91-33.15-19.48-39.48
	c-0.57-6.33-0.04-68.83,4.24-82.32c14.88-46.88,56.86-56.63,56.86-56.63L187.69,47.27z"/>
<path class="st3" d="M187.69,47.27c0,0,10.77-5.22,20.53-0.97c8.3,3.62,32.24,11.23,42.83,26.51c10.24,14.78,30.08,63.85,34.25,106
	s17.15,62.26,26.45,72.47c9.3,10.22,20.46,35.93,14.81,48.58c-6.24,13.99-91.57-28.23-91.57-28.23c-6.47-7.49-3.28-28.64-0.24-40.94
	c2.15-8.69,17.06-33.16,17.63-39.49c0.57-6.33,2.49-69.87-4.24-82.32c-6.73-12.45-60.44-55.64-60.44-55.64V47.27z"/>
<path class="st4" d="M149.09,271.64c1.57-3.44,2.04-37.28-3.54-45.51l92.96-3.09c0,0-9.14,28.37-3.54,48.61
	c0,0-15.35,29.33-43.92,29.33C165.27,300.96,149.09,271.64,149.09,271.64z"/>
<path class="st5" d="M236.87,228.97c-19.01,23.3-33.3,39.73-42.67,39.73h-5.74c-9.37,0-28.13-17.75-40.51-35.77L236.87,228.97z"/>
<path class="st4" d="M193.18,254.58c9.37,0,17.79-5.36,40.37-22.77s22-51.65,21.81-60.07s-3.25-46.68-3.25-47.64
	c0,0-9.76-73.65-61.79-71.55c-52.04-2.1-61.79,71.55-61.79,71.55c0,0.96-3.06,39.22-3.25,47.64c-0.19,8.42-0.77,42.66,21.81,60.07
	s30.99,22.77,40.37,22.77H193.18z"/>
<g>
	<defs>
		<circle id="SVGID_1_" cx="198.26" cy="197.03" r="195.84"/>
	</defs>
	<clipPath id="SVGID_00000170986197655929619540000012194449489079180162_">
		<use xlink:href="#SVGID_1_"  style="overflow:visible;"/>
	</clipPath>
	<g style="clip-path:url(#SVGID_00000170986197655929619540000012194449489079180162_);">
		<g>
			<g>
				<path class="st5" d="M233.02,137.45c-0.01,0.11-1.75,0.09-4.54,0.54c-2.78,0.45-6.65,1.09-10.77,2.28
					c-4.15,1.19-7.91,2.26-10.64,3.04c-2.72,0.79-4.38,1.33-4.43,1.22c-0.05-0.11,1.55-0.87,4.24-1.81
					c2.68-0.95,6.42-2.13,10.59-3.29c4.19-1.21,8.1-1.75,10.93-2.05C231.25,137.08,233.04,137.32,233.02,137.45z"/>
			</g>
		</g>
	</g>
	<path style="clip-path:url(#SVGID_00000170986197655929619540000012194449489079180162_);fill:#301C19;" d="M202.65,144.53
		c5.21-1.88,22.58-7.85,30.57-7.22c7.99,0.63,12.85,2.35,12.85,2.35s-9.28-7.55-12.06-7.85c-3.46-0.37-17.49,1.4-23.24,3.93
		C204.74,139.69,202.65,144.53,202.65,144.53z"/>
	<path style="clip-path:url(#SVGID_00000170986197655929619540000012194449489079180162_);fill:#F6F6F6;" d="M209.84,155.57
		c-0.93-0.09,0.96-1.3,0.96-1.3s4.45-6.52,14.11-5.95c9.23,0.54,12.21,4.7,12.21,4.7s-6.33,5.88-24.93,2.77
		C211.43,155.66,210.64,155.65,209.84,155.57z"/>
	<g style="clip-path:url(#SVGID_00000170986197655929619540000012194449489079180162_);">
		<g>
			<g>
				<path class="st9" d="M201.92,140.08c0.09,0,0.05,0.95,0.26,2.08c0.23,1.12,0.47,2.05,0.38,2.07c-0.06,0.01-0.42-0.86-0.66-2.02
					C201.67,141.03,201.85,140.07,201.92,140.08z"/>
			</g>
		</g>
	</g>
	<g style="clip-path:url(#SVGID_00000170986197655929619540000012194449489079180162_);">
		<path class="st3" d="M203.47,143.57c-0.04-2.44,3.58-6.26,7.09-7.74c0.27-0.11,0.57-0.17,0.86-0.22"/>
	</g>
	<g style="clip-path:url(#SVGID_00000170986197655929619540000012194449489079180162_);">
		<g>
			<g>
				<path class="st9" d="M205.57,137.41c0.03,0.04-0.3,0.34-0.74,0.9c-0.45,0.56-0.99,1.39-1.43,2.39c-0.44,1-0.68,1.96-0.73,2.67
					c-0.06,0.71,0.03,1.15-0.02,1.16c-0.03,0.01-0.19-0.43-0.18-1.17c0-0.74,0.22-1.75,0.67-2.78
					C204.03,138.49,205.54,137.33,205.57,137.41z"/>
			</g>
		</g>
	</g>
	<g style="clip-path:url(#SVGID_00000170986197655929619540000012194449489079180162_);">
		<g>
			<g>
				<path class="st9" d="M203.23,138.29c0.08,0.03-0.45,1.36-0.6,3.1c-0.19,1.74,0.1,3.13,0.02,3.15c-0.08,0.03-0.51-1.39-0.31-3.18
					C202.49,139.57,203.16,138.24,203.23,138.29z"/>
			</g>
		</g>
	</g>
	<path style="clip-path:url(#SVGID_00000170986197655929619540000012194449489079180162_);fill:#120B0B;" d="M229.13,151.61
		c0,1.9-0.97,3.78-2.38,4.88c0,0-1.38,0.21-3.7,0.21c-2.12,0-3.49-0.02-3.49-0.02c-1.71-1.07-2.84-2.94-2.84-5.07
		c0-0.92,0.21-1.8,0.59-2.58c0,0,2.26-0.91,5.61-0.74c4.32,0.21,5.61,0.75,5.61,0.75C228.92,149.81,229.13,150.68,229.13,151.61z"/>
	<g style="clip-path:url(#SVGID_00000170986197655929619540000012194449489079180162_);">
		<g>
			<g>
				<path class="st11" d="M237.11,153.02c-0.12,0.12-1.21-1.19-3.51-2.45c-1.15-0.63-2.62-1.17-4.32-1.49
					c-1.7-0.32-3.62-0.41-5.65-0.36c-2.02,0.03-3.94,0.2-5.58,0.69c-1.65,0.47-2.96,1.32-4.01,2.12c-2.1,1.61-3.21,2.86-3.31,2.76
					c-0.08-0.06,0.86-1.46,2.93-3.24c1.02-0.87,2.4-1.86,4.16-2.41c1.74-0.57,3.74-0.77,5.8-0.8c2.05-0.05,4.05,0.06,5.82,0.44
					c1.77,0.38,3.31,1.01,4.47,1.74c1.17,0.72,1.99,1.48,2.5,2.03C236.92,152.64,237.15,152.98,237.11,153.02z"/>
			</g>
		</g>
	</g>
	<path style="opacity:0.5;clip-path:url(#SVGID_00000170986197655929619540000012194449489079180162_);fill:#190D0C;" d="
		M200.03,190.09c-2.51,0.88-4.45,1.04-4.45,1.04s2.52-4.17,5.49-3.86c0.92,0.1,2.06,0.58,2.08,1.11
		C203.17,188.98,201.81,189.47,200.03,190.09z"/>
	<g style="opacity:0.5;clip-path:url(#SVGID_00000170986197655929619540000012194449489079180162_);">
		<g>
			<g>
				<path class="st14" d="M203.28,191.75c-0.03-0.06,0.98-0.23,2.19-1.22c0.6-0.49,1.22-1.19,1.68-2.1c0.45-0.9,0.73-2.03,0.58-3.19
					c-0.14-1.16-0.87-2.08-1.48-2.91c-0.61-0.84-1.16-1.59-1.62-2.23c-0.45-0.64-0.82-1.16-1.07-1.52
					c-0.25-0.36-0.38-0.57-0.36-0.58c0.02-0.01,0.18,0.17,0.45,0.51c0.27,0.35,0.66,0.85,1.15,1.46c0.48,0.62,1.04,1.37,1.67,2.19
					c0.61,0.81,1.4,1.77,1.55,3.03c0.16,1.23-0.15,2.41-0.63,3.35c-0.49,0.94-1.15,1.65-1.79,2.14c-0.63,0.49-1.23,0.75-1.65,0.9
					c-0.21,0.08-0.38,0.11-0.49,0.14C203.35,191.75,203.28,191.76,203.28,191.75z"/>
			</g>
		</g>
	</g>
	<g style="opacity:0.5;clip-path:url(#SVGID_00000170986197655929619540000012194449489079180162_);">
		<g>
			<g>
				<path class="st14" d="M228.97,145.08c-0.01,0.06-1.16-0.15-3.02-0.13c-1.86,0.01-4.45,0.35-7.12,1.37
					c-2.66,1.03-4.81,2.51-6.2,3.75c-1.4,1.24-2.11,2.17-2.16,2.13c-0.02-0.01,0.16-0.24,0.49-0.66c0.32-0.42,0.84-0.98,1.53-1.62
					c1.37-1.29,3.54-2.83,6.23-3.87c2.7-1.03,5.34-1.35,7.22-1.3c0.94,0.02,1.7,0.08,2.22,0.18
					C228.69,145,228.97,145.06,228.97,145.08z"/>
			</g>
		</g>
	</g>
	<g style="opacity:0.5;clip-path:url(#SVGID_00000170986197655929619540000012194449489079180162_);">
		<g>
			<g>
				<path class="st14" d="M231.76,145.79c0-0.06,0.78-0.01,1.66,0.31c0.89,0.32,1.51,0.78,1.47,0.83c-0.03,0.05-0.69-0.31-1.55-0.62
					C232.49,145.99,231.75,145.85,231.76,145.79z"/>
			</g>
		</g>
	</g>
	<g style="opacity:0.34;clip-path:url(#SVGID_00000170986197655929619540000012194449489079180162_);">
		<g>
			<g>
				<path class="st2" d="M188.93,183.32c-0.1,0.21-0.95,0.02-1.66-0.77c-0.72-0.79-0.75-1.73-0.51-1.77
					c0.24-0.05,0.59,0.56,1.16,1.19C188.48,182.6,189.04,183.1,188.93,183.32z"/>
			</g>
		</g>
	</g>
	<g style="opacity:0.34;clip-path:url(#SVGID_00000170986197655929619540000012194449489079180162_);">
		<g>
			<g>
				<path class="st2" d="M190.31,157.91c-0.24-0.01-0.45-1.37-0.46-3.04c-0.01-1.67,0.17-3.04,0.41-3.05
					c0.24-0.01,0.45,1.35,0.46,3.04C190.74,156.56,190.55,157.93,190.31,157.91z"/>
			</g>
		</g>
	</g>
	<g style="opacity:0.34;clip-path:url(#SVGID_00000170986197655929619540000012194449489079180162_);">
		<g>
			<g>
				<path class="st2" d="M235.74,138.24c-0.03,0.24-0.97,0.33-2.11,0.28c-1.14-0.05-2.07-0.22-2.08-0.46
					c-0.01-0.24,0.94-0.46,2.12-0.41C234.85,137.7,235.77,138,235.74,138.24z"/>
			</g>
		</g>
	</g>
	<g style="opacity:0.34;clip-path:url(#SVGID_00000170986197655929619540000012194449489079180162_);">
		<g>
			<g>
				<path class="st2" d="M237.89,138.76c-0.03,0.24-0.31,0.4-0.64,0.37c-0.33-0.04-0.58-0.26-0.55-0.5c0.03-0.24,0.31-0.4,0.64-0.37
					C237.67,138.3,237.92,138.52,237.89,138.76z"/>
			</g>
		</g>
	</g>
	<g style="opacity:0.18;clip-path:url(#SVGID_00000170986197655929619540000012194449489079180162_);">
		<g>
			<g>
				<path class="st2" d="M228.91,150.4c-0.23-0.08-0.37-0.32-0.53-0.53c-0.13-0.23-0.3-0.45-0.28-0.69c0.02-0.12,0.15-0.21,0.36-0.2
					c0.21,0.01,0.48,0.15,0.65,0.41c0.17,0.26,0.2,0.56,0.12,0.76C229.16,150.35,229.02,150.43,228.91,150.4z"/>
			</g>
		</g>
	</g>
	<g style="opacity:0.5;clip-path:url(#SVGID_00000170986197655929619540000012194449489079180162_);">
		<g>
			<g>
				<path class="st14" d="M198.62,167.3c-0.02,0.01-0.12-0.29-0.29-0.84c-0.17-0.55-0.39-1.34-0.62-2.34
					c-0.45-1.99-0.93-4.8-0.85-7.93c0.1-3.13,0.69-5.92,1.34-7.87c0.34-0.97,0.73-1.71,1.05-2.19c0.16-0.24,0.3-0.42,0.4-0.53
					c0.1-0.11,0.15-0.17,0.16-0.16c0.02,0.02-0.18,0.26-0.46,0.75c-0.29,0.49-0.65,1.23-0.95,2.19c-0.59,1.93-1.15,4.72-1.24,7.81
					c-0.08,3.1,0.36,5.89,0.76,7.88c0.21,1,0.4,1.8,0.53,2.35C198.58,166.99,198.64,167.29,198.62,167.3z"/>
			</g>
		</g>
	</g>
	<g style="opacity:0.5;clip-path:url(#SVGID_00000170986197655929619540000012194449489079180162_);">
		<g>
			<g>
				<path class="st14" d="M215.96,157.88c-0.03,0.08-1.43-0.42-3.22-0.82c-1.78-0.41-3.26-0.57-3.26-0.66
					c0-0.07,1.51-0.04,3.32,0.38C214.62,157.19,215.99,157.81,215.96,157.88z"/>
			</g>
		</g>
	</g>
	<g style="clip-path:url(#SVGID_00000170986197655929619540000012194449489079180162_);">
		<g>
			<g>
				<path class="st9" d="M244.89,139.17c-0.01,0.02-0.25-0.04-0.7-0.16c-0.44-0.12-1.08-0.29-1.88-0.48
					c-1.59-0.38-3.81-0.81-6.29-1.04c-2.48-0.22-4.74-0.2-6.37-0.11c-0.82,0.04-1.48,0.09-1.93,0.13c-0.46,0.04-0.71,0.05-0.71,0.03
					c0-0.02,0.25-0.07,0.7-0.14c0.45-0.08,1.11-0.15,1.93-0.22c1.64-0.14,3.91-0.2,6.41,0.03c2.5,0.23,4.73,0.69,6.32,1.13
					c0.79,0.22,1.43,0.41,1.86,0.57C244.66,139.06,244.9,139.15,244.89,139.17z"/>
			</g>
		</g>
	</g>
	<g style="clip-path:url(#SVGID_00000170986197655929619540000012194449489079180162_);">
		<g>
			<g>
				<path class="st9" d="M209.72,136.35c0.02,0.05-0.55,0.28-1.4,0.78c-0.86,0.48-1.82,1.46-2.75,2.65
					c-0.93,1.19-1.62,2.38-2.07,3.26c-0.45,0.88-0.68,1.45-0.73,1.44c-0.03-0.01,0.13-0.61,0.54-1.53c0.41-0.91,1.08-2.14,2.02-3.35
					c0.93-1.21,1.96-2.2,2.87-2.65c0.45-0.24,0.82-0.39,1.08-0.49C209.56,136.37,209.71,136.33,209.72,136.35z"/>
			</g>
		</g>
	</g>
	<g style="clip-path:url(#SVGID_00000170986197655929619540000012194449489079180162_);">
		<g>
			<g>
				<path class="st9" d="M207.2,138.9c0.04,0.06-1.09,1.04-2.14,2.57c-1.07,1.5-1.86,2.8-1.93,2.75c-0.06-0.03,0.61-1.39,1.7-2.92
					C205.89,139.75,207.15,138.82,207.2,138.9z"/>
			</g>
		</g>
	</g>
	<g style="clip-path:url(#SVGID_00000170986197655929619540000012194449489079180162_);">
		<g>
			<g>
				<path class="st9" d="M243.73,138.23c-0.03,0.08-1.44-0.49-3.27-0.9c-1.82-0.41-3.34-0.5-3.34-0.59c0-0.07,1.55-0.12,3.4,0.3
					C242.38,137.46,243.76,138.17,243.73,138.23z"/>
			</g>
		</g>
	</g>
	<g style="clip-path:url(#SVGID_00000170986197655929619540000012194449489079180162_);">
		<g>
			<g>
				<path class="st9" d="M240.21,135.76c-0.05,0.08-1.23-0.7-2.66-1.68c-0.72-0.48-1.38-0.91-1.86-1.19
					c-0.49-0.29-0.8-0.44-0.79-0.48c0.03-0.1,1.38,0.42,2.82,1.43C239.15,134.82,240.25,135.7,240.21,135.76z"/>
			</g>
		</g>
	</g>
	<g style="clip-path:url(#SVGID_00000170986197655929619540000012194449489079180162_);">
		<g>
			<g>
				<path class="st9" d="M241.7,136.86c-0.04,0.07-1.4-0.66-3.16-1.38c-1.76-0.73-3.24-1.17-3.21-1.25
					c0.02-0.07,1.55,0.24,3.33,0.98C240.43,135.95,241.74,136.8,241.7,136.86z"/>
			</g>
		</g>
	</g>
	<g style="clip-path:url(#SVGID_00000170986197655929619540000012194449489079180162_);">
		<g>
			<g>
				<path class="st9" d="M238.32,136.24c-0.03,0.09-1.26-0.3-2.81-0.65c-1.54-0.35-2.83-0.39-2.83-0.47
					c-0.01-0.08,1.32-0.17,2.89,0.19C237.15,135.66,238.34,136.17,238.32,136.24z"/>
			</g>
		</g>
	</g>
	<g style="clip-path:url(#SVGID_00000170986197655929619540000012194449489079180162_);">
		<g>
			<g>
				<path class="st9" d="M235.58,136.29c-0.02,0.08-1.19-0.09-2.64-0.07c-1.45,0.01-2.62,0.21-2.64,0.12
					c-0.02-0.07,1.15-0.4,2.63-0.41C234.42,135.92,235.6,136.22,235.58,136.29z"/>
			</g>
		</g>
	</g>
	<g style="clip-path:url(#SVGID_00000170986197655929619540000012194449489079180162_);">
		<g>
			<g>
				<path class="st9" d="M234.74,133.96c-0.03,0.09-1.02-0.27-2.19-0.76c-1.18-0.5-2.17-0.72-2.17-0.79c0-0.09,1.08,0.02,2.27,0.52
					C233.85,133.43,234.77,133.9,234.74,133.96z"/>
			</g>
		</g>
	</g>
	<g style="clip-path:url(#SVGID_00000170986197655929619540000012194449489079180162_);">
		<g>
			<g>
				<path class="st9" d="M236.22,133.8c-0.05,0.06-0.91-0.56-2.17-0.93c-1.25-0.37-2.31-0.58-2.29-0.67
					c0.01-0.06,1.09,0.01,2.38,0.39C235.44,132.98,236.28,133.75,236.22,133.8z"/>
			</g>
		</g>
	</g>
	<g style="clip-path:url(#SVGID_00000170986197655929619540000012194449489079180162_);">
		<g>
			<g>
				<path class="st9" d="M233.55,134.53c-0.04,0.08-1.39-0.57-3.14-1.15c-1.75-0.59-3.22-0.88-3.2-0.97
					c0.01-0.07,1.52,0.09,3.29,0.69C232.28,133.69,233.59,134.47,233.55,134.53z"/>
			</g>
		</g>
	</g>
	<g style="clip-path:url(#SVGID_00000170986197655929619540000012194449489079180162_);">
		<g>
			<g>
				<path class="st9" d="M231.08,134.05c-0.03,0.07-1.28-0.37-2.87-0.7c-0.8-0.16-1.52-0.27-2.05-0.3
					c-0.53-0.04-0.86-0.01-0.86-0.05c-0.03-0.11,1.35-0.31,2.98,0.07C229.89,133.41,231.12,133.98,231.08,134.05z"/>
			</g>
		</g>
	</g>
	<g style="clip-path:url(#SVGID_00000170986197655929619540000012194449489079180162_);">
		<g>
			<g>
				<path class="st9" d="M232.12,135.4c0.01,0.09-1.59,0.23-3.51,0.65c-1.92,0.41-3.44,0.93-3.47,0.85
					c-0.03-0.07,1.46-0.72,3.41-1.14C230.49,135.34,232.12,135.33,232.12,135.4z"/>
			</g>
		</g>
	</g>
	<g style="clip-path:url(#SVGID_00000170986197655929619540000012194449489079180162_);">
		<g>
			<g>
				<path class="st9" d="M231.29,134.88c-0.01,0.09-1.74-0.01-3.85,0.26c-2.11,0.26-3.77,0.78-3.79,0.69
					c-0.01-0.04,0.39-0.21,1.06-0.42c0.67-0.21,1.63-0.43,2.7-0.56c1.07-0.13,2.05-0.15,2.75-0.11
					C230.86,134.77,231.29,134.85,231.29,134.88z"/>
			</g>
		</g>
	</g>
	<g style="clip-path:url(#SVGID_00000170986197655929619540000012194449489079180162_);">
		<g>
			<g>
				<path class="st9" d="M229.23,134.17c-0.01,0.08-1.38-0.1-3.07-0.25c-1.69-0.15-3.07-0.21-3.07-0.29c0-0.08,1.39-0.15,3.1,0
					C227.89,133.78,229.25,134.1,229.23,134.17z"/>
			</g>
		</g>
	</g>
	<g style="clip-path:url(#SVGID_00000170986197655929619540000012194449489079180162_);">
		<g>
			<g>
				<path class="st9" d="M230.2,136.25c0.02,0.08-0.85,0.42-1.96,0.76c-0.55,0.17-1.06,0.31-1.43,0.4c-0.37,0.07-0.57,0.16-0.6,0.13
					c-0.07-0.13,0.84-0.47,1.94-0.81C229.26,136.39,230.18,136.17,230.2,136.25z"/>
			</g>
		</g>
	</g>
	<g style="clip-path:url(#SVGID_00000170986197655929619540000012194449489079180162_);">
		<g>
			<g>
				<path class="st9" d="M225.92,135.99c0.01,0.08-1.39,0.19-2.85,1.05c-1.49,0.81-2.34,1.92-2.4,1.87
					c-0.08-0.03,0.71-1.28,2.26-2.12C224.45,135.9,225.94,135.9,225.92,135.99z"/>
			</g>
		</g>
	</g>
	<g style="clip-path:url(#SVGID_00000170986197655929619540000012194449489079180162_);">
		<g>
			<g>
				<path class="st9" d="M226.39,137.23c0,0.09-1.08,0.07-2.33,0.41c-1.28,0.3-2.07,1.03-2.12,0.99c-0.03-0.02,0.12-0.26,0.48-0.54
					c0.35-0.28,0.91-0.56,1.56-0.73C225.29,137.01,226.4,137.16,226.39,137.23z"/>
			</g>
		</g>
	</g>
	<g style="clip-path:url(#SVGID_00000170986197655929619540000012194449489079180162_);">
		<g>
			<g>
				<path class="st9" d="M223.4,135.96c0.02,0.03-0.22,0.26-0.67,0.55c-0.44,0.29-1.12,0.61-1.8,1c-1.27,0.91-2.02,2.04-2.1,1.96
					c-0.03-0.02,0.13-0.31,0.45-0.74c0.33-0.42,0.8-1,1.5-1.47c0.72-0.41,1.38-0.69,1.85-0.93
					C223.09,136.09,223.37,135.92,223.4,135.96z"/>
			</g>
		</g>
	</g>
	<g style="clip-path:url(#SVGID_00000170986197655929619540000012194449489079180162_);">
		<g>
			<g>
				<path class="st9" d="M221.24,136.13c0.04,0.08-1.05,0.63-2.15,1.63c-1.13,0.98-1.62,2.1-1.69,2.08
					c-0.1-0.01,0.31-1.27,1.49-2.29C220.03,136.51,221.22,136.06,221.24,136.13z"/>
			</g>
		</g>
	</g>
	<g style="clip-path:url(#SVGID_00000170986197655929619540000012194449489079180162_);">
		<g>
			<g>
				<path class="st9" d="M226.03,134.28c0.01,0.09-0.95,0.21-2.07,0.57c-1.12,0.35-1.98,0.8-2.02,0.72c-0.04-0.06,0.77-0.64,1.93-1
					C225.03,134.2,226.03,134.21,226.03,134.28z"/>
			</g>
		</g>
	</g>
	<g style="clip-path:url(#SVGID_00000170986197655929619540000012194449489079180162_);">
		<g>
			<g>
				<path class="st9" d="M222.88,134.32c0.01,0.08-0.63,0.18-1.37,0.4c-0.75,0.21-1.33,0.47-1.37,0.39
					c-0.04-0.07,0.51-0.45,1.29-0.67C222.21,134.21,222.88,134.25,222.88,134.32z"/>
			</g>
		</g>
	</g>
	<g style="clip-path:url(#SVGID_00000170986197655929619540000012194449489079180162_);">
		<g>
			<g>
				<path class="st9" d="M219.22,134.92c0.05,0.06-1.22,1.03-2.43,2.55c-1.26,1.49-1.83,2.97-1.9,2.95
					c-0.09-0.02,0.39-1.61,1.68-3.13C217.8,135.73,219.18,134.85,219.22,134.92z"/>
			</g>
		</g>
	</g>
	<g style="clip-path:url(#SVGID_00000170986197655929619540000012194449489079180162_);">
		<g>
			<g>
				<path class="st9" d="M221.69,135.19c0.04,0.09-1.81,0.37-3.41,1.89c-1.61,1.48-2.23,3.22-2.32,3.16
					c-0.03-0.01,0.09-0.45,0.41-1.1c0.33-0.65,0.88-1.52,1.72-2.27c0.82-0.77,1.75-1.24,2.44-1.47
					C221.23,135.17,221.69,135.16,221.69,135.19z"/>
			</g>
		</g>
	</g>
	<g style="clip-path:url(#SVGID_00000170986197655929619540000012194449489079180162_);">
		<g>
			<g>
				<path class="st9" d="M223.81,133.01c-0.01,0.03-0.25-0.07-0.59,0.05c-0.37,0.12-0.88,0.29-1.43,0.53
					c-1.1,0.46-1.91,0.99-1.96,0.92c-0.05-0.06,0.71-0.71,1.85-1.19c0.56-0.24,1.1-0.39,1.49-0.46
					C223.6,132.77,223.85,132.97,223.81,133.01z"/>
			</g>
		</g>
	</g>
	<g style="clip-path:url(#SVGID_00000170986197655929619540000012194449489079180162_);">
		<g>
			<g>
				<path class="st9" d="M216.04,137.01c0.06,0.06-0.55,0.74-1.13,1.69c-0.59,0.95-0.91,1.81-0.99,1.78
					c-0.07-0.02,0.14-0.94,0.74-1.93C215.26,137.57,215.99,136.96,216.04,137.01z"/>
			</g>
		</g>
	</g>
	<g style="clip-path:url(#SVGID_00000170986197655929619540000012194449489079180162_);">
		<g>
			<g>
				<path class="st9" d="M220.42,133.4c0.04,0.08-0.92,0.62-2.02,1.43c-1.1,0.8-1.91,1.55-1.97,1.49c-0.06-0.05,0.68-0.91,1.79-1.73
					C219.34,133.77,220.39,133.34,220.42,133.4z"/>
			</g>
		</g>
	</g>
	<g style="clip-path:url(#SVGID_00000170986197655929619540000012194449489079180162_);">
		<g>
			<g>
				<path class="st9" d="M217.62,134.49c0,0.02-0.12,0.05-0.29,0.17c-0.17,0.12-0.41,0.34-0.7,0.6c-0.58,0.53-1.35,1.29-2.07,2.24
					c-0.73,0.94-1.26,1.89-1.58,2.6c-0.33,0.71-0.48,1.17-0.52,1.16c-0.03-0.01,0.05-0.5,0.33-1.24c0.28-0.74,0.8-1.73,1.54-2.7
					C215.82,135.4,217.53,134.27,217.62,134.49z"/>
			</g>
		</g>
	</g>
	<g style="clip-path:url(#SVGID_00000170986197655929619540000012194449489079180162_);">
		<g>
			<g>
				<path class="st9" d="M217.57,134.07c0.02,0.08-1.07,0.36-2.1,1.25c-1.02,0.88-1.76,1.74-1.84,1.67
					c-0.04-0.04,0.58-0.97,1.65-1.89C216.37,134.16,217.58,133.99,217.57,134.07z"/>
			</g>
		</g>
	</g>
	<g style="clip-path:url(#SVGID_00000170986197655929619540000012194449489079180162_);">
		<g>
			<g>
				<path class="st9" d="M213.98,137.02c0.07,0.05-0.68,1.03-1.55,2.22c-0.83,1.22-1.22,2.38-1.3,2.35
					c-0.07-0.01,0.2-1.24,1.06-2.51C213.08,137.85,213.92,136.98,213.98,137.02z"/>
			</g>
		</g>
	</g>
	<g style="clip-path:url(#SVGID_00000170986197655929619540000012194449489079180162_);">
		<g>
			<g>
				<path class="st9" d="M215.16,134.53c0.02,0.04-0.4,0.31-0.93,0.93c-0.53,0.61-1.2,1.52-1.86,2.58
					c-0.66,1.05-1.21,2.04-1.59,2.77c-0.38,0.72-0.59,1.18-0.63,1.17c-0.03-0.01,0.11-0.5,0.45-1.26c0.33-0.75,0.85-1.77,1.53-2.83
					c0.67-1.07,1.37-1.97,1.96-2.56C214.66,134.73,215.15,134.5,215.16,134.53z"/>
			</g>
		</g>
	</g>
	<g style="clip-path:url(#SVGID_00000170986197655929619540000012194449489079180162_);">
		<g>
			<g>
				<path class="st9" d="M212.8,136.35c0.07,0.07-1.18,1.06-2.12,2.73c-0.94,1.67-1.33,3.2-1.43,3.17c-0.04-0.01,0.03-0.4,0.21-1.01
					c0.18-0.61,0.48-1.45,0.97-2.3c0.49-0.85,1.08-1.53,1.55-1.97C212.44,136.54,212.78,136.32,212.8,136.35z"/>
			</g>
		</g>
	</g>
	<g style="clip-path:url(#SVGID_00000170986197655929619540000012194449489079180162_);">
		<g>
			<g>
				<path class="st9" d="M213.49,135.19c0.03,0.04-0.4,0.34-1,0.91c-0.6,0.57-1.37,1.42-2.11,2.45c-0.73,1.03-1.3,2.03-1.64,2.79
					c-0.35,0.75-0.49,1.25-0.54,1.24c-0.1-0.01,0.4-2.11,1.94-4.19C211.62,136.24,213.45,135.09,213.49,135.19z"/>
			</g>
		</g>
	</g>
	<g style="clip-path:url(#SVGID_00000170986197655929619540000012194449489079180162_);">
		<g>
			<g>
				<path class="st9" d="M210.84,136.86c0.07,0.07-1.27,1.11-2.38,2.82c-0.54,0.86-1.03,1.65-1.27,2.27
					c-0.25,0.61-0.28,1.03-0.33,1.03c-0.03,0-0.07-0.44,0.14-1.1c0.2-0.67,0.67-1.49,1.22-2.36c0.57-0.88,1.23-1.56,1.74-2.01
					C210.47,137.07,210.82,136.84,210.84,136.86z"/>
			</g>
		</g>
	</g>
	<g style="clip-path:url(#SVGID_00000170986197655929619540000012194449489079180162_);">
		<g>
			<g>
				<path class="st9" d="M211.13,135.83c0.02,0.04-0.45,0.31-1.09,0.91c-0.65,0.59-1.45,1.5-2.25,2.57
					c-0.79,1.08-1.44,2.11-1.87,2.87c-0.43,0.76-0.66,1.26-0.7,1.24c-0.03-0.01,0.13-0.54,0.52-1.34c0.39-0.8,1.01-1.86,1.82-2.95
					c0.81-1.09,1.65-2,2.35-2.55C210.59,136.02,211.12,135.8,211.13,135.83z"/>
			</g>
		</g>
	</g>
	<g style="clip-path:url(#SVGID_00000170986197655929619540000012194449489079180162_);">
		<g>
			<g>
				<path class="st9" d="M202.65,144.53c-0.03,0-0.05-0.52,0.14-1.32c0.19-0.8,0.61-1.88,1.27-2.95c0.65-1.08,1.42-1.94,2.04-2.48
					c0.62-0.54,1.08-0.78,1.1-0.75c0.03,0.04-0.38,0.33-0.96,0.9c-0.57,0.57-1.29,1.43-1.93,2.48c-0.64,1.05-1.08,2.08-1.32,2.86
					C202.75,144.03,202.7,144.54,202.65,144.53z"/>
			</g>
		</g>
	</g>
	<g style="opacity:0.34;clip-path:url(#SVGID_00000170986197655929619540000012194449489079180162_);">
		<g>
			<g>
				<path class="st2" d="M210.84,155.79c0,0.04-0.19,0.08-0.51,0.08c-0.16,0-0.35-0.01-0.57-0.06c-0.11-0.03-0.22-0.06-0.34-0.15
					c-0.13-0.06-0.23-0.31-0.14-0.46c0.31-0.52,0.74-0.64,1.01-0.79c0.29-0.13,0.48-0.17,0.5-0.14c0.02,0.04-0.14,0.15-0.4,0.32
					c-0.23,0.16-0.67,0.41-0.84,0.71c-0.08,0.1,0.1,0.19,0.28,0.25c0.18,0.06,0.36,0.09,0.51,0.11
					C210.65,155.72,210.84,155.75,210.84,155.79z"/>
			</g>
		</g>
	</g>
	<g style="clip-path:url(#SVGID_00000170986197655929619540000012194449489079180162_);">
		<g>
			<g>
				<path class="st5" d="M230.87,156.86c-0.03-0.08,1.42-0.58,3.09-1.43c1.67-0.85,2.92-1.73,2.97-1.66
					c0.05,0.06-1.14,1.06-2.84,1.92C232.4,156.56,230.89,156.94,230.87,156.86z"/>
			</g>
		</g>
	</g>
	<g style="opacity:0.5;clip-path:url(#SVGID_00000170986197655929619540000012194449489079180162_);">
		<g>
			<g>
				<path class="st14" d="M237.11,153.02c0.01,0.01-0.06,0.08-0.2,0.2c-0.14,0.12-0.34,0.32-0.62,0.53
					c-0.58,0.41-1.45,0.97-2.64,1.44c-1.18,0.48-2.64,0.92-4.29,1.24c-1.65,0.31-3.49,0.51-5.43,0.59
					c-3.88,0.14-7.38-0.25-9.88-0.67c-2.49-0.5-4.05-0.55-4.04-0.64c0-0.01,0.1-0.01,0.29,0.01c0.19,0.01,0.46,0.03,0.81,0.05
					c0.71,0.01,1.73,0.2,2.98,0.38c2.5,0.36,5.98,0.72,9.83,0.58c1.92-0.08,3.75-0.27,5.39-0.56c1.64-0.3,3.08-0.72,4.26-1.16
					c1.18-0.43,2.06-0.97,2.65-1.34C236.79,153.25,237.1,153,237.11,153.02z"/>
			</g>
		</g>
	</g>
	<g style="clip-path:url(#SVGID_00000170986197655929619540000012194449489079180162_);">
		<g>
			<g>
				<path class="st5" d="M147.42,137.5c-0.02-0.13,1.77-0.37,4.61-0.07c2.83,0.3,6.74,0.84,10.93,2.05
					c4.17,1.17,7.91,2.35,10.59,3.29c2.68,0.94,4.28,1.7,4.24,1.81c-0.05,0.11-1.71-0.43-4.43-1.22c-2.72-0.78-6.48-1.85-10.64-3.04
					c-4.13-1.19-7.99-1.83-10.77-2.28C149.17,137.59,147.44,137.61,147.42,137.5z"/>
			</g>
		</g>
	</g>
	<path style="clip-path:url(#SVGID_00000170986197655929619540000012194449489079180162_);fill:#301C19;" d="M177.8,144.58
		c-5.21-1.88-22.58-7.85-30.57-7.22s-12.85,2.35-12.85,2.35s9.28-7.55,12.06-7.85c3.46-0.37,17.49,1.4,23.24,3.93
		C175.71,139.74,177.8,144.58,177.8,144.58z"/>
	<path style="clip-path:url(#SVGID_00000170986197655929619540000012194449489079180162_);fill:#F6F6F6;" d="M170.61,155.62
		c0.93-0.09-0.96-1.3-0.96-1.3s-4.45-6.52-14.11-5.95c-9.23,0.54-12.21,4.7-12.21,4.7s6.33,5.88,24.93,2.77
		C169.02,155.71,169.8,155.7,170.61,155.62z"/>
	<g style="clip-path:url(#SVGID_00000170986197655929619540000012194449489079180162_);">
		<g>
			<g>
				<path class="st9" d="M178.53,140.13c0.07-0.01,0.25,0.95,0.03,2.13c-0.24,1.16-0.6,2.03-0.66,2.02
					c-0.09-0.02,0.15-0.95,0.38-2.07C178.48,141.08,178.43,140.14,178.53,140.13z"/>
			</g>
		</g>
	</g>
	<g style="clip-path:url(#SVGID_00000170986197655929619540000012194449489079180162_);">
		<path class="st3" d="M176.98,143.62c0.04-2.44-3.58-6.26-7.09-7.74c-0.27-0.11-0.57-0.17-0.86-0.22"/>
	</g>
	<g style="clip-path:url(#SVGID_00000170986197655929619540000012194449489079180162_);">
		<g>
			<g>
				<path class="st9" d="M174.87,137.46c0.04-0.08,1.55,1.08,2.44,3.17c0.45,1.03,0.67,2.04,0.67,2.78
					c0.01,0.74-0.16,1.18-0.18,1.17c-0.05-0.01,0.04-0.45-0.02-1.16c-0.05-0.71-0.29-1.67-0.73-2.67c-0.44-1-0.99-1.83-1.43-2.39
					C175.17,137.8,174.84,137.5,174.87,137.46z"/>
			</g>
		</g>
	</g>
	<g style="clip-path:url(#SVGID_00000170986197655929619540000012194449489079180162_);">
		<g>
			<g>
				<path class="st9" d="M177.22,138.34c0.07-0.04,0.74,1.28,0.89,3.07c0.2,1.78-0.23,3.21-0.31,3.18
					c-0.08-0.02,0.21-1.41,0.02-3.15C177.67,139.7,177.14,138.37,177.22,138.34z"/>
			</g>
		</g>
	</g>
	<path style="clip-path:url(#SVGID_00000170986197655929619540000012194449489079180162_);fill:#120B0B;" d="M151.32,151.66
		c0,1.9,0.91,3.79,2.32,4.9c0,0,1.6,0.1,3.76,0.19c2.12,0.09,3.49-0.02,3.49-0.02c1.71-1.07,2.84-2.94,2.84-5.07
		c0-0.92-0.21-1.8-0.59-2.58c0,0-2.26-0.91-5.61-0.74c-4.32,0.21-5.61,0.75-5.61,0.75C151.53,149.86,151.32,150.74,151.32,151.66z"
		/>
	<g style="clip-path:url(#SVGID_00000170986197655929619540000012194449489079180162_);">
		<g>
			<g>
				<path class="st11" d="M143.33,153.07c-0.04-0.04,0.19-0.39,0.7-0.95c0.51-0.56,1.33-1.31,2.5-2.03c1.16-0.73,2.7-1.36,4.47-1.74
					c1.77-0.38,3.77-0.49,5.82-0.44c2.06,0.03,4.06,0.23,5.8,0.8c1.76,0.54,3.14,1.53,4.16,2.41c2.06,1.78,3,3.18,2.93,3.24
					c-0.1,0.1-1.21-1.15-3.31-2.76c-1.06-0.8-2.36-1.65-4.01-2.12c-1.64-0.49-3.56-0.67-5.58-0.69c-2.03-0.05-3.94,0.04-5.65,0.36
					c-1.7,0.32-3.17,0.86-4.32,1.49C144.54,151.89,143.45,153.19,143.33,153.07z"/>
			</g>
		</g>
	</g>
	<path style="opacity:0.5;clip-path:url(#SVGID_00000170986197655929619540000012194449489079180162_);fill:#190D0C;" d="
		M179.7,190.09c2.51,0.88,4.45,1.04,4.45,1.04s-2.52-4.17-5.49-3.86c-0.92,0.1-2.06,0.58-2.08,1.11
		C176.56,188.98,177.92,189.47,179.7,190.09z"/>
	<g style="opacity:0.5;clip-path:url(#SVGID_00000170986197655929619540000012194449489079180162_);">
		<g>
			<g>
				<path class="st14" d="M176.18,191.8c0,0.01-0.06,0-0.18-0.02c-0.11-0.02-0.28-0.06-0.49-0.14c-0.42-0.14-1.01-0.41-1.65-0.9
					c-0.63-0.48-1.3-1.19-1.79-2.14c-0.48-0.94-0.79-2.12-0.63-3.35c0.15-1.26,0.94-2.22,1.55-3.03c0.63-0.83,1.19-1.57,1.67-2.19
					c0.48-0.62,0.87-1.12,1.15-1.46c0.28-0.34,0.44-0.52,0.45-0.51c0.02,0.01-0.11,0.22-0.36,0.58c-0.25,0.36-0.62,0.88-1.07,1.52
					c-0.46,0.63-1.01,1.39-1.62,2.23c-0.6,0.83-1.34,1.74-1.48,2.91c-0.15,1.16,0.14,2.28,0.58,3.19c0.45,0.91,1.08,1.61,1.68,2.1
					C175.21,191.57,176.21,191.74,176.18,191.8z"/>
			</g>
		</g>
	</g>
	<g style="opacity:0.5;clip-path:url(#SVGID_00000170986197655929619540000012194449489079180162_);">
		<g>
			<g>
				<path class="st14" d="M151.47,145.13c0-0.02,0.28-0.08,0.8-0.16c0.52-0.09,1.28-0.16,2.22-0.18c1.88-0.04,4.52,0.27,7.22,1.3
					c2.7,1.04,4.86,2.58,6.23,3.87c0.69,0.64,1.21,1.21,1.53,1.62c0.33,0.41,0.5,0.64,0.49,0.66c-0.05,0.04-0.76-0.89-2.16-2.13
					c-1.39-1.24-3.54-2.72-6.2-3.75c-2.66-1.02-5.25-1.36-7.12-1.37C152.63,144.98,151.48,145.19,151.47,145.13z"/>
			</g>
		</g>
	</g>
	<g style="opacity:0.5;clip-path:url(#SVGID_00000170986197655929619540000012194449489079180162_);">
		<g>
			<g>
				<path class="st14" d="M148.69,145.84c0.01,0.06-0.73,0.2-1.59,0.52c-0.86,0.31-1.52,0.68-1.55,0.62
					c-0.03-0.05,0.59-0.51,1.47-0.83C147.91,145.83,148.68,145.78,148.69,145.84z"/>
			</g>
		</g>
	</g>
	<g style="opacity:0.34;clip-path:url(#SVGID_00000170986197655929619540000012194449489079180162_);">
		<g>
			<g>
				<path class="st2" d="M144.7,138.29c-0.03-0.24,0.9-0.54,2.07-0.6c1.18-0.05,2.12,0.17,2.12,0.41c-0.01,0.24-0.94,0.41-2.08,0.46
					C145.67,138.62,144.73,138.53,144.7,138.29z"/>
			</g>
		</g>
	</g>
	<g style="opacity:0.34;clip-path:url(#SVGID_00000170986197655929619540000012194449489079180162_);">
		<g>
			<g>
				<path class="st2" d="M142.55,138.81c-0.03-0.24,0.22-0.46,0.55-0.5c0.33-0.04,0.62,0.13,0.64,0.37s-0.22,0.46-0.55,0.5
					C142.87,139.22,142.58,139.05,142.55,138.81z"/>
			</g>
		</g>
	</g>
	<g style="opacity:0.18;clip-path:url(#SVGID_00000170986197655929619540000012194449489079180162_);">
		<g>
			<g>
				<path class="st2" d="M151.54,150.45c-0.11,0.03-0.25-0.05-0.32-0.25c-0.07-0.2-0.05-0.5,0.12-0.76c0.17-0.26,0.44-0.4,0.65-0.41
					c0.21-0.01,0.34,0.09,0.36,0.2c0.02,0.25-0.15,0.47-0.28,0.69C151.91,150.14,151.77,150.37,151.54,150.45z"/>
			</g>
		</g>
	</g>
	<g style="opacity:0.5;clip-path:url(#SVGID_00000170986197655929619540000012194449489079180162_);">
		<g>
			<g>
				<path class="st14" d="M182.09,167.35c-0.02-0.01,0.05-0.31,0.18-0.87c0.13-0.55,0.32-1.36,0.53-2.35
					c0.4-1.99,0.84-4.78,0.76-7.88c-0.1-3.09-0.65-5.88-1.24-7.81c-0.31-0.97-0.67-1.7-0.95-2.19c-0.29-0.49-0.48-0.74-0.46-0.75
					c0.01-0.01,0.06,0.05,0.16,0.16c0.1,0.11,0.24,0.29,0.4,0.53c0.32,0.48,0.72,1.22,1.05,2.19c0.65,1.94,1.24,4.74,1.34,7.87
					c0.08,3.13-0.4,5.94-0.85,7.93c-0.23,1-0.45,1.79-0.62,2.34C182.21,167.06,182.1,167.36,182.09,167.35z"/>
			</g>
		</g>
	</g>
	<g style="opacity:0.5;clip-path:url(#SVGID_00000170986197655929619540000012194449489079180162_);">
		<g>
			<g>
				<path class="st14" d="M164.48,157.93c-0.03-0.07,1.34-0.7,3.15-1.11c1.81-0.42,3.32-0.45,3.32-0.38
					c0.01,0.09-1.47,0.25-3.26,0.66C165.92,157.52,164.51,158.01,164.48,157.93z"/>
			</g>
		</g>
	</g>
	<g style="clip-path:url(#SVGID_00000170986197655929619540000012194449489079180162_);">
		<g>
			<g>
				<path class="st9" d="M135.55,139.22c-0.01-0.02,0.23-0.11,0.66-0.26c0.43-0.16,1.07-0.35,1.86-0.57
					c1.58-0.43,3.82-0.9,6.32-1.13c2.5-0.22,4.78-0.17,6.41-0.03c0.82,0.07,1.48,0.15,1.93,0.22c0.45,0.07,0.7,0.12,0.7,0.14
					c0,0.02-0.26,0.01-0.71-0.03c-0.46-0.04-1.12-0.09-1.93-0.13c-1.63-0.09-3.89-0.11-6.37,0.11c-2.48,0.23-4.7,0.65-6.29,1.04
					c-0.79,0.19-1.44,0.35-1.88,0.48C135.81,139.19,135.56,139.24,135.55,139.22z"/>
			</g>
		</g>
	</g>
	<g style="clip-path:url(#SVGID_00000170986197655929619540000012194449489079180162_);">
		<g>
			<g>
				<path class="st9" d="M170.73,136.4c0.01-0.02,0.16,0.02,0.42,0.12c0.26,0.1,0.64,0.25,1.08,0.49c0.92,0.45,1.94,1.45,2.87,2.65
					c0.95,1.21,1.62,2.43,2.02,3.35c0.41,0.91,0.57,1.51,0.54,1.53c-0.04,0.02-0.27-0.56-0.73-1.44c-0.45-0.88-1.14-2.07-2.07-3.26
					c-0.92-1.2-1.88-2.17-2.75-2.65C171.28,136.68,170.71,136.45,170.73,136.4z"/>
			</g>
		</g>
	</g>
	<g style="clip-path:url(#SVGID_00000170986197655929619540000012194449489079180162_);">
		<g>
			<g>
				<path class="st9" d="M173.25,138.95c0.05-0.08,1.31,0.85,2.38,2.4c1.09,1.53,1.76,2.88,1.7,2.92c-0.08,0.05-0.86-1.24-1.93-2.75
					C174.34,139.99,173.21,139.01,173.25,138.95z"/>
			</g>
		</g>
	</g>
	<g style="clip-path:url(#SVGID_00000170986197655929619540000012194449489079180162_);">
		<g>
			<g>
				<path class="st9" d="M136.72,138.28c-0.03-0.06,1.35-0.77,3.2-1.18c1.85-0.42,3.4-0.38,3.4-0.3c0,0.09-1.52,0.17-3.34,0.59
					C138.17,137.79,136.75,138.36,136.72,138.28z"/>
			</g>
		</g>
	</g>
	<g style="clip-path:url(#SVGID_00000170986197655929619540000012194449489079180162_);">
		<g>
			<g>
				<path class="st9" d="M140.23,135.81c-0.04-0.06,1.06-0.93,2.5-1.92c1.43-1,2.78-1.53,2.82-1.43c0.01,0.04-0.3,0.19-0.79,0.48
					c-0.49,0.28-1.15,0.71-1.86,1.19C141.47,135.11,140.28,135.89,140.23,135.81z"/>
			</g>
		</g>
	</g>
	<g style="clip-path:url(#SVGID_00000170986197655929619540000012194449489079180162_);">
		<g>
			<g>
				<path class="st9" d="M138.75,136.92c-0.04-0.06,1.27-0.92,3.05-1.65c1.78-0.74,3.31-1.05,3.33-0.98
					c0.02,0.08-1.46,0.52-3.21,1.25C140.15,136.26,138.79,136.99,138.75,136.92z"/>
			</g>
		</g>
	</g>
	<g style="clip-path:url(#SVGID_00000170986197655929619540000012194449489079180162_);">
		<g>
			<g>
				<path class="st9" d="M142.13,136.29c-0.02-0.06,1.17-0.58,2.74-0.93c1.58-0.36,2.9-0.27,2.89-0.19c0,0.08-1.29,0.12-2.83,0.47
					C143.39,135.99,142.15,136.38,142.13,136.29z"/>
			</g>
		</g>
	</g>
	<g style="clip-path:url(#SVGID_00000170986197655929619540000012194449489079180162_);">
		<g>
			<g>
				<path class="st9" d="M144.87,136.35c-0.02-0.07,1.16-0.38,2.64-0.36c1.48,0.01,2.65,0.34,2.63,0.41
					c-0.02,0.08-1.19-0.11-2.64-0.12C146.05,136.26,144.88,136.43,144.87,136.35z"/>
			</g>
		</g>
	</g>
	<g style="clip-path:url(#SVGID_00000170986197655929619540000012194449489079180162_);">
		<g>
			<g>
				<path class="st9" d="M145.7,134.01c-0.02-0.07,0.9-0.54,2.09-1.03c1.19-0.5,2.27-0.61,2.27-0.52c0.01,0.07-0.99,0.29-2.17,0.79
					C146.72,133.74,145.74,134.1,145.7,134.01z"/>
			</g>
		</g>
	</g>
	<g style="clip-path:url(#SVGID_00000170986197655929619540000012194449489079180162_);">
		<g>
			<g>
				<path class="st9" d="M144.22,133.86c-0.06-0.06,0.78-0.83,2.09-1.2c1.29-0.38,2.36-0.46,2.38-0.39c0.02,0.09-1.04,0.3-2.29,0.67
					C145.14,133.29,144.27,133.92,144.22,133.86z"/>
			</g>
		</g>
	</g>
	<g style="clip-path:url(#SVGID_00000170986197655929619540000012194449489079180162_);">
		<g>
			<g>
				<path class="st9" d="M146.89,134.58c-0.04-0.06,1.27-0.84,3.05-1.43c1.77-0.6,3.28-0.76,3.29-0.69c0.01,0.09-1.46,0.38-3.2,0.97
					C148.28,134.01,146.93,134.66,146.89,134.58z"/>
			</g>
		</g>
	</g>
	<g style="clip-path:url(#SVGID_00000170986197655929619540000012194449489079180162_);">
		<g>
			<g>
				<path class="st9" d="M149.36,134.11c-0.03-0.07,1.19-0.65,2.81-0.98c1.62-0.38,3-0.17,2.98-0.07c-0.01,0.04-0.34,0.02-0.86,0.05
					c-0.53,0.03-1.26,0.13-2.05,0.3C150.64,133.74,149.39,134.18,149.36,134.11z"/>
			</g>
		</g>
	</g>
	<g style="clip-path:url(#SVGID_00000170986197655929619540000012194449489079180162_);">
		<g>
			<g>
				<path class="st9" d="M148.33,135.45c0-0.07,1.62-0.06,3.57,0.37c1.95,0.42,3.44,1.07,3.41,1.14c-0.03,0.08-1.54-0.44-3.47-0.85
					C149.92,135.69,148.32,135.54,148.33,135.45z"/>
			</g>
		</g>
	</g>
	<g style="clip-path:url(#SVGID_00000170986197655929619540000012194449489079180162_);">
		<g>
			<g>
				<path class="st9" d="M149.16,134.94c0-0.04,0.43-0.11,1.13-0.14c0.7-0.04,1.68-0.02,2.75,0.11c1.07,0.13,2.02,0.36,2.7,0.56
					c0.67,0.21,1.07,0.38,1.06,0.42c-0.03,0.09-1.68-0.44-3.79-0.69C150.89,134.93,149.16,135.03,149.16,134.94z"/>
			</g>
		</g>
	</g>
	<g style="clip-path:url(#SVGID_00000170986197655929619540000012194449489079180162_);">
		<g>
			<g>
				<path class="st9" d="M151.21,134.22c-0.01-0.08,1.34-0.39,3.05-0.54c1.71-0.15,3.1-0.08,3.1,0c0,0.08-1.38,0.14-3.07,0.29
					C152.6,134.12,151.23,134.31,151.21,134.22z"/>
			</g>
		</g>
	</g>
	<g style="clip-path:url(#SVGID_00000170986197655929619540000012194449489079180162_);">
		<g>
			<g>
				<path class="st9" d="M150.25,136.3c0.02-0.08,0.94,0.14,2.04,0.48c1.1,0.33,2,0.68,1.94,0.81c-0.02,0.03-0.23-0.06-0.6-0.13
					c-0.37-0.09-0.88-0.23-1.43-0.4C151.1,136.72,150.22,136.38,150.25,136.3z"/>
			</g>
		</g>
	</g>
	<g style="clip-path:url(#SVGID_00000170986197655929619540000012194449489079180162_);">
		<g>
			<g>
				<path class="st9" d="M154.53,136.04c-0.02-0.08,1.47-0.09,3,0.79c1.55,0.84,2.34,2.09,2.26,2.12c-0.06,0.05-0.91-1.06-2.4-1.87
					C155.91,136.23,154.52,136.12,154.53,136.04z"/>
			</g>
		</g>
	</g>
	<g style="clip-path:url(#SVGID_00000170986197655929619540000012194449489079180162_);">
		<g>
			<g>
				<path class="st9" d="M154.06,137.29c-0.01-0.07,1.1-0.22,2.41,0.13c0.65,0.17,1.21,0.45,1.56,0.73c0.36,0.27,0.5,0.52,0.48,0.54
					c-0.05,0.04-0.83-0.69-2.12-0.99C155.14,137.36,154.06,137.37,154.06,137.29z"/>
			</g>
		</g>
	</g>
	<g style="clip-path:url(#SVGID_00000170986197655929619540000012194449489079180162_);">
		<g>
			<g>
				<path class="st9" d="M157.05,136.01c0.03-0.03,0.3,0.13,0.77,0.37c0.47,0.25,1.13,0.52,1.85,0.93c0.7,0.47,1.17,1.05,1.5,1.47
					c0.32,0.43,0.48,0.72,0.45,0.74c-0.08,0.08-0.83-1.05-2.1-1.96c-0.68-0.39-1.35-0.71-1.8-1
					C157.27,136.27,157.03,136.04,157.05,136.01z"/>
			</g>
		</g>
	</g>
	<g style="clip-path:url(#SVGID_00000170986197655929619540000012194449489079180162_);">
		<g>
			<g>
				<path class="st9" d="M159.21,136.19c0.02-0.07,1.21,0.38,2.35,1.42c1.18,1.02,1.59,2.28,1.49,2.29
					c-0.06,0.02-0.55-1.1-1.69-2.08C160.26,136.81,159.17,136.26,159.21,136.19z"/>
			</g>
		</g>
	</g>
	<g style="clip-path:url(#SVGID_00000170986197655929619540000012194449489079180162_);">
		<g>
			<g>
				<path class="st9" d="M154.42,134.34c0-0.07,1-0.08,2.16,0.29c1.16,0.36,1.98,0.94,1.93,1c-0.04,0.07-0.9-0.37-2.02-0.72
					C155.36,134.55,154.41,134.42,154.42,134.34z"/>
			</g>
		</g>
	</g>
	<g style="clip-path:url(#SVGID_00000170986197655929619540000012194449489079180162_);">
		<g>
			<g>
				<path class="st9" d="M157.56,134.37c0-0.08,0.67-0.11,1.45,0.12c0.78,0.22,1.33,0.61,1.29,0.67c-0.04,0.07-0.63-0.18-1.37-0.39
					C158.19,134.55,157.56,134.46,157.56,134.37z"/>
			</g>
		</g>
	</g>
	<g style="clip-path:url(#SVGID_00000170986197655929619540000012194449489079180162_);">
		<g>
			<g>
				<path class="st9" d="M161.23,134.97c0.04-0.07,1.41,0.81,2.66,2.36c1.29,1.53,1.77,3.12,1.68,3.13
					c-0.07,0.02-0.64-1.46-1.9-2.95C162.44,136,161.18,135.03,161.23,134.97z"/>
			</g>
		</g>
	</g>
	<g style="clip-path:url(#SVGID_00000170986197655929619540000012194449489079180162_);">
		<g>
			<g>
				<path class="st9" d="M158.75,135.24c0-0.03,0.46-0.02,1.16,0.21c0.7,0.22,1.62,0.7,2.44,1.47c0.83,0.76,1.39,1.63,1.72,2.27
					c0.33,0.65,0.44,1.09,0.41,1.1c-0.09,0.05-0.71-1.68-2.32-3.16C160.56,135.61,158.72,135.32,158.75,135.24z"/>
			</g>
		</g>
	</g>
	<g style="clip-path:url(#SVGID_00000170986197655929619540000012194449489079180162_);">
		<g>
			<g>
				<path class="st9" d="M156.64,133.06c-0.04-0.04,0.21-0.23,0.64-0.15c0.39,0.07,0.93,0.22,1.49,0.46
					c1.13,0.48,1.89,1.13,1.85,1.19c-0.05,0.07-0.86-0.46-1.96-0.92c-0.55-0.23-1.06-0.41-1.43-0.53
					C156.89,132.99,156.65,133.08,156.64,133.06z"/>
			</g>
		</g>
	</g>
	<g style="clip-path:url(#SVGID_00000170986197655929619540000012194449489079180162_);">
		<g>
			<g>
				<path class="st9" d="M164.41,137.07c0.05-0.06,0.78,0.55,1.38,1.54c0.61,0.99,0.82,1.91,0.74,1.93
					c-0.08,0.03-0.41-0.83-0.99-1.78C164.96,137.8,164.34,137.13,164.41,137.07z"/>
			</g>
		</g>
	</g>
	<g style="clip-path:url(#SVGID_00000170986197655929619540000012194449489079180162_);">
		<g>
			<g>
				<path class="st9" d="M160.03,133.46c0.03-0.07,1.07,0.37,2.19,1.19c1.12,0.82,1.85,1.68,1.79,1.73
					c-0.06,0.06-0.87-0.69-1.97-1.49C160.95,134.08,159.99,133.53,160.03,133.46z"/>
			</g>
		</g>
	</g>
	<g style="clip-path:url(#SVGID_00000170986197655929619540000012194449489079180162_);">
		<g>
			<g>
				<path class="st9" d="M162.83,134.54c0.09-0.22,1.8,0.92,3.29,2.84c0.74,0.96,1.26,1.95,1.54,2.7c0.29,0.75,0.37,1.23,0.33,1.24
					c-0.04,0.01-0.2-0.45-0.52-1.16c-0.33-0.71-0.85-1.66-1.58-2.6c-0.72-0.95-1.49-1.71-2.07-2.24c-0.29-0.26-0.53-0.48-0.7-0.6
					C162.94,134.59,162.82,134.56,162.83,134.54z"/>
			</g>
		</g>
	</g>
	<g style="clip-path:url(#SVGID_00000170986197655929619540000012194449489079180162_);">
		<g>
			<g>
				<path class="st9" d="M162.87,134.12c0-0.08,1.2,0.09,2.29,1.03c1.07,0.92,1.69,1.85,1.65,1.89c-0.07,0.07-0.81-0.79-1.84-1.67
					C163.94,134.48,162.85,134.2,162.87,134.12z"/>
			</g>
		</g>
	</g>
	<g style="clip-path:url(#SVGID_00000170986197655929619540000012194449489079180162_);">
		<g>
			<g>
				<path class="st9" d="M166.47,137.07c0.06-0.04,0.89,0.83,1.79,2.06c0.86,1.27,1.13,2.5,1.06,2.51c-0.08,0.03-0.47-1.13-1.3-2.35
					C167.15,138.1,166.4,137.13,166.47,137.07z"/>
			</g>
		</g>
	</g>
	<g style="clip-path:url(#SVGID_00000170986197655929619540000012194449489079180162_);">
		<g>
			<g>
				<path class="st9" d="M165.29,134.58c0.01-0.03,0.5,0.19,1.08,0.79c0.58,0.59,1.29,1.5,1.96,2.56c0.67,1.07,1.19,2.08,1.53,2.83
					c0.34,0.75,0.48,1.25,0.45,1.26c-0.04,0.02-0.25-0.44-0.63-1.17c-0.38-0.72-0.92-1.72-1.59-2.77c-0.66-1.06-1.33-1.97-1.86-2.58
					C165.69,134.9,165.26,134.62,165.29,134.58z"/>
			</g>
		</g>
	</g>
	<g style="clip-path:url(#SVGID_00000170986197655929619540000012194449489079180162_);">
		<g>
			<g>
				<path class="st9" d="M167.64,136.4c0.02-0.03,0.36,0.19,0.83,0.62c0.47,0.43,1.06,1.11,1.55,1.97c0.49,0.85,0.79,1.69,0.97,2.3
					c0.18,0.61,0.24,1,0.21,1.01c-0.1,0.03-0.49-1.5-1.43-3.17C168.82,137.46,167.58,136.47,167.64,136.4z"/>
			</g>
		</g>
	</g>
	<g style="clip-path:url(#SVGID_00000170986197655929619540000012194449489079180162_);">
		<g>
			<g>
				<path class="st9" d="M166.96,135.24c0.04-0.09,1.86,1.06,3.34,3.19c1.54,2.09,2.04,4.19,1.94,4.19
					c-0.05,0.01-0.19-0.48-0.54-1.24c-0.34-0.75-0.91-1.76-1.64-2.79c-0.74-1.03-1.5-1.88-2.11-2.45
					C167.36,135.58,166.93,135.28,166.96,135.24z"/>
			</g>
		</g>
	</g>
	<g style="clip-path:url(#SVGID_00000170986197655929619540000012194449489079180162_);">
		<g>
			<g>
				<path class="st9" d="M169.6,136.92c0.02-0.03,0.38,0.2,0.89,0.65c0.51,0.45,1.17,1.14,1.74,2.01c0.55,0.87,1.02,1.69,1.22,2.36
					c0.21,0.66,0.17,1.1,0.14,1.1c-0.05,0-0.08-0.41-0.33-1.03c-0.24-0.62-0.73-1.41-1.27-2.27
					C170.87,138.03,169.53,136.99,169.6,136.92z"/>
			</g>
		</g>
	</g>
	<g style="clip-path:url(#SVGID_00000170986197655929619540000012194449489079180162_);">
		<g>
			<g>
				<path class="st9" d="M169.32,135.89c0.01-0.03,0.53,0.18,1.23,0.76c0.7,0.56,1.54,1.47,2.35,2.55c0.8,1.09,1.43,2.15,1.82,2.95
					c0.39,0.8,0.55,1.33,0.52,1.34c-0.04,0.02-0.27-0.48-0.7-1.24c-0.43-0.77-1.08-1.8-1.87-2.87c-0.8-1.07-1.6-1.99-2.25-2.57
					C169.77,136.2,169.29,135.93,169.32,135.89z"/>
			</g>
		</g>
	</g>
	<g style="clip-path:url(#SVGID_00000170986197655929619540000012194449489079180162_);">
		<g>
			<g>
				<path class="st9" d="M177.8,144.58c-0.05,0-0.1-0.5-0.34-1.27c-0.23-0.77-0.68-1.8-1.32-2.86c-0.64-1.06-1.36-1.91-1.93-2.48
					c-0.57-0.57-0.98-0.86-0.96-0.9c0.02-0.03,0.47,0.21,1.1,0.75c0.62,0.54,1.39,1.4,2.04,2.48c0.65,1.08,1.08,2.15,1.27,2.95
					C177.85,144.06,177.83,144.58,177.8,144.58z"/>
			</g>
		</g>
	</g>
	<g style="opacity:0.34;clip-path:url(#SVGID_00000170986197655929619540000012194449489079180162_);">
		<g>
			<g>
				<path class="st2" d="M169.6,155.85c0-0.04,0.19-0.07,0.49-0.12c0.15-0.03,0.33-0.06,0.51-0.11c0.18-0.06,0.36-0.16,0.28-0.25
					c-0.17-0.31-0.6-0.55-0.84-0.71c-0.26-0.17-0.42-0.28-0.4-0.32c0.02-0.03,0.21,0.01,0.5,0.14c0.28,0.15,0.71,0.27,1.01,0.79
					c0.09,0.15-0.01,0.4-0.14,0.46c-0.12,0.09-0.23,0.12-0.34,0.15c-0.22,0.05-0.41,0.06-0.57,0.06
					C169.79,155.93,169.6,155.88,169.6,155.85z"/>
			</g>
		</g>
	</g>
	<g style="clip-path:url(#SVGID_00000170986197655929619540000012194449489079180162_);">
		<g>
			<g>
				<path class="st5" d="M149.57,156.92c-0.02,0.07-1.53-0.3-3.22-1.17c-1.7-0.86-2.89-1.87-2.84-1.92c0.05-0.07,1.3,0.81,2.97,1.66
					C148.15,156.34,149.6,156.83,149.57,156.92z"/>
			</g>
		</g>
	</g>
	<g style="opacity:0.5;clip-path:url(#SVGID_00000170986197655929619540000012194449489079180162_);">
		<g>
			<g>
				<path class="st14" d="M143.33,153.07c0.02-0.02,0.32,0.23,0.89,0.64c0.59,0.37,1.47,0.91,2.65,1.34
					c1.18,0.45,2.62,0.86,4.26,1.16c1.64,0.29,3.47,0.48,5.39,0.56c3.85,0.14,7.34-0.22,9.83-0.58c1.24-0.19,2.26-0.37,2.98-0.38
					c0.35-0.02,0.63-0.04,0.81-0.05c0.19-0.01,0.28-0.02,0.29-0.01c0,0.08-1.55,0.14-4.04,0.64c-2.5,0.41-6,0.81-9.88,0.67
					c-1.94-0.08-3.78-0.28-5.43-0.59c-1.65-0.32-3.11-0.76-4.29-1.24c-1.19-0.46-2.06-1.03-2.64-1.44
					c-0.29-0.21-0.48-0.41-0.62-0.53C143.39,153.15,143.33,153.08,143.33,153.07z"/>
			</g>
		</g>
	</g>
	<g style="opacity:0.33;clip-path:url(#SVGID_00000170986197655929619540000012194449489079180162_);">
		<g>
			<g>
				<path class="st14" d="M193.16,191.88c0.06,0.06-1.33,0.93-3.27,0.92c-0.95,0.01-1.82-0.17-2.4-0.4
					c-0.59-0.23-0.89-0.49-0.87-0.52c0.03-0.04,0.35,0.15,0.93,0.32c0.57,0.18,1.41,0.32,2.33,0.31
					C191.75,192.52,193.13,191.8,193.16,191.88z"/>
			</g>
		</g>
	</g>
	<g style="clip-path:url(#SVGID_00000170986197655929619540000012194449489079180162_);">
		<g>
			<g>
				<path class="st5" d="M197.21,225.8c-0.09,0.26-3.09-0.9-6.93-0.82c-3.85,0.05-6.77,1.39-6.88,1.14
					c-0.05-0.1,0.62-0.56,1.84-1.04c1.22-0.48,3-0.93,5.02-0.97c2.01-0.04,3.81,0.33,5.05,0.75
					C196.55,225.28,197.25,225.69,197.21,225.8z"/>
			</g>
		</g>
	</g>
	<g style="opacity:0.34;clip-path:url(#SVGID_00000170986197655929619540000012194449489079180162_);">
		<g>
			<g>
				<path class="st2" d="M191.32,204.86c0.04,0.08-1.14,0.54-2.66,0.49c-1.52-0.02-2.68-0.45-2.65-0.52
					c0.02-0.08,1.19,0.21,2.66,0.23C190.15,205.11,191.3,204.8,191.32,204.86z"/>
			</g>
		</g>
	</g>
	<path style="clip-path:url(#SVGID_00000170986197655929619540000012194449489079180162_);fill:#301C19;" d="M190.31,52.27
		c-32.03-0.02-54.75,17.95-61.29,68.76c4.34,0.82,8.65,1.15,12.92,0.95l1.22-1.34l0.6,1.34c4.47,0.9,10.25,1.08,16.56,0.97
		l0.41-3.95l1.3,3.95c5.62,1.45,49.62,2.81,54.71,0l1.4-6.3l0.79,5.89c5.82,0.93,14.1-0.38,19.72-1.89l0.38-2.02l1.1,1.59
		c3.75,0.07,7.5-0.39,11.23-1.38C251.36,118.84,245.68,52.27,190.31,52.27z"/>
	<g style="clip-path:url(#SVGID_00000170986197655929619540000012194449489079180162_);">
		<g>
			<g>
				<path class="st9" d="M252.35,124.42c0.03,0,0.03,0.42,0,1.21c-0.04,0.79-0.06,1.96-0.1,3.45c-0.06,3-0.06,7.35,0.09,12.71
					c0.16,5.36,0.42,11.76,1.11,18.81c0.19,1.76,0.39,3.57,0.73,5.37c0.35,1.82,0.75,3.67,1.18,5.55c0.9,3.76,1.83,7.65,2.78,11.64
					c0.9,4.01,1.71,7.95,2.09,11.83c0.38,3.9,0.1,7.67-0.33,11.21c-0.44,3.54-1,6.87-1.46,9.99c-0.48,3.12-0.8,6.03-1.05,8.7
					c-0.42,5.34-0.33,9.69-0.1,12.67c0.08,1.5,0.25,2.65,0.31,3.44c0.07,0.79,0.09,1.2,0.06,1.21c-0.03,0-0.11-0.4-0.24-1.19
					c-0.11-0.78-0.34-1.93-0.47-3.43c-0.34-2.99-0.53-7.37-0.18-12.75c0.2-2.69,0.49-5.63,0.94-8.76c0.43-3.13,0.96-6.47,1.38-9.98
					c0.4-3.51,0.66-7.23,0.28-11.03c-0.39-3.81-1.2-7.73-2.09-11.72c-0.95-3.99-1.87-7.88-2.76-11.64
					c-0.43-1.89-0.83-3.75-1.17-5.59c-0.34-1.85-0.52-3.67-0.71-5.44c-0.65-7.1-0.85-13.5-0.93-18.88
					c-0.07-5.38,0.02-9.73,0.19-12.74c0.09-1.5,0.17-2.67,0.27-3.46C252.26,124.83,252.32,124.42,252.35,124.42z"/>
			</g>
		</g>
	</g>
	<g style="clip-path:url(#SVGID_00000170986197655929619540000012194449489079180162_);">
		<g>
			<g>
				<path class="st3" d="M302.24,289.69c0,0,0.08,0.16,0.2,0.47c0.11,0.32,0.28,0.78,0.5,1.38c0.41,1.21,0.97,2.98,1.5,5.2
					c1.08,4.44,2.02,10.75,1.68,17.74c-0.16,3.49-0.67,6.78-1.1,9.77c-0.43,2.99-0.74,5.69-0.76,7.96c-0.05,2.28,0.16,4.12,0.4,5.37
					c0.1,0.63,0.23,1.11,0.31,1.43c0.08,0.33,0.1,0.5,0.1,0.5s-0.26-0.66-0.52-1.92c-0.27-1.25-0.52-3.1-0.5-5.39
					c0-2.29,0.29-5.01,0.7-8c0.42-2.99,0.91-6.27,1.07-9.75c0.33-6.96-0.56-13.25-1.59-17.68c-0.51-2.22-1.04-3.99-1.41-5.21
					c-0.19-0.61-0.35-1.08-0.45-1.4C302.28,289.86,302.24,289.69,302.24,289.69z"/>
			</g>
		</g>
	</g>
	<g style="clip-path:url(#SVGID_00000170986197655929619540000012194449489079180162_);">
		<g>
			<g>
				<path class="st9" d="M234.3,278.56c0.06-0.01,0.19,0.86,0.36,2.44c0.11,0.79,0.16,1.76,0.21,2.89c0.08,1.13,0.08,2.42,0.07,3.84
					c-0.05,2.85-0.27,6.24-0.84,9.97c-0.55,3.73-1.47,7.77-2.4,11.99c-0.92,4.21-1.68,8.27-0.96,11.92
					c0.61,3.66,1.67,6.87,2.65,9.51c0.98,2.65,1.98,4.71,2.75,6.08c0.76,1.38,1.36,2.02,1.3,2.07c-0.02,0.02-0.19-0.12-0.49-0.43
					c-0.29-0.31-0.68-0.8-1.11-1.47c-0.87-1.34-1.96-3.39-3.03-6.03c-1.06-2.64-2.2-5.86-2.87-9.6c-0.09-0.47-0.16-0.94-0.21-1.43
					c-0.07-0.48-0.1-0.98-0.12-1.48c-0.02-1,0.01-2.03,0.13-3.06c0.22-2.06,0.62-4.15,1.09-6.27c0.94-4.23,1.87-8.24,2.46-11.92
					c0.61-3.68,0.9-7.04,1.02-9.86c0.05-1.41,0.09-2.69,0.06-3.81c-0.01-1.12-0.01-2.09-0.06-2.88
					C234.25,279.45,234.24,278.57,234.3,278.56z"/>
			</g>
		</g>
	</g>
	<g style="clip-path:url(#SVGID_00000170986197655929619540000012194449489079180162_);">
		<g>
			<g>
				<path class="st9" d="M331.01,339.28c-0.03-0.01,0.05-0.41,0.23-1.16c0.08-0.38,0.22-0.83,0.31-1.38
					c0.07-0.56,0.16-1.2,0.26-1.92c0.3-2.89,0.19-7.13-0.76-12.26c-0.85-5.15-2.6-11.12-4.14-17.89c-0.39-1.69-0.68-3.48-0.8-5.31
					c-0.11-1.82-0.17-3.67-0.21-5.55c-0.08-3.77-0.11-7.66-0.69-11.57c-0.3-1.95-0.66-3.89-1.28-5.69
					c-0.59-1.81-1.37-3.55-2.22-5.21c-1.71-3.32-3.61-6.41-5.5-9.3c-3.77-5.79-7.35-10.89-10.14-15.33
					c-2.81-4.42-4.83-8.18-5.94-10.9c-0.27-0.68-0.51-1.29-0.72-1.82c-0.15-0.55-0.28-1.01-0.38-1.38c-0.2-0.75-0.29-1.14-0.26-1.15
					s0.18,0.37,0.43,1.1c0.12,0.36,0.28,0.81,0.46,1.34c0.23,0.51,0.49,1.11,0.78,1.77c1.2,2.66,3.28,6.34,6.15,10.7
					c2.85,4.38,6.48,9.44,10.3,15.23c1.91,2.89,3.84,5.99,5.59,9.35c0.87,1.68,1.68,3.45,2.29,5.33c0.65,1.89,1.01,3.84,1.31,5.83
					c0.59,3.99,0.61,7.93,0.68,11.68c0.03,1.88,0.08,3.72,0.19,5.52c0.11,1.78,0.38,3.5,0.76,5.19c1.49,6.72,3.19,12.76,3.97,17.96
					c0.88,5.18,0.9,9.49,0.49,12.41c-0.13,0.73-0.24,1.37-0.34,1.93c-0.12,0.55-0.29,1.01-0.4,1.38
					C331.18,338.91,331.04,339.29,331.01,339.28z"/>
			</g>
		</g>
	</g>
	<g style="clip-path:url(#SVGID_00000170986197655929619540000012194449489079180162_);">
		<g>
			<g>
				<path class="st9" d="M252.25,127.12c-0.07-0.01-0.05-0.69-0.14-1.93c-0.09-1.24-0.27-3.02-0.62-5.21
					c-0.69-4.38-2.01-10.39-3.85-16.91c-1.84-6.52-3.88-12.33-5.72-16.35c-0.92-2.01-1.8-3.58-2.52-4.57
					c-0.71-1-1.26-1.42-1.21-1.48c0.02-0.04,0.66,0.3,1.48,1.27c0.82,0.96,1.8,2.51,2.8,4.51c2.01,4.01,4.15,9.82,6.01,16.38
					c1.85,6.56,3.08,12.62,3.62,17.06c0.27,2.22,0.37,4.03,0.35,5.29C252.44,126.44,252.3,127.13,252.25,127.12z"/>
			</g>
		</g>
	</g>
	<g style="clip-path:url(#SVGID_00000170986197655929619540000012194449489079180162_);">
		<g>
			<g>
				<path class="st9" d="M251.56,206.73c0.09,0.02-0.14,1.54-0.97,3.85c-0.84,2.32-2.34,5.38-4.36,8.54
					c-2.04,3.14-4.18,5.79-5.89,7.56c-1.69,1.79-3,2.63-3.07,2.53c-0.07-0.1,1.06-1.08,2.61-2.95c1.57-1.84,3.6-4.51,5.62-7.61
					c1.99-3.11,3.56-6.08,4.52-8.3C250.98,208.14,251.42,206.7,251.56,206.73z"/>
			</g>
		</g>
	</g>
	<g style="opacity:0.43;clip-path:url(#SVGID_00000170986197655929619540000012194449489079180162_);">
		<g>
			<g>
				<path class="st2" d="M242.09,94.73c-0.04,0.02-0.29-0.48-0.72-1.39c-0.42-0.91-1.04-2.22-1.84-3.82
					c-1.59-3.2-3.94-7.56-7.08-12.02c-1.58-2.22-3.21-4.24-4.77-6.01c-1.59-1.74-3.09-3.26-4.42-4.44
					c-0.65-0.62-1.28-1.12-1.82-1.58c-0.54-0.47-1.02-0.84-1.41-1.15c-0.79-0.62-1.21-0.97-1.19-1.01s0.49,0.26,1.33,0.82
					c0.42,0.28,0.92,0.63,1.48,1.07c0.56,0.44,1.22,0.92,1.89,1.52c1.38,1.15,2.92,2.65,4.55,4.39c1.6,1.76,3.26,3.79,4.85,6.03
					c3.17,4.49,5.47,8.92,6.97,12.18c0.75,1.63,1.32,2.97,1.67,3.91C241.95,94.19,242.13,94.71,242.09,94.73z"/>
			</g>
		</g>
	</g>
	<g style="opacity:0.43;clip-path:url(#SVGID_00000170986197655929619540000012194449489079180162_);">
		<g>
			<g>
				<path class="st2" d="M278.61,178.51c-0.02,0.01-0.1-0.23-0.24-0.67c-0.13-0.45-0.32-1.11-0.57-1.96
					c-0.25-0.85-0.54-1.9-0.79-3.14c-0.26-1.23-0.61-2.63-0.85-4.2c-0.58-3.12-1.07-6.88-1.51-11.05c-0.43-4.17-0.8-8.77-1.23-13.59
					c-0.44-4.81-0.98-9.39-1.65-13.51c-0.4-2.05-0.71-4.02-1.18-5.82c-0.22-0.9-0.41-1.78-0.63-2.61c-0.25-0.83-0.48-1.62-0.71-2.38
					c-0.41-1.53-0.95-2.85-1.38-4.04c-0.22-0.59-0.41-1.14-0.61-1.64c-0.22-0.49-0.42-0.94-0.6-1.34c-0.36-0.81-0.63-1.44-0.82-1.87
					c-0.18-0.43-0.27-0.66-0.25-0.67c0.02-0.01,0.14,0.2,0.36,0.62c0.21,0.42,0.52,1.03,0.92,1.83c0.2,0.4,0.41,0.84,0.65,1.33
					c0.22,0.49,0.42,1.05,0.66,1.63c0.46,1.18,1.03,2.5,1.47,4.03c0.24,0.76,0.49,1.55,0.75,2.38c0.24,0.84,0.44,1.72,0.67,2.62
					c0.49,1.81,0.82,3.78,1.24,5.84c0.7,4.14,1.26,8.73,1.71,13.55c0.42,4.82,0.82,9.41,1.19,13.59c0.41,4.17,0.86,7.91,1.38,11.03
					c0.22,1.57,0.53,2.97,0.77,4.2c0.22,1.24,0.47,2.29,0.69,3.15c0.2,0.86,0.36,1.53,0.46,1.99
					C278.59,178.26,278.63,178.5,278.61,178.51z"/>
			</g>
		</g>
	</g>
	<g style="opacity:0.43;clip-path:url(#SVGID_00000170986197655929619540000012194449489079180162_);">
		<g>
			<g>
				<path class="st2" d="M309.2,261.25c-0.01,0.01-0.17-0.13-0.45-0.41c-0.27-0.29-0.68-0.71-1.2-1.25c-1.02-1.1-2.49-2.7-4.32-4.67
					c-1.81-1.98-3.98-4.33-6.33-7c-2.34-2.67-4.85-5.69-7.13-9.12c-2.3-3.42-4.03-6.98-5.27-10.31c-1.25-3.34-2.09-6.44-2.72-9.06
					c-0.62-2.62-1.03-4.75-1.3-6.23c-0.14-0.74-0.23-1.31-0.29-1.71c-0.06-0.39-0.08-0.6-0.06-0.6c0.02,0,0.08,0.2,0.18,0.58
					c0.09,0.38,0.22,0.95,0.4,1.68c0.34,1.46,0.81,3.58,1.48,6.18c1.35,5.16,3.48,12.37,8.08,19.15c2.26,3.4,4.74,6.4,7.05,9.09
					c2.34,2.66,4.45,5.06,6.23,7.08c1.76,2.02,3.19,3.66,4.18,4.79c0.48,0.57,0.86,1.02,1.11,1.32
					C309.09,261.07,309.22,261.24,309.2,261.25z"/>
			</g>
		</g>
	</g>
	<g style="clip-path:url(#SVGID_00000170986197655929619540000012194449489079180162_);">
		<g>
			<g>
				<path class="st9" d="M275.24,202.96c-0.03,0.01-0.21-0.27-0.54-0.83c-0.34-0.55-0.78-1.4-1.33-2.5
					c-1.08-2.21-2.42-5.52-3.56-9.78c-1.14-4.25-2.04-9.43-2.59-15.21c-0.57-5.78-0.78-12.16-1.16-18.82
					c-0.38-6.66-0.96-13-2.13-18.64c-1.15-5.65-2.85-10.58-4.72-14.51c-1.89-3.93-3.9-6.85-5.43-8.74
					c-0.77-0.94-1.38-1.67-1.82-2.14c-0.43-0.48-0.64-0.75-0.62-0.77c0.02-0.02,0.28,0.2,0.75,0.65c0.48,0.43,1.14,1.13,1.96,2.05
					c1.62,1.85,3.74,4.75,5.73,8.69c1.97,3.94,3.75,8.92,4.96,14.62c1.22,5.7,1.84,12.08,2.21,18.76c0.37,6.68,0.56,13.04,1.08,18.8
					c0.5,5.75,1.33,10.9,2.38,15.13c1.06,4.23,2.29,7.55,3.27,9.79C274.65,201.74,275.31,202.92,275.24,202.96z"/>
			</g>
		</g>
	</g>
	<g style="opacity:0.43;clip-path:url(#SVGID_00000170986197655929619540000012194449489079180162_);">
		<g>
			<g>
				<path class="st2" d="M268.9,268.48c-0.18,0.03-0.8-3.69-2.45-8c-1.62-4.32-3.62-7.52-3.47-7.61c0.06-0.04,0.64,0.71,1.43,2.02
					c0.79,1.31,1.75,3.2,2.58,5.38c0.83,2.19,1.35,4.24,1.63,5.74C268.91,267.53,268.98,268.47,268.9,268.48z"/>
			</g>
		</g>
	</g>
	<g style="clip-path:url(#SVGID_00000170986197655929619540000012194449489079180162_);">
		<g>
			<g>
				<path class="st9" d="M244,271.69c-0.04,0.03-0.47-0.34-1.16-1.12c-0.69-0.78-1.57-2.01-2.43-3.66
					c-1.76-3.29-3.06-8.37-3.32-14.01c-0.25-5.64,0.06-10.7-0.04-14.36c-0.05-3.66-0.33-5.91-0.2-5.93c0.06-0.01,0.2,0.55,0.37,1.56
					c0.17,1.02,0.34,2.5,0.45,4.34c0.26,3.68,0.05,8.77,0.3,14.33c0.25,5.56,1.43,10.51,3,13.78
					C242.5,269.94,244.13,271.58,244,271.69z"/>
			</g>
		</g>
	</g>
	<g style="opacity:0.43;clip-path:url(#SVGID_00000170986197655929619540000012194449489079180162_);">
		<g>
			<g>
				<path class="st2" d="M184.02,100.92c-0.08,0-0.24-1.33-0.37-3.51c-0.13-2.17-0.19-5.19-0.07-8.51c0.12-3.32,0.4-6.33,0.69-8.49
					c0.28-2.16,0.55-3.48,0.62-3.47c0.08,0.01-0.03,1.35-0.21,3.52c-0.18,2.16-0.39,5.15-0.51,8.46c-0.12,3.31-0.12,6.31-0.1,8.48
					C184.08,99.57,184.1,100.91,184.02,100.92z"/>
			</g>
		</g>
	</g>
	<g style="opacity:0.43;clip-path:url(#SVGID_00000170986197655929619540000012194449489079180162_);">
		<g>
			<g>
				<path class="st2" d="M115.19,118.92c-0.02,0,0.01-0.2,0.08-0.56c0.07-0.36,0.19-0.89,0.33-1.57c0.29-1.36,0.78-3.32,1.46-5.72
					c0.67-2.4,1.59-5.22,2.72-8.32c1.15-3.09,2.53-6.44,4.15-9.89c1.63-3.44,3.35-6.63,5-9.49c1.67-2.84,3.27-5.34,4.7-7.39
					c1.42-2.05,2.61-3.67,3.48-4.76c0.44-0.54,0.78-0.96,1-1.25c0.23-0.28,0.37-0.42,0.38-0.41c0.02,0.01-0.08,0.18-0.29,0.48
					c-0.21,0.3-0.52,0.74-0.92,1.31c-0.81,1.13-1.96,2.78-3.33,4.86c-1.38,2.07-2.93,4.58-4.57,7.43c-1.62,2.86-3.31,6.04-4.94,9.47
					c-1.61,3.43-2.99,6.76-4.17,9.83c-1.15,3.07-2.11,5.88-2.83,8.25c-0.73,2.37-1.28,4.31-1.64,5.65
					c-0.19,0.67-0.33,1.19-0.43,1.54C115.28,118.74,115.21,118.93,115.19,118.92z"/>
			</g>
		</g>
	</g>
	<g style="opacity:0.43;clip-path:url(#SVGID_00000170986197655929619540000012194449489079180162_);">
		<g>
			<g>
				<path class="st2" d="M57.21,277.2c-0.02-0.01,0.03-0.2,0.15-0.57c0.12-0.37,0.3-0.91,0.53-1.61c0.12-0.35,0.24-0.74,0.4-1.16
					c0.18-0.41,0.37-0.86,0.58-1.34c0.21-0.48,0.43-0.99,0.67-1.54c0.24-0.54,0.55-1.09,0.85-1.68c0.31-0.58,0.63-1.19,0.97-1.83
					c0.37-0.62,0.75-1.26,1.15-1.93c0.77-1.35,1.73-2.7,2.67-4.16c1.98-2.87,4.26-5.94,6.7-9.12c2.45-3.18,4.77-6.21,6.82-9.01
					c0.99-1.42,1.98-2.74,2.81-4.04c0.43-0.64,0.84-1.26,1.23-1.86c0.37-0.61,0.72-1.2,1.06-1.76c0.7-1.11,1.25-2.16,1.74-3.08
					c0.25-0.46,0.48-0.89,0.69-1.28c0.19-0.4,0.36-0.77,0.51-1.11c0.31-0.66,0.56-1.18,0.72-1.53c0.17-0.35,0.27-0.53,0.29-0.52
					c0.02,0.01-0.04,0.2-0.18,0.56c-0.14,0.36-0.35,0.89-0.62,1.58c-0.14,0.34-0.3,0.72-0.47,1.13c-0.2,0.4-0.42,0.84-0.65,1.31
					c-0.46,0.94-0.99,2.01-1.67,3.14c-0.33,0.57-0.68,1.17-1.04,1.79c-0.39,0.61-0.79,1.24-1.21,1.89c-0.82,1.32-1.8,2.65-2.78,4.09
					c-2.03,2.83-4.34,5.87-6.79,9.05c-2.44,3.18-4.73,6.24-6.72,9.07c-0.95,1.45-1.92,2.78-2.7,4.11c-0.4,0.66-0.79,1.29-1.17,1.9
					c-0.34,0.63-0.68,1.23-0.99,1.8c-0.31,0.58-0.63,1.11-0.88,1.65c-0.25,0.53-0.49,1.04-0.71,1.51c-0.22,0.47-0.43,0.91-0.62,1.31
					c-0.16,0.41-0.31,0.79-0.44,1.13c-0.27,0.68-0.48,1.21-0.63,1.57C57.32,277.02,57.23,277.21,57.21,277.2z"/>
			</g>
		</g>
	</g>
	<g style="clip-path:url(#SVGID_00000170986197655929619540000012194449489079180162_);">
		<g>
			<g>
				<path class="st9" d="M145.59,259.61c-0.27-0.07,1.22-5.18,1.26-11.67c0.09-6.49-1.3-11.63-1.03-11.69
					c0.1-0.03,0.59,1.22,1.06,3.32c0.47,2.1,0.88,5.08,0.85,8.38c-0.04,3.3-0.5,6.26-1.01,8.36
					C146.2,258.4,145.69,259.64,145.59,259.61z"/>
			</g>
		</g>
	</g>
	<g style="clip-path:url(#SVGID_00000170986197655929619540000012194449489079180162_);">
		<g>
			<g>
				<path class="st9" d="M120.38,202.85c-0.03-0.01-0.01-0.3,0.06-0.85c0.08-0.55,0.2-1.36,0.35-2.4c0.32-2.08,0.79-5.1,1.36-8.82
					c1.15-7.45,2.68-17.75,4.13-29.16c0.73-5.7,1.37-11.15,1.91-16.1c0.56-4.95,0.94-9.41,0.98-13.17c0.06-3.76-0.2-6.79-0.46-8.87
					c-0.28-2.08-0.52-3.22-0.45-3.24c0.03-0.01,0.12,0.27,0.26,0.81c0.15,0.54,0.32,1.34,0.52,2.38c0.37,2.08,0.73,5.14,0.74,8.93
					c0.04,3.79-0.28,8.29-0.8,13.25c-0.51,4.96-1.12,10.41-1.85,16.12c-1.45,11.42-3.07,21.72-4.38,29.15
					c-0.65,3.72-1.22,6.71-1.64,8.78c-0.22,1.03-0.39,1.83-0.51,2.38C120.49,202.57,120.41,202.85,120.38,202.85z"/>
			</g>
		</g>
	</g>
	<g style="clip-path:url(#SVGID_00000170986197655929619540000012194449489079180162_);">
		<g>
			<g>
				<path class="st9" d="M162.51,122.3c-0.19,0.14-0.77-0.36-1.1-1.19c-0.33-0.83-0.26-1.58-0.03-1.62
					c0.24-0.04,0.54,0.56,0.84,1.29C162.51,121.52,162.71,122.16,162.51,122.3z"/>
			</g>
		</g>
	</g>
	<g style="clip-path:url(#SVGID_00000170986197655929619540000012194449489079180162_);">
		<g>
			<g>
				<path class="st9" d="M219.59,121.25c-0.24-0.02-0.37-1.03-0.48-2.25c-0.11-1.22-0.17-2.23,0.07-2.29
					c0.23-0.06,0.68,0.92,0.8,2.22C220.1,120.23,219.83,121.27,219.59,121.25z"/>
			</g>
		</g>
	</g>
	<g style="clip-path:url(#SVGID_00000170986197655929619540000012194449489079180162_);">
		<g>
			<g>
				<path class="st9" d="M145.87,89.91c-0.05-0.02,0.14-0.8,0.59-2.19c0.44-1.39,1.16-3.37,2.19-5.77
					c2.05-4.77,5.48-11.28,11.01-17.1c5.53-5.83,12.1-9.41,17.1-10.91c2.51-0.78,4.6-1.14,6.06-1.28c1.46-0.14,2.26-0.12,2.27-0.07
					c0.03,0.19-3.24,0.25-8.13,1.93c-4.87,1.63-11.24,5.21-16.67,10.93c-5.43,5.72-8.9,12.08-11.08,16.75
					c-1.09,2.35-1.89,4.29-2.43,5.64C146.24,89.19,145.93,89.93,145.87,89.91z"/>
			</g>
		</g>
	</g>
	<g style="opacity:0.43;clip-path:url(#SVGID_00000170986197655929619540000012194449489079180162_);">
		<g>
			<g>
				<path class="st23" d="M220.24,288.1c-0.05-0.07,0.9-0.82,2.44-2c1.54-1.18,3.69-2.79,5.93-4.71c2.25-1.92,4.12-3.82,5.37-5.29
					c1.26-1.46,1.96-2.45,2.04-2.39c0.06,0.03-0.52,1.1-1.72,2.65c-1.19,1.55-3.05,3.54-5.31,5.47c-2.27,1.93-4.46,3.5-6.07,4.6
					C221.31,287.54,220.28,288.17,220.24,288.1z"/>
			</g>
		</g>
	</g>
	<g style="opacity:0.43;clip-path:url(#SVGID_00000170986197655929619540000012194449489079180162_);">
		<g>
			<g>
				<path class="st23" d="M358.43,357.91c-0.08,0-0.17-1.31-0.61-3.64c-0.45-2.33-1.3-5.66-2.71-9.66
					c-2.83-7.97-7.95-18.67-15.87-28.91c-3.94-5.13-8.22-9.59-12.44-13.26c-4.21-3.69-8.42-6.51-12.09-8.62
					c-3.66-2.14-6.86-3.42-9.03-4.36c-1.11-0.42-1.97-0.75-2.56-0.97c-0.58-0.23-0.89-0.36-0.88-0.39c0.01-0.03,0.33,0.05,0.93,0.23
					c0.6,0.18,1.49,0.45,2.62,0.82c2.22,0.85,5.48,2.06,9.21,4.14c3.74,2.06,8.03,4.85,12.31,8.55c4.3,3.67,8.64,8.16,12.61,13.33
					c7.99,10.34,13.06,21.17,15.76,29.25c1.34,4.05,2.11,7.44,2.46,9.8c0.17,1.18,0.27,2.1,0.28,2.73
					C358.47,357.58,358.46,357.91,358.43,357.91z"/>
			</g>
		</g>
	</g>
	<g style="clip-path:url(#SVGID_00000170986197655929619540000012194449489079180162_);">
		<path class="st24" d="M188.67,223.03c0,0-7.46,0.29-15.2-3.28c-7.74-3.57-12.18-8.17-12.18-8.17l27.53,1.62l27.53-1.62
			c0,0-4.45,4.6-12.18,8.17c-7.74,3.57-15.2,3.28-15.2,3.28"/>
		<path class="st25" d="M188.81,213.26c-1.06,0.09-1.87-0.54-10.81-0.26c-9.93,0.31-17.96-1.69-17.96-1.69
			c5.72-0.2,18.75-4.27,18.75-4.27c5.16-1.29,5.75-0.69,10.02,0c4.27-0.69,4.86-1.29,10.02,0c0,0,13.03,4.07,18.75,4.27
			c0,0-8.02,2-17.96,1.69C190.69,212.72,189.87,213.34,188.81,213.26"/>
	</g>
	<g style="clip-path:url(#SVGID_00000170986197655929619540000012194449489079180162_);">
		<path class="st26" d="M183.27,291.72c-12.59-1.86-25.88-4.4-34.18-20.29c-17.58,7.48-107.67,0.86-122.93,86.22
			c66.58,19.63,131.42,37.77,171.93,35.04c34.7,4.96,96.76-13.83,161.32-34.78c-15.65-85.36-106.31-78.74-124.33-86.22
			C226.57,287.57,201.74,293.14,183.27,291.72z"/>
		<g class="st1">
			<g>
				<g>
					<path class="st23" d="M176.97,292.03c0.01-0.08,1.28,0,3.34,0.17c2.05,0.17,4.89,0.43,8.02,0.54c3.13,0.11,5.97-0.01,8.01-0.22
						c2.04-0.21,3.3-0.44,3.32-0.35c0.01,0.04-0.3,0.14-0.86,0.28c-0.56,0.15-1.38,0.31-2.41,0.47c-2.05,0.32-4.92,0.51-8.08,0.39
						c-3.16-0.11-6-0.44-8.04-0.71C178.22,292.33,176.97,292.11,176.97,292.03z"/>
				</g>
			</g>
		</g>
		<g class="st1">
			<g>
				<g>
					<path class="st23" d="M163.69,287.22c-0.05,0.06-1.07-0.57-2.68-1.66c-1.61-1.1-3.8-2.66-6.07-4.6
						c-2.27-1.94-4.13-3.92-5.31-5.47c-1.2-1.55-1.77-2.62-1.72-2.65c0.08-0.05,0.77,0.93,2.04,2.39c1.26,1.47,3.13,3.38,5.37,5.29
						c2.25,1.92,4.39,3.53,5.93,4.71C162.79,286.4,163.74,287.15,163.69,287.22z"/>
				</g>
			</g>
		</g>
		<g class="st1">
			<g>
				<g>
					<path class="st23" d="M28.77,357.02c-0.03,0-0.03-0.33-0.01-0.97c0.01-0.64,0.12-1.57,0.28-2.77c0.34-2.39,1.1-5.82,2.41-9.93
						c2.65-8.2,7.58-19.25,15.59-29.78c7.94-10.58,17.68-18.04,25.46-21.8c3.87-1.96,7.23-3,9.52-3.72c1.17-0.31,2.08-0.52,2.7-0.66
						c0.62-0.14,0.95-0.2,0.95-0.17c0.01,0.03-0.31,0.15-0.91,0.34c-0.6,0.19-1.5,0.46-2.64,0.81c-2.25,0.82-5.55,1.94-9.34,3.95
						c-7.63,3.86-17.18,11.3-25.05,21.78c-7.93,10.43-12.92,21.35-15.7,29.45c-1.38,4.06-2.22,7.44-2.66,9.8
						C28.94,355.7,28.85,357.03,28.77,357.02z"/>
				</g>
			</g>
		</g>
		<g id="Capa_4_00000142145559199988365970000003485555896676485800_">
			<path class="st0" d="M257.43,350.49h0.57c0.29,0,0.49,0.16,0.49,0.44c0,0.28-0.2,0.45-0.5,0.45h-0.43v0.69h-0.12V350.49z
				 M257.55,351.27h0.44c0.26,0,0.36-0.14,0.36-0.34c0.01-0.17-0.12-0.32-0.3-0.33c-0.02,0-0.04,0-0.05,0h-0.45V351.27z"/>
			<path class="st0" d="M258.95,351.34v0.74h-0.12v-1.58h0.57c0.31,0,0.48,0.17,0.48,0.42c0.01,0.18-0.12,0.34-0.3,0.37
				c0.16,0.04,0.27,0.14,0.27,0.41v0.06c-0.01,0.11,0,0.22,0.02,0.32h-0.12c-0.02-0.11-0.03-0.22-0.02-0.33v-0.04
				c0-0.26-0.08-0.37-0.38-0.37H258.95z M258.95,351.22h0.38c0.28,0,0.41-0.1,0.41-0.31c0-0.21-0.13-0.31-0.37-0.31h-0.42V351.22z"
				/>
			<path class="st0" d="M261.6,351.27c0,0.43-0.23,0.83-0.72,0.83c-0.45,0-0.71-0.36-0.71-0.81c0-0.45,0.25-0.82,0.72-0.82
				C261.33,350.47,261.6,350.81,261.6,351.27z M260.31,351.27c0,0.36,0.2,0.71,0.58,0.71c0.41,0,0.58-0.34,0.58-0.71
				s-0.19-0.69-0.58-0.69C260.48,350.58,260.3,350.92,260.31,351.27L260.31,351.27z"/>
			<path class="st0" d="M262.31,352.08v-0.59c0-0.01,0-0.03-0.01-0.04l-0.57-0.95h0.14c0.16,0.27,0.43,0.74,0.5,0.85
				c0.07-0.11,0.35-0.58,0.52-0.85h0.14l-0.59,0.96c-0.01,0.01-0.01,0.02-0.01,0.03v0.59H262.31z"/>
			<path class="st0" d="M264.2,351.3h-0.81v0.66h0.88l-0.02,0.11h-0.99v-1.58h0.97v0.11h-0.85v0.58h0.81V351.3z"/>
			<path class="st0" d="M265.79,351.65c-0.07,0.27-0.32,0.46-0.59,0.44c-0.45,0-0.69-0.36-0.69-0.81c0-0.43,0.24-0.82,0.7-0.82
				c0.34,0,0.54,0.19,0.59,0.45h-0.12c-0.06-0.21-0.26-0.36-0.48-0.34c-0.39,0-0.56,0.36-0.56,0.7s0.16,0.7,0.57,0.7
				c0.21,0.01,0.41-0.12,0.47-0.33L265.79,351.65z"/>
			<path class="st0" d="M266.49,350.61h-0.53v-0.11h1.19v0.11h-0.53v1.47h-0.12V350.61z"/>
			<path class="st0" d="M268.7,351.27c0,0.43-0.23,0.83-0.72,0.83c-0.45,0-0.71-0.36-0.71-0.81c0-0.45,0.25-0.82,0.72-0.82
				C268.43,350.47,268.7,350.81,268.7,351.27z M267.4,351.27c0,0.36,0.2,0.71,0.58,0.71c0.41,0,0.58-0.34,0.58-0.71
				s-0.19-0.69-0.58-0.69C267.58,350.58,267.4,350.92,267.4,351.27L267.4,351.27z"/>
			<path class="st0" d="M270.61,351.3h-0.81v0.66h0.89l-0.02,0.11h-0.99v-1.58h0.97v0.11h-0.85v0.58h0.81V351.3z"/>
			<path class="st0" d="M271.02,350.49h0.53c0.43,0,0.73,0.3,0.73,0.78s-0.29,0.8-0.74,0.8h-0.52V350.49z M271.14,351.96h0.38
				c0.42,0,0.62-0.29,0.62-0.69c0-0.35-0.19-0.67-0.62-0.67h-0.38V351.96z"/>
			<path class="st0" d="M272.78,350.49v0.96c0,0.42,0.24,0.53,0.46,0.53c0.26,0,0.46-0.11,0.46-0.53v-0.96h0.12v0.95
				c0,0.5-0.26,0.65-0.59,0.65s-0.58-0.17-0.58-0.63v-0.97H272.78z"/>
			<path class="st0" d="M275.47,351.65c-0.07,0.27-0.32,0.46-0.59,0.44c-0.45,0-0.7-0.36-0.7-0.81c0-0.43,0.24-0.82,0.7-0.82
				c0.34,0,0.54,0.19,0.6,0.45h-0.12c-0.06-0.21-0.26-0.36-0.48-0.34c-0.39,0-0.57,0.36-0.57,0.7s0.16,0.7,0.57,0.7
				c0.21,0.01,0.41-0.12,0.47-0.33L275.47,351.65z"/>
			<path class="st0" d="M275.98,351.53l-0.2,0.55h-0.12l0.58-1.58h0.14l0.61,1.58h-0.13l-0.21-0.55H275.98z M276.61,351.42
				c-0.18-0.47-0.27-0.7-0.3-0.8l0,0c-0.04,0.12-0.14,0.4-0.28,0.8H276.61z"/>
			<path class="st0" d="M277.42,350.61h-0.53v-0.11h1.19v0.11h-0.53v1.47h-0.12V350.61z"/>
			<path class="st0" d="M278.46,350.49v1.58h-0.12v-1.58H278.46z"/>
			<path class="st0" d="M279.32,352.08l-0.59-1.58h0.13l0.31,0.83c0.09,0.24,0.19,0.5,0.23,0.64l0,0c0.03-0.11,0.14-0.4,0.23-0.63
				l0.32-0.84h0.13l-0.61,1.58H279.32z"/>
			<path class="st0" d="M281.68,351.27c0,0.43-0.23,0.83-0.72,0.83c-0.45,0-0.71-0.36-0.71-0.81c0-0.45,0.25-0.82,0.72-0.82
				C281.41,350.47,281.68,350.81,281.68,351.27z M280.39,351.27c0,0.36,0.2,0.71,0.58,0.71c0.41,0,0.58-0.34,0.58-0.71
				s-0.19-0.69-0.58-0.69C280.57,350.58,280.39,350.92,280.39,351.27L280.39,351.27z"/>
			<path class="st0" d="M257.65,358.03l-0.58,0.11l-0.74-4.03l0,0c-0.09,0.19-0.3,0.64-0.62,1.35c-0.32,0.71-0.63,1.41-0.94,2.12
				h-0.5c-0.28-0.66-0.6-1.37-0.94-2.13c-0.34-0.76-0.55-1.21-0.61-1.34h-0.01c-0.02,0.06-0.11,0.52-0.29,1.37
				c-0.18,0.85-0.35,1.74-0.52,2.65l-0.55-0.1c0.24-1.03,0.46-2.05,0.67-3.06c0.21-1.01,0.32-1.56,0.34-1.65l0.57-0.08l0.51,1.16
				c0.31,0.71,0.68,1.54,1.11,2.47h0.02c0.33-0.73,0.67-1.51,1.03-2.34c0.36-0.83,0.55-1.26,0.57-1.29l0.54,0.04
				c0.01,0.05,0.11,0.58,0.3,1.57C257.2,355.86,257.41,356.91,257.65,358.03z"/>
			<path class="st0" d="M261.94,358.09h-0.48c-0.3,0-0.66,0-1.1,0c-0.3,0-0.58,0-0.83,0c-0.25,0-0.47,0-0.64,0
				c0-0.14,0.01-0.44,0.01-0.9c0-0.46,0-0.94,0-1.43c0-0.27,0-0.63,0-1.07s-0.01-0.9-0.01-1.38h0.64c0.25,0,0.52,0,0.79,0
				c0.46,0,0.83,0,1.12,0h0.47v0.5h-0.45c-0.28,0-0.62,0-1.03-0.01h-0.53h-0.41c0,0.27,0,0.54-0.01,0.81s-0.01,0.52-0.01,0.76h0.38
				h0.39c0.42,0,0.8,0,1.13,0l0.53-0.01v0.5h-0.59c-0.38,0-0.72,0-1.03,0h-0.41h-0.4c0,0.45,0,0.81,0,1.08c0,0.27,0,0.49,0.01,0.67
				c0.14,0,0.31,0,0.51,0.01h0.65c0.36,0,0.66,0,0.9,0h0.41L261.94,358.09z"/>
			<path class="st0" d="M269.19,358.03l-0.58,0.11l-0.74-4.03l0,0c-0.09,0.19-0.3,0.64-0.62,1.35c-0.32,0.71-0.63,1.41-0.94,2.13
				h-0.5c-0.28-0.66-0.6-1.37-0.94-2.13c-0.34-0.76-0.55-1.21-0.61-1.34h-0.01c-0.01,0.06-0.11,0.52-0.29,1.37
				c-0.18,0.85-0.35,1.74-0.51,2.65l-0.55-0.1c0.24-1.03,0.46-2.05,0.67-3.06c0.21-1.01,0.32-1.56,0.34-1.65l0.57-0.08l0.51,1.16
				c0.31,0.71,0.68,1.54,1.11,2.47h0.02c0.33-0.73,0.67-1.51,1.03-2.34c0.36-0.83,0.55-1.26,0.57-1.29l0.54,0.04
				c0.01,0.05,0.11,0.58,0.3,1.57C268.74,355.86,268.96,356.91,269.19,358.03z"/>
			<path class="st0" d="M274.68,355.7c0,0.37-0.06,0.73-0.2,1.07c-0.12,0.3-0.29,0.57-0.52,0.8c-0.42,0.44-1,0.68-1.61,0.67
				c-0.29,0-0.57-0.05-0.84-0.15c-0.26-0.1-0.51-0.26-0.71-0.45c-0.24-0.23-0.44-0.51-0.57-0.82c-0.15-0.35-0.22-0.73-0.21-1.12
				c0-0.34,0.05-0.68,0.17-1.01c0.11-0.3,0.28-0.58,0.51-0.82c0.21-0.22,0.46-0.4,0.74-0.52c0.58-0.24,1.22-0.25,1.8-0.01
				c0.27,0.11,0.51,0.28,0.71,0.48c0.24,0.24,0.42,0.53,0.53,0.84C274.61,355,274.68,355.35,274.68,355.7z M274.07,355.76
				c0-0.31-0.05-0.62-0.16-0.92c-0.1-0.29-0.26-0.55-0.48-0.76c-0.14-0.14-0.3-0.24-0.48-0.32c-0.19-0.08-0.39-0.12-0.6-0.11
				c-0.42-0.01-0.82,0.16-1.11,0.46c-0.2,0.2-0.35,0.44-0.45,0.71c-0.21,0.58-0.21,1.23,0,1.81c0.1,0.26,0.26,0.5,0.46,0.69
				c0.14,0.13,0.3,0.24,0.48,0.32c0.38,0.16,0.81,0.16,1.2,0c0.19-0.08,0.36-0.2,0.51-0.34c0.19-0.19,0.34-0.41,0.44-0.66
				C274.01,356.36,274.07,356.06,274.07,355.76L274.07,355.76z"/>
			<path class="st0" d="M279.76,357.81l-0.45,0.37c-0.05-0.06-0.24-0.26-0.56-0.62c-0.32-0.36-0.81-0.92-1.48-1.69v-0.03
				c0.13-0.04,0.25-0.09,0.36-0.16c0.14-0.07,0.26-0.16,0.38-0.26c0.09-0.09,0.17-0.19,0.23-0.3c0.07-0.15,0.11-0.32,0.1-0.48
				c0-0.17-0.05-0.34-0.15-0.48c-0.1-0.14-0.24-0.24-0.4-0.29c-0.14-0.05-0.29-0.08-0.44-0.09c-0.15-0.01-0.29-0.02-0.42-0.02h-0.2
				h-0.1c0,0.45-0.01,0.85-0.01,1.2c0,0.35,0,0.6,0,0.74c0,0.33,0,0.77,0.01,1.34c0,0.56,0.01,0.92,0.01,1.06h-0.59
				c0-0.14,0-0.42,0.01-0.83c0.01-0.41,0.01-0.93,0.01-1.54v-0.66c0-0.32-0.01-0.91-0.02-1.77l0.36-0.01c0.22,0,0.41-0.01,0.6-0.01
				c0.2,0,0.4,0.01,0.6,0.04c0.2,0.02,0.39,0.08,0.57,0.15c0.23,0.09,0.42,0.24,0.57,0.44c0.14,0.2,0.22,0.44,0.21,0.69
				c0.01,0.31-0.1,0.62-0.31,0.85c-0.17,0.2-0.37,0.36-0.59,0.5v0.02c0.33,0.38,0.69,0.78,1.08,1.19
				C279.52,357.56,279.73,357.78,279.76,357.81z"/>
			<path class="st0" d="M281.38,358.1h-0.59c0-0.14,0.01-0.4,0.01-0.77c0-0.37,0.01-0.9,0.01-1.58c0-0.27,0-0.63,0-1.07
				c0-0.44-0.01-0.9-0.01-1.38h0.59c0,0.34-0.01,0.74-0.01,1.19c0,0.45-0.01,0.82-0.01,1.11c0,0.73,0,1.29,0.01,1.69
				S281.38,357.96,281.38,358.1z"/>
			<path class="st0" d="M287.13,357.91l-0.56,0.29c-0.01-0.03-0.09-0.2-0.23-0.53s-0.33-0.76-0.57-1.27h-2.13
				c-0.25,0.56-0.45,0.99-0.58,1.3s-0.21,0.48-0.23,0.51l-0.48-0.26c0.06-0.12,0.32-0.67,0.77-1.64c0.45-0.97,0.92-1.99,1.41-3.06
				H285c0.48,1.07,0.95,2.11,1.41,3.11C286.87,357.35,287.11,357.87,287.13,357.91z M285.57,355.93c-0.13-0.29-0.26-0.6-0.4-0.92
				c-0.14-0.32-0.29-0.65-0.44-1h-0.01c-0.12,0.26-0.27,0.59-0.44,0.97s-0.31,0.7-0.42,0.94l0,0L285.57,355.93L285.57,355.93z"/>
			<path class="st27" d="M283.24,325.59c-1.44-0.64-2.97,0.62-3.8,2.44c-0.9,1.97-0.89,4.68-2.15,6.85
				c-0.93,1.79-2.49,2.72-3.82,2.19c-1.33-0.53-1.53-1.93-1.06-3.99c2.15-7.35,5.36-7.91,7.27-13.08c0.42-1.7-0.1-3.84-1.7-4.34
				c-1.86-0.58-3.5,1.03-4.56,2.81c-1.89,3.61-0.29,6.93-1.84,11.53c-0.44,1.85-1.66,3.29-3.08,3.05c-1.43-0.24-2.11-1.13-2.33-3.44
				c-0.47-3.44-1-7.34-1.17-8.6c-0.27-2.1-1.85-3.64-3.53-3.44c-1.68,0.2-2.74,2.07-2.72,4.15c0.11,1.2,0.37,1.99,0.86,2.83
				c2.26,3.43,4.98,4.72,7.14,10.74c0.76,2.03,0.56,3.79-0.75,4.44c-1.31,0.65-3.07,0.04-3.86-1.87c-0.98-2.35-2.29-4.1-4.28-5.02
				c-1.23-0.66-2.85-0.72-3.48,0.02c-0.63,0.74-0.17,2.2,0.43,2.94c1.49,1.86,3.39,1.86,5.56,3.05c1.2,0.66,3.05,1.7,4.49,3.54
				c2.43-4.01,6.69-4.77,10.08-2.08c-3.92-2.15-7.16-1.51-10.07,2.09c0.37,0.48,0.7,0.99,0.98,1.53c1.29,2.94,1.34,4.18,4.75,4.18
				c5.04,0,3.2-4.68,5.43-8.66c2.4-4.68,3.27-4.63,6.33-7.31c0.7-0.61,1.55-1.22,1.99-2.52
				C284.99,327.76,284.43,326.12,283.24,325.59z M273.93,322.03c0.88,0.42,1.74,0.15,2.2,0.01c0.79-0.25,1.47-0.74,1.96-1.41
				c0.95-1.36,0.92-3.48-0.06-4.03c-0.47-0.26-1.04-0.1-1.21-0.05c-0.87,0.25-1.36,1.07-1.46,1.76c-0.11,0.75,0.21,1.76,0.81,1.87
				c0.47,0.08,1.04-0.37,1.19-0.97c0.14-0.57-0.15-1.18-0.73-1.51c0.62,0.34,0.97,0.97,0.88,1.58c-0.08,0.58-0.52,1.22-1.21,1.23
				c-0.82,0.01-1.29-0.89-1.38-1.6c-0.06-1.1,0.52-2.14,1.48-2.67c0.26-0.14,1.01-0.39,1.59-0.16c0.81,0.31,1.12,1.31,1.2,1.78
				c0.05,0.29,0.18,1.97-1.04,3.3c-0.68,0.71-1.58,1.17-2.55,1.29c-0.46,0.05-1.16,0.13-1.83-0.27c-0.86-0.51-1.05-1.42-1.08-1.61
				C272.88,321.2,273.34,321.73,273.93,322.03L273.93,322.03z M264.47,322.01c-0.12,0.95-0.58,1.82-1.3,2.44
				c-0.35,0.3-0.87,0.74-1.66,0.78c-1.01,0.05-1.72-0.59-1.86-0.72c0.17,0.13,0.93,0.65,1.92,0.51c0.97-0.14,1.51-0.83,1.8-1.19
				c0.49-0.63,0.76-1.42,0.74-2.22c-0.06-1.63-1.37-3.35-2.5-3.26c-0.54,0.04-0.91,0.49-1.02,0.63c-0.56,0.68-0.46,1.62-0.12,2.24
				c0.37,0.68,1.24,1.32,1.8,1.08c0.43-0.19,0.63-0.87,0.38-1.44c-0.23-0.54-0.85-0.88-1.52-0.83c0.71-0.07,1.38,0.26,1.68,0.81
				c0.28,0.52,0.32,1.28-0.24,1.67c-0.66,0.46-1.59-0.03-2.1-0.55c-0.76-0.94-0.85-2.13-0.42-2.99c0.13-0.26,0.59-0.87,1.2-1
				c0.85-0.19,1.71,0.45,2.06,0.79C263.53,318.96,264.65,320.26,264.47,322.01L264.47,322.01z M259.07,335.72
				c-0.03,0.32-0.07,0.8-0.47,1.22c-0.51,0.53-1.22,0.56-1.36,0.56c0.16-0.02,0.84-0.13,1.29-0.7c0.45-0.56,0.37-1.17,0.33-1.5
				c-0.07-0.57-0.35-1.1-0.78-1.49c-0.89-0.79-2.49-1.02-3.04-0.4c-0.27,0.29-0.23,0.7-0.21,0.82c0.06,0.62,0.61,1.04,1.11,1.19
				c0.55,0.16,1.36,0.05,1.52-0.35c0.13-0.31-0.13-0.75-0.56-0.92c-0.44-0.15-0.93-0.02-1.24,0.33c0.32-0.38,0.83-0.54,1.32-0.42
				c0.43,0.12,0.84,0.49,0.75,0.96c-0.11,0.56-0.86,0.78-1.4,0.76c-0.9-0.09-1.58-0.65-1.8-1.3c-0.07-0.19-0.15-0.73,0.11-1.1
				c0.35-0.52,1.15-0.62,1.51-0.62c0.23,0,1.51,0.1,2.33,1.07C258.91,334.37,259.12,335.04,259.07,335.72L259.07,335.72z
				 M272.33,347.77c0.19-0.2,0.86-0.95,0.84-2.03c0-0.12-0.05-1.6-1.27-2.27c-0.19-0.1-0.88-0.48-1.6-0.23
				c-0.82,0.29-1.3,1.26-1.08,2.07c0.21,0.78,0.99,1.61,1.75,1.33c0.4-0.17,0.64-0.59,0.59-1.02c-0.07-0.53-0.64-0.97-1.34-0.94
				c0.6-0.15,1.22,0.11,1.48,0.59c0.21,0.43,0.13,0.94-0.19,1.28c-0.44,0.49-1.13,0.41-1.22,0.39c-0.82-0.11-1.32-0.9-1.48-1.51
				c-0.24-0.94,0.21-2.14,1.22-2.53c0.89-0.35,1.76,0.11,1.96,0.21c1,0.52,1.27,1.5,1.34,1.76
				C273.72,346.46,272.42,347.69,272.33,347.77z M266.45,345.32c0.21-4.9,5.17-5.89,8.3-2.98
				C270.7,339.62,267.08,341.38,266.45,345.32L266.45,345.32z M283.14,330.01c-0.43,0.62-1.07,1.06-1.8,1.25
				c-0.35,0.09-0.87,0.22-1.43-0.02c-0.48-0.21-0.85-0.62-1.02-1.11c0.23,0.47,0.64,0.82,1.13,0.99c0.72,0.23,1.35-0.07,1.68-0.23
				c0.57-0.27,1.04-0.72,1.33-1.28c0.57-1.14,0.3-2.76-0.51-3.08c-0.39-0.15-0.81,0.04-0.93,0.09c-0.64,0.28-0.92,0.96-0.91,1.5
				c0,0.59,0.36,1.32,0.84,1.34c0.37,0.01,0.76-0.39,0.79-0.86c0.04-0.45-0.26-0.89-0.74-1.08c0.52,0.19,0.85,0.64,0.85,1.12
				c0,0.45-0.25,0.99-0.78,1.07c-0.62,0.1-1.09-0.55-1.24-1.08c-0.17-0.83,0.15-1.69,0.82-2.2c0.18-0.13,0.72-0.4,1.2-0.29
				c0.66,0.15,1.01,0.88,1.12,1.23C283.63,327.6,283.92,328.87,283.14,330.01z"/>
		</g>
	</g>
	
		<circle style="clip-path:url(#SVGID_00000170986197655929619540000012194449489079180162_);fill:none;" cx="198.04" cy="196.84" r="195.84"/>
	<path style="clip-path:url(#SVGID_00000170986197655929619540000012194449489079180162_);fill:#120B0B;" d="M237.14,153.04l4.16-2
		c-4.7-0.09-6.77-1.26-9.15-2C232.15,149.05,236.09,152.09,237.14,153.04z"/>
	<path style="clip-path:url(#SVGID_00000170986197655929619540000012194449489079180162_);fill:#120B0B;" d="M143.42,153.07l-4.16-2
		c4.7-0.09,6.77-1.26,9.15-2C148.41,149.08,144.47,152.12,143.42,153.07z"/>
</g>
</svg>
