<?xml version="1.0" encoding="utf-8"?>
<!-- Generator: Adobe Illustrator 26.0.0, SVG Export Plug-In . SVG Version: 6.00 Build 0)  -->
<svg version="1.1" id="Capa_1" xmlns="http://www.w3.org/2000/svg" xmlns:xlink="http://www.w3.org/1999/xlink" x="0px" y="0px"
	 viewBox="0 0 396.85 396.85" style="enable-background:new 0 0 396.85 396.85;" xml:space="preserve">
<style type="text/css">
	.st0{fill:#6C4D2F;}
	.st1{clip-path:url(#SVGID_00000039832744035811912650000004449240547080156076_);fill:#494A24;}
	.st2{clip-path:url(#SVGID_00000039832744035811912650000004449240547080156076_);fill:#513B23;}
	.st3{clip-path:url(#SVGID_00000039832744035811912650000004449240547080156076_);fill:#E0A988;}
	.st4{clip-path:url(#SVGID_00000039832744035811912650000004449240547080156076_);fill:#D69F83;}
	.st5{clip-path:url(#SVGID_00000039832744035811912650000004449240547080156076_);fill:#F7EEDF;}
	.st6{clip-path:url(#SVGID_00000039832744035811912650000004449240547080156076_);fill:#AF806D;}
	.st7{clip-path:url(#SVGID_00000039832744035811912650000004449240547080156076_);fill:#BF8A79;}
	.st8{clip-path:url(#SVGID_00000039832744035811912650000004449240547080156076_);}
	.st9{fill:#513B23;}
	.st10{fill:#43301E;}
	.st11{clip-path:url(#SVGID_00000039832744035811912650000004449240547080156076_);fill:#EDEDED;}
	.st12{opacity:0.6;clip-path:url(#SVGID_00000039832744035811912650000004449240547080156076_);}
	.st13{fill:#99715E;}
	.st14{opacity:0.42;clip-path:url(#SVGID_00000039832744035811912650000004449240547080156076_);}
	.st15{clip-path:url(#SVGID_00000039832744035811912650000004449240547080156076_);fill:#200C0E;}
	.st16{clip-path:url(#SVGID_00000039832744035811912650000004449240547080156076_);fill:none;stroke:#99715E;stroke-miterlimit:10;}
	.st17{fill:#010202;}
	.st18{opacity:0.34;clip-path:url(#SVGID_00000039832744035811912650000004449240547080156076_);}
	.st19{fill:#FFFFFF;}
	.st20{fill:#A07365;}
	.st21{opacity:0.39;clip-path:url(#SVGID_00000039832744035811912650000004449240547080156076_);}
	.st22{fill:#F2F2F2;}
	.st23{opacity:0.43;}
	.st24{fill:#C6C6C6;}
	.st25{fill:#494A24;}
	.st26{fill:#9F9F35;}
</style>
<g>
	<g>
		<g>
			<path class="st0" d="M145.29,69.48c-0.03-0.02,0.29-0.48,0.91-1.29c0.31-0.41,0.69-0.9,1.18-1.44c0.48-0.54,1-1.18,1.65-1.83
				c1.25-1.33,2.85-2.82,4.71-4.35c1.89-1.51,4.06-3.05,6.46-4.48c2.41-1.4,4.82-2.54,7.06-3.45c2.25-0.88,4.32-1.55,6.1-1.99
				c0.88-0.25,1.69-0.4,2.4-0.55c0.71-0.16,1.32-0.26,1.83-0.32c1.01-0.15,1.57-0.21,1.58-0.17c0.01,0.04-0.54,0.18-1.53,0.39
				c-0.5,0.1-1.1,0.23-1.8,0.42c-0.7,0.18-1.5,0.35-2.36,0.63c-1.75,0.49-3.79,1.19-6,2.09c-2.2,0.93-4.58,2.07-6.97,3.46
				c-2.38,1.41-4.53,2.92-6.42,4.39c-1.87,1.5-3.48,2.93-4.75,4.22c-0.66,0.62-1.2,1.24-1.7,1.76c-0.5,0.52-0.91,0.98-1.24,1.37
				C145.71,69.09,145.32,69.5,145.29,69.48z"/>
		</g>
	</g>
</g>
<g>
	<g>
		<g>
			<path class="st0" d="M202.25,61.79c-0.15,0.04-0.57-1.07-0.61-2.51c-0.05-1.44,0.3-2.58,0.45-2.55c0.16,0.03,0.08,1.15,0.13,2.53
				C202.26,60.64,202.41,61.75,202.25,61.79z"/>
		</g>
	</g>
</g>
<g>
	<defs>
		<circle id="SVGID_1_" cx="196.92" cy="193.92" r="186.59"/>
	</defs>
	<clipPath id="SVGID_00000036965377264602040570000005199168172321063829_">
		<use xlink:href="#SVGID_1_"  style="overflow:visible;"/>
	</clipPath>
	
		<circle style="clip-path:url(#SVGID_00000036965377264602040570000005199168172321063829_);fill:#494A24;" cx="196.6" cy="193.84" r="186.59"/>
	<path style="clip-path:url(#SVGID_00000036965377264602040570000005199168172321063829_);fill:#513B23;" d="M317.89,291.61
		c-10.53-8.23-39.05-42.78-38.84-89.85c0.2-43.4-28.11-167.59-76.36-146.47c0,0-43.85-35.42-84.26,52
		c-13.85,26.02-11.35,149.13-42.15,174.9L317.89,291.61z"/>
	<path style="clip-path:url(#SVGID_00000036965377264602040570000005199168172321063829_);fill:#E0A988;" d="M236.95,261.77
		c-1.74,0.01-4-33.96-1.67-44.16l-83.77,6.37c2.33,10.19,3.16,37.54,1.42,37.53C154.13,283.14,221.03,301.42,236.95,261.77z"/>
	<path style="clip-path:url(#SVGID_00000036965377264602040570000005199168172321063829_);fill:#D69F83;" d="M235.26,218.42
		c-0.05,0.02-19.61,43.35-38.33,43.35h-9.16c-19.4-0.26-36.26-36.1-36.26-36.1"/>
	<path style="clip-path:url(#SVGID_00000036965377264602040570000005199168172321063829_);fill:#E0A988;" d="M247.98,112.65
		c3.76,39.37,5.28,53.64,1.15,70.27c-4.52,16.93-4.22,27.12-26.11,49.96c0,0-10.83,17.88-25.66,17.86c-2.65,0.01-5.31,0.02-7.13,0
		c-15.78,0.01-31.7-17.86-31.7-17.86c-22.85-21.93-21.59-33.03-26.11-49.96c-4.13-16.63-2.61-30.9,1.15-70.27
		c6.61-38.05,36.42-49.7,53.06-49.5C216.22,61.57,240.32,71.24,247.98,112.65z"/>
	<path style="clip-path:url(#SVGID_00000036965377264602040570000005199168172321063829_);fill:#513B23;" d="M201.26,63.15
		c-11.69,5.4-46.37,3.21-65.67,55.61c-1.41,3.83-3.54,8.36-3.8,12.43l-1.83,44.7C130.93,177.28,106.3,29.14,201.26,63.15z"/>
	<path style="clip-path:url(#SVGID_00000036965377264602040570000005199168172321063829_);fill:#513B23;" d="M201.26,63.15
		c-1.09,3.89,56.38,19.21,49.1,122.71C250.36,185.86,272.71,61.97,201.26,63.15z"/>
	<path style="clip-path:url(#SVGID_00000036965377264602040570000005199168172321063829_);fill:#F7EEDF;" d="M161.54,204.26
		c0,0,14.26,13.43,27.81,12.89c12.92-0.51,23.82-8.74,28.31-12.79c-0.99,1.84-26.41,4.01-28.36,3.53
		C187.2,207.37,161.65,205.31,161.54,204.26z"/>
	<path style="clip-path:url(#SVGID_00000036965377264602040570000005199168172321063829_);fill:#AF806D;" d="M189.69,211.64
		c-2.78,0.01-6.17-1.01-8.28-1.76c-1.31-0.46-2.68-0.75-4.06-0.87c-6.45-0.59-12.36-3.73-15.8-4.75c1.8,0.82,14.6-0.8,22.03,1.12
		c0,0,1,0.27,2.24,0.56c2.55,0.6,5.21,0.6,7.75,0c1.24-0.29,2.24-0.56,2.24-0.56c7.21-1.89,19.33-0.05,21.86-1.01
		c-3.24,1.01-9.15,4.07-15.59,4.65c-1.41,0.13-2.79,0.41-4.13,0.89C195.85,210.64,192.49,211.64,189.69,211.64z"/>
	<path style="clip-path:url(#SVGID_00000036965377264602040570000005199168172321063829_);fill:#BF8A79;" d="M189.69,223.39
		c18.84,0,25.01-16.64,28.78-19.74c-12.49,11.25-25.12,12.09-28.78,12.09c-3.37,0-15.84-0.76-28.78-12.09
		C164.53,206.57,172.37,223.42,189.69,223.39z"/>
	<g style="clip-path:url(#SVGID_00000036965377264602040570000005199168172321063829_);">
		<path class="st9" d="M244.18,127.71c0.76-0.11-9.3-14.13-13.52-14.8c-3.09-0.49-21.01,2.79-24.13,5.6s-4.16,9.2-4.16,9.2
			C205.8,128.38,234.92,117.58,244.18,127.71z"/>
	</g>
	<g style="clip-path:url(#SVGID_00000036965377264602040570000005199168172321063829_);">
		<g>
			<g>
				<path class="st10" d="M203.14,119.2c0.04,0.02-0.18,0.47-0.47,1.24c-0.3,0.76-0.68,1.82-1.05,3.01
					c-0.37,1.19-0.67,2.28-0.76,3.07c-0.11,0.81,0.06,1.28,0.03,1.3c-0.04,0.03-0.3-0.47-0.24-1.31c0.05-0.84,0.32-1.95,0.69-3.15
					C202.07,120.95,203.04,119.14,203.14,119.2z"/>
			</g>
		</g>
	</g>
	<g style="clip-path:url(#SVGID_00000036965377264602040570000005199168172321063829_);">
		<g>
			<g>
				<path class="st10" d="M203.14,117.8c0.04,0.03-0.28,0.52-0.77,1.31c-0.48,0.8-1.16,1.91-1.63,3.25
					c-0.46,1.34-0.59,2.63-0.66,3.56c-0.06,0.93-0.06,1.52-0.11,1.52c-0.03,0-0.1-0.58-0.1-1.53c0.01-0.94,0.11-2.27,0.59-3.65
					c0.48-1.38,1.2-2.49,1.73-3.27C202.73,118.23,203.11,117.78,203.14,117.8z"/>
			</g>
		</g>
	</g>
	<g style="clip-path:url(#SVGID_00000036965377264602040570000005199168172321063829_);">
		<g>
			<g>
				<path class="st10" d="M204.34,120.3c0.04,0.03-0.21,0.4-0.53,1.05c-0.33,0.64-0.75,1.56-1.15,2.58c-0.4,1.03-0.72,1.98-0.9,2.68
					c-0.19,0.7-0.25,1.14-0.29,1.14c-0.12,0,0.07-1.85,0.92-3.93C203.18,121.73,204.26,120.23,204.34,120.3z"/>
			</g>
		</g>
	</g>
	<g style="clip-path:url(#SVGID_00000036965377264602040570000005199168172321063829_);">
		<g>
			<g>
				<path class="st10" d="M198.75,123.95c0.08-0.01,0.31,0.8,0.51,1.82c0.2,1.02,0.3,1.86,0.23,1.88c-0.08,0.02-0.31-0.8-0.51-1.82
					C198.77,124.8,198.67,123.96,198.75,123.95z"/>
			</g>
		</g>
	</g>
	<g style="clip-path:url(#SVGID_00000036965377264602040570000005199168172321063829_);">
		<g>
			<g>
				<path class="st10" d="M206.56,119.18c0.03,0.03-0.27,0.45-0.72,1.16c-0.45,0.71-1.04,1.71-1.59,2.86
					c-0.55,1.16-0.95,2.24-1.21,3.04c-0.26,0.8-0.4,1.3-0.45,1.29c-0.04-0.01,0.04-0.53,0.25-1.35c0.21-0.82,0.59-1.94,1.15-3.11
					c0.56-1.17,1.19-2.17,1.69-2.85C206.18,119.55,206.54,119.16,206.56,119.18z"/>
			</g>
		</g>
	</g>
	<g style="clip-path:url(#SVGID_00000036965377264602040570000005199168172321063829_);">
		<g>
			<g>
				<path class="st10" d="M210.59,119.09c0.03,0.04-0.49,0.41-1.29,1.07c-0.8,0.65-1.85,1.61-2.9,2.78
					c-1.05,1.17-1.88,2.33-2.44,3.19c-0.56,0.86-0.88,1.42-0.92,1.4c-0.03-0.02,0.22-0.61,0.75-1.51c0.52-0.9,1.34-2.09,2.4-3.28
					c1.06-1.18,2.16-2.13,2.99-2.75C210.01,119.38,210.58,119.06,210.59,119.09z"/>
			</g>
		</g>
	</g>
	<g style="clip-path:url(#SVGID_00000036965377264602040570000005199168172321063829_);">
		<g>
			<g>
				<path class="st10" d="M215.54,119.32c0.02,0.04-0.71,0.37-1.84,0.97c-1.14,0.59-2.67,1.48-4.27,2.62
					c-1.59,1.14-2.93,2.3-3.86,3.19c-0.93,0.88-1.48,1.46-1.51,1.43c-0.01-0.01,0.11-0.17,0.34-0.45c0.23-0.28,0.58-0.67,1.03-1.13
					c0.9-0.93,2.23-2.13,3.84-3.28c1.61-1.15,3.18-2.01,4.34-2.57c0.58-0.28,1.06-0.48,1.4-0.61
					C215.34,119.37,215.53,119.3,215.54,119.32z"/>
			</g>
		</g>
	</g>
	<g style="clip-path:url(#SVGID_00000036965377264602040570000005199168172321063829_);">
		<g>
			<g>
				<path class="st10" d="M210.76,117.39c0.05,0.08-1.43,0.95-2.96,2.38c-1.54,1.42-2.52,2.83-2.59,2.78
					c-0.03-0.02,0.18-0.4,0.58-0.96c0.41-0.56,1.03-1.3,1.81-2.03c0.78-0.72,1.56-1.29,2.15-1.66
					C210.35,117.53,210.75,117.36,210.76,117.39z"/>
			</g>
		</g>
	</g>
	<g style="clip-path:url(#SVGID_00000036965377264602040570000005199168172321063829_);">
		<g>
			<g>
				<path class="st10" d="M216.01,117.25c0.02,0.04-0.53,0.27-1.37,0.71c-0.84,0.44-1.95,1.14-3.11,2.01
					c-2.29,1.78-4.01,3.41-4.08,3.33c-0.03-0.03,0.38-0.46,1.07-1.12c0.69-0.66,1.67-1.56,2.83-2.44c1.17-0.89,2.32-1.57,3.19-1.97
					C215.42,117.38,216,117.22,216.01,117.25z"/>
			</g>
		</g>
	</g>
	<g style="clip-path:url(#SVGID_00000036965377264602040570000005199168172321063829_);">
		<g>
			<g>
				<path class="st10" d="M217.22,116.06c0.01,0.09-1.36,0.32-2.95,0.94c-1.6,0.61-2.77,1.36-2.82,1.28
					c-0.05-0.06,1.08-0.93,2.72-1.56C215.79,116.1,217.22,115.99,217.22,116.06z"/>
			</g>
		</g>
	</g>
	<g style="clip-path:url(#SVGID_00000036965377264602040570000005199168172321063829_);">
		<g>
			<g>
				<path class="st10" d="M217.8,120.6c0.01,0.04-0.65,0.31-1.72,0.78c-1.07,0.46-2.53,1.13-4.1,1.96
					c-1.57,0.83-2.95,1.65-3.94,2.27c-0.99,0.62-1.59,1.02-1.62,0.98c-0.01-0.02,0.12-0.14,0.38-0.34c0.26-0.2,0.64-0.48,1.12-0.81
					c0.96-0.67,2.34-1.53,3.92-2.36c1.58-0.83,3.07-1.48,4.16-1.89c0.55-0.21,0.99-0.37,1.31-0.46
					C217.61,120.63,217.79,120.58,217.8,120.6z"/>
			</g>
		</g>
	</g>
	<g style="clip-path:url(#SVGID_00000036965377264602040570000005199168172321063829_);">
		<g>
			<g>
				<path class="st10" d="M220.83,118.23c0.01,0.04-0.52,0.21-1.37,0.5c-0.85,0.29-2.02,0.71-3.27,1.25
					c-1.26,0.54-2.36,1.1-3.15,1.52c-0.79,0.42-1.28,0.69-1.3,0.66c-0.02-0.03,0.43-0.37,1.2-0.84c0.77-0.47,1.87-1.06,3.14-1.61
					c1.27-0.55,2.45-0.94,3.33-1.18C220.27,118.29,220.82,118.19,220.83,118.23z"/>
			</g>
		</g>
	</g>
	<g style="clip-path:url(#SVGID_00000036965377264602040570000005199168172321063829_);">
		<g>
			<g>
				<path class="st10" d="M219.21,116.85c0.03,0.09-1.19,0.54-2.66,1.18c-1.47,0.63-2.52,1.38-2.57,1.32
					c-0.06-0.06,0.96-0.94,2.46-1.58C217.92,117.11,219.18,116.78,219.21,116.85z"/>
			</g>
		</g>
	</g>
	<g style="clip-path:url(#SVGID_00000036965377264602040570000005199168172321063829_);">
		<g>
			<g>
				<path class="st10" d="M224.16,114.67c0.01,0.09-1.45,0.2-3.17,0.65c-1.73,0.44-3.06,1.04-3.09,0.96
					c-0.04-0.06,1.26-0.79,3.02-1.24C222.68,114.58,224.17,114.6,224.16,114.67z"/>
			</g>
		</g>
	</g>
	<g style="clip-path:url(#SVGID_00000036965377264602040570000005199168172321063829_);">
		<g>
			<g>
				<path class="st10" d="M222.93,116.62c0.02,0.08-1.33,0.41-2.93,1.01c-1.6,0.59-2.84,1.22-2.89,1.14
					c-0.04-0.06,1.16-0.82,2.78-1.42C221.52,116.75,222.92,116.55,222.93,116.62z"/>
			</g>
		</g>
	</g>
	<g style="clip-path:url(#SVGID_00000036965377264602040570000005199168172321063829_);">
		<g>
			<g>
				<path class="st10" d="M223.15,114.13c0.01,0.08-1.13,0.22-2.48,0.56c-1.36,0.33-2.43,0.72-2.46,0.65
					c-0.03-0.07,1.01-0.59,2.39-0.93C221.99,114.06,223.15,114.05,223.15,114.13z"/>
			</g>
		</g>
	</g>
	<g style="clip-path:url(#SVGID_00000036965377264602040570000005199168172321063829_);">
		<g>
			<g>
				<path class="st10" d="M214.21,116.1c0.03,0.08-1.01,0.46-2.17,1.15c-1.16,0.68-2,1.41-2.06,1.34c-0.05-0.05,0.71-0.89,1.91-1.59
					C213.09,116.29,214.19,116.03,214.21,116.1z"/>
			</g>
		</g>
	</g>
	<g style="clip-path:url(#SVGID_00000036965377264602040570000005199168172321063829_);">
		<g>
			<g>
				<path class="st10" d="M212.47,123.79c0.04,0.08-0.97,0.59-2.11,1.36c-1.15,0.77-2,1.5-2.05,1.44c-0.05-0.05,0.72-0.9,1.89-1.68
					C211.36,124.12,212.44,123.72,212.47,123.79z"/>
			</g>
		</g>
	</g>
	<g style="clip-path:url(#SVGID_00000036965377264602040570000005199168172321063829_);">
		<g>
			<g>
				<path class="st10" d="M218.3,121.61c0.04,0.08-1.58,0.84-3.41,2.03c-1.84,1.19-3.19,2.35-3.25,2.29
					c-0.03-0.03,0.28-0.36,0.83-0.83c0.54-0.48,1.34-1.1,2.26-1.7c0.93-0.6,1.82-1.07,2.47-1.37
					C217.86,121.72,218.29,121.57,218.3,121.61z"/>
			</g>
		</g>
	</g>
	<g style="clip-path:url(#SVGID_00000036965377264602040570000005199168172321063829_);">
		<g>
			<g>
				<path class="st10" d="M223.48,118.12c0.03,0.08-1.26,0.59-2.76,1.42c-1.5,0.82-2.62,1.64-2.67,1.57
					c-0.05-0.06,1.01-0.99,2.53-1.83C222.1,118.44,223.46,118.05,223.48,118.12z"/>
			</g>
		</g>
	</g>
	<g style="clip-path:url(#SVGID_00000036965377264602040570000005199168172321063829_);">
		<g>
			<g>
				<path class="st10" d="M221.57,120.79c0.03,0.08-1.39,0.71-2.99,1.77c-1.6,1.05-2.75,2.11-2.81,2.04
					c-0.05-0.05,1.02-1.22,2.65-2.29C220.05,121.24,221.55,120.72,221.57,120.79z"/>
			</g>
		</g>
	</g>
	<g style="clip-path:url(#SVGID_00000036965377264602040570000005199168172321063829_);">
		<g>
			<g>
				<path class="st10" d="M228.43,116.88c0.03,0.08-1.5,0.64-3.32,1.47c-1.82,0.83-3.24,1.62-3.28,1.55
					c-0.04-0.06,1.32-0.98,3.16-1.81C226.82,117.24,228.41,116.8,228.43,116.88z"/>
			</g>
		</g>
	</g>
	<g style="clip-path:url(#SVGID_00000036965377264602040570000005199168172321063829_);">
		<g>
			<g>
				<path class="st10" d="M230.1,115.9c0.01,0.09-1.91,0.24-4.2,0.81c-2.29,0.55-4.07,1.31-4.1,1.22c-0.01-0.03,0.41-0.27,1.13-0.57
					c0.72-0.3,1.74-0.66,2.9-0.94c1.16-0.28,2.23-0.44,3.01-0.5C229.62,115.85,230.1,115.86,230.1,115.9z"/>
			</g>
		</g>
	</g>
	<g style="clip-path:url(#SVGID_00000036965377264602040570000005199168172321063829_);">
		<g>
			<g>
				<path class="st10" d="M226.2,115.21c0.01,0.08-1.31,0.26-2.9,0.63c-1.59,0.36-2.85,0.79-2.88,0.71
					c-0.03-0.07,1.2-0.62,2.81-0.99C224.85,115.18,226.2,115.14,226.2,115.21z"/>
			</g>
		</g>
	</g>
	<g style="clip-path:url(#SVGID_00000036965377264602040570000005199168172321063829_);">
		<g>
			<g>
				<path class="st10" d="M229.92,114.53c-0.03,0.08-1.27-0.31-2.86-0.49c-1.59-0.19-2.89-0.09-2.9-0.18
					c-0.01-0.07,1.31-0.3,2.93-0.11C228.72,113.93,229.95,114.46,229.92,114.53z"/>
			</g>
		</g>
	</g>
	<g style="clip-path:url(#SVGID_00000036965377264602040570000005199168172321063829_);">
		<g>
			<g>
				<path class="st10" d="M229.47,115.02c-0.02,0.08-0.93-0.12-2.05-0.35c-1.11-0.24-2.03-0.28-2.04-0.36
					c-0.01-0.08,0.95-0.16,2.09,0.08C228.61,114.62,229.49,114.95,229.47,115.02z"/>
			</g>
		</g>
	</g>
	<g style="clip-path:url(#SVGID_00000036965377264602040570000005199168172321063829_);">
		<g>
			<g>
				<path class="st10" d="M233.42,114.91c-0.04,0.08-1.28-0.44-2.88-0.85c-1.6-0.42-2.94-0.57-2.94-0.66c0-0.07,1.38-0.05,3.01,0.37
					C232.25,114.19,233.46,114.84,233.42,114.91z"/>
			</g>
		</g>
	</g>
	<g style="clip-path:url(#SVGID_00000036965377264602040570000005199168172321063829_);">
		<g>
			<g>
				<path class="st10" d="M234.45,115.39c-0.06,0.07-0.77-0.53-1.66-1.23c-0.89-0.7-1.71-1.11-1.68-1.18
					c0.02-0.08,0.94,0.23,1.85,0.95C233.88,114.65,234.5,115.34,234.45,115.39z"/>
			</g>
		</g>
	</g>
	<g style="clip-path:url(#SVGID_00000036965377264602040570000005199168172321063829_);">
		<g>
			<g>
				<path class="st10" d="M236.27,117.21c-0.05,0.07-1.21-0.77-2.83-1.42c-0.81-0.33-1.57-0.55-2.12-0.69
					c-0.28-0.07-0.5-0.13-0.66-0.17c-0.15-0.06-0.19,0.04-0.18,0.03c-0.01,0-0.04-0.04-0.01-0.08c0.03-0.04,0.12-0.07,0.2-0.06
					c0.16,0.01,0.4,0.03,0.69,0.08c0.57,0.09,1.36,0.29,2.19,0.63C235.21,116.19,236.31,117.16,236.27,117.21z"/>
			</g>
		</g>
	</g>
	<g style="clip-path:url(#SVGID_00000036965377264602040570000005199168172321063829_);">
		<g>
			<g>
				<path class="st10" d="M237.82,119.06c-0.05,0.07-1.38-0.74-3.09-1.62c-0.85-0.44-1.64-0.82-2.21-1.09
					c-0.56-0.31-0.93-0.19-0.95-0.21c-0.01-0.01,0.07-0.09,0.26-0.12c0.19-0.03,0.47,0.03,0.76,0.15c0.59,0.23,1.4,0.58,2.26,1.02
					C236.59,118.07,237.87,119,237.82,119.06z"/>
			</g>
		</g>
	</g>
	<g style="clip-path:url(#SVGID_00000036965377264602040570000005199168172321063829_);">
		<g>
			<g>
				<path class="st10" d="M236.16,118.52c-0.04,0.08-1.32-0.57-3.01-1.07c-1.68-0.51-3.11-0.69-3.1-0.77c0-0.07,1.47-0.03,3.18,0.5
					C234.96,117.68,236.2,118.46,236.16,118.52z"/>
			</g>
		</g>
	</g>
	<g style="clip-path:url(#SVGID_00000036965377264602040570000005199168172321063829_);">
		<g>
			<g>
				<path class="st10" d="M231.83,117.36c0,0.09-1.37,0.16-3.01,0.52c-0.82,0.17-1.56,0.38-2.09,0.53
					c-0.26,0.08-0.47,0.14-0.62,0.18c-0.14,0.05-0.13,0.13-0.15,0.14c-0.03,0.02-0.07-0.13,0.09-0.24c0.15-0.09,0.35-0.17,0.61-0.28
					c0.52-0.21,1.26-0.45,2.09-0.62C230.44,117.23,231.83,117.29,231.83,117.36z"/>
			</g>
		</g>
	</g>
	<g style="clip-path:url(#SVGID_00000036965377264602040570000005199168172321063829_);">
		<g>
			<g>
				<path class="st10" d="M225.66,120.47c0.02,0.09-1.72,0.56-3.71,1.51c-2,0.94-3.46,2-3.52,1.92c-0.02-0.03,0.32-0.33,0.92-0.75
					c0.6-0.42,1.47-0.95,2.48-1.43c1.01-0.48,1.97-0.82,2.67-1.02C225.2,120.5,225.65,120.43,225.66,120.47z"/>
			</g>
		</g>
	</g>
	<g style="clip-path:url(#SVGID_00000036965377264602040570000005199168172321063829_);">
		<g>
			<g>
				<path class="st10" d="M229.61,118.41c0.01,0.09-1.49,0.28-3.28,0.77c-1.79,0.48-3.19,1.07-3.22,0.99
					c-0.03-0.07,1.32-0.78,3.14-1.27C228.07,118.4,229.6,118.34,229.61,118.41z"/>
			</g>
		</g>
	</g>
	<g style="clip-path:url(#SVGID_00000036965377264602040570000005199168172321063829_);">
		<g>
			<g>
				<path class="st10" d="M223.88,122.55c0.03,0.08-0.87,0.45-1.96,0.95c-1.09,0.5-1.96,0.93-2,0.86c-0.04-0.07,0.77-0.62,1.88-1.13
					C222.91,122.73,223.86,122.48,223.88,122.55z"/>
			</g>
		</g>
	</g>
	<g style="clip-path:url(#SVGID_00000036965377264602040570000005199168172321063829_);">
		<g>
			<g>
				<path class="st10" d="M233.55,119.22c0,0.04-0.53,0.1-1.39,0.22c-0.86,0.13-2.03,0.34-3.31,0.69c-1.27,0.36-2.39,0.78-3.19,1.11
					c-0.8,0.33-1.29,0.57-1.31,0.53c-0.02-0.03,0.44-0.33,1.22-0.71c0.78-0.39,1.91-0.85,3.2-1.21c1.29-0.36,2.49-0.54,3.36-0.62
					C233.01,119.16,233.55,119.18,233.55,119.22z"/>
			</g>
		</g>
	</g>
	<g style="clip-path:url(#SVGID_00000036965377264602040570000005199168172321063829_);">
		<g>
			<g>
				<path class="st10" d="M229.7,119.01c0.01,0.08-0.73,0.21-1.63,0.44c-0.9,0.22-1.61,0.45-1.64,0.37
					c-0.03-0.07,0.65-0.43,1.57-0.65C228.92,118.94,229.69,118.94,229.7,119.01z"/>
			</g>
		</g>
	</g>
	<g style="clip-path:url(#SVGID_00000036965377264602040570000005199168172321063829_);">
		<g>
			<g>
				<path class="st10" d="M227.7,121.45c0.03,0.07-0.88,0.6-2.03,1.17c-1.15,0.57-2.12,0.98-2.16,0.91s0.87-0.59,2.03-1.17
					C226.7,121.79,227.66,121.38,227.7,121.45z"/>
			</g>
		</g>
	</g>
	<g style="clip-path:url(#SVGID_00000036965377264602040570000005199168172321063829_);">
		<g>
			<g>
				<path class="st10" d="M235.47,120.14c0,0.09-1.48,0.06-3.26,0.38c-1.78,0.3-3.17,0.82-3.2,0.74c-0.03-0.06,1.33-0.72,3.15-1.03
					C233.97,119.91,235.47,120.07,235.47,120.14z"/>
			</g>
		</g>
	</g>
	<g style="clip-path:url(#SVGID_00000036965377264602040570000005199168172321063829_);">
		<g>
			<g>
				<path class="st10" d="M234.74,118.9c-0.03,0.08-0.83-0.22-1.85-0.32c-1.02-0.11-1.86,0.01-1.88-0.07
					c-0.02-0.07,0.83-0.33,1.91-0.22C234,118.4,234.78,118.84,234.74,118.9z"/>
			</g>
		</g>
	</g>
	<g style="clip-path:url(#SVGID_00000036965377264602040570000005199168172321063829_);">
		<g>
			<g>
				<path class="st10" d="M240.1,122.32c-0.06,0.06-0.94-0.72-2.07-1.62c-1.13-0.9-2.09-1.59-2.04-1.66
					c0.04-0.07,1.08,0.52,2.22,1.43C239.36,121.38,240.16,122.26,240.1,122.32z"/>
			</g>
		</g>
	</g>
	<g style="clip-path:url(#SVGID_00000036965377264602040570000005199168172321063829_);">
		<g>
			<g>
				<path class="st10" d="M234.6,121.02c0.01,0.08-1.26,0.22-2.8,0.52c-0.77,0.16-1.46,0.3-1.94,0.46
					c-0.48,0.16-0.74,0.34-0.77,0.31c-0.02-0.03,0.21-0.28,0.69-0.5c0.48-0.23,1.19-0.4,1.96-0.56
					C233.31,120.94,234.6,120.94,234.6,121.02z"/>
			</g>
		</g>
	</g>
	<g style="clip-path:url(#SVGID_00000036965377264602040570000005199168172321063829_);">
		<g>
			<g>
				<path class="st10" d="M238.92,121.87c-0.04,0.07-0.62-0.18-1.35-0.43c-0.73-0.25-1.34-0.41-1.33-0.49
					c0.01-0.08,0.67-0.04,1.42,0.22C238.42,121.42,238.96,121.8,238.92,121.87z"/>
			</g>
		</g>
	</g>
	<g style="clip-path:url(#SVGID_00000036965377264602040570000005199168172321063829_);">
		<g>
			<g>
				<path class="st10" d="M242.39,125.34c-0.05,0.06-0.56-0.28-1.13-0.76c-0.57-0.48-0.99-0.92-0.94-0.98
					c0.05-0.06,0.56,0.28,1.13,0.76C242.02,124.84,242.44,125.28,242.39,125.34z"/>
			</g>
		</g>
	</g>
	<g style="clip-path:url(#SVGID_00000036965377264602040570000005199168172321063829_);">
		<g>
			<g>
				<path class="st10" d="M242.77,125.33c-0.07,0.05-0.55-0.54-1.13-1.26c-0.58-0.72-1.06-1.32-1-1.37
					c0.06-0.05,0.63,0.46,1.22,1.19C242.45,124.61,242.83,125.28,242.77,125.33z"/>
			</g>
		</g>
	</g>
	<g style="clip-path:url(#SVGID_00000036965377264602040570000005199168172321063829_);">
		<g>
			<g>
				<path class="st10" d="M244.05,127.27c-0.05,0.06-0.38-0.16-0.74-0.48c-0.35-0.33-0.59-0.64-0.54-0.7
					c0.05-0.06,0.38,0.16,0.74,0.48C243.86,126.9,244.1,127.21,244.05,127.27z"/>
			</g>
		</g>
	</g>
	<g style="clip-path:url(#SVGID_00000036965377264602040570000005199168172321063829_);">
		<g>
			<g>
				<path class="st10" d="M240.51,124.96c-0.05,0.07-0.87-0.43-2.02-0.74c-1.14-0.32-2.09-0.53-2.08-0.62
					c0.01-0.07,0.99,0.01,2.16,0.34C239.76,124.27,240.56,124.9,240.51,124.96z"/>
			</g>
		</g>
	</g>
	<g style="clip-path:url(#SVGID_00000036965377264602040570000005199168172321063829_);">
		<g>
			<g>
				<path class="st10" d="M240.38,123.55c-0.02,0.09-1.84-0.38-4.13-0.42c-2.29-0.06-4.13,0.34-4.14,0.25
					c-0.01-0.04,0.44-0.18,1.19-0.32c0.75-0.14,1.8-0.25,2.96-0.23c1.16,0.03,2.21,0.18,2.95,0.35
					C239.95,123.35,240.39,123.51,240.38,123.55z"/>
			</g>
		</g>
	</g>
	<g style="clip-path:url(#SVGID_00000036965377264602040570000005199168172321063829_);">
		<g>
			<g>
				<path class="st10" d="M236.87,122.14c0,0.09-1.64,0.15-3.62,0.49c-1.98,0.33-3.55,0.81-3.58,0.72
					c-0.03-0.07,1.52-0.68,3.53-1.01C235.22,121.99,236.88,122.06,236.87,122.14z"/>
			</g>
		</g>
	</g>
	<g style="clip-path:url(#SVGID_00000036965377264602040570000005199168172321063829_);">
		<g>
			<g>
				<path class="st10" d="M228.92,121.9c0.04,0.07-0.53,0.44-1.26,0.81c-0.36,0.19-0.72,0.33-0.93,0.46
					c-0.22,0.12-0.31,0.26-0.35,0.24c-0.04-0.01,0-0.21,0.23-0.4c0.22-0.19,0.56-0.36,0.92-0.55
					C228.26,122.08,228.88,121.83,228.92,121.9z"/>
			</g>
		</g>
	</g>
	<g style="clip-path:url(#SVGID_00000036965377264602040570000005199168172321063829_);">
		<g>
			<g>
				<path class="st10" d="M232.2,122.1c0.02,0.08-0.6,0.33-1.37,0.56c-0.77,0.23-1.43,0.35-1.45,0.28
					c-0.03-0.07,0.59-0.32,1.37-0.56C231.53,122.14,232.18,122.02,232.2,122.1z"/>
			</g>
		</g>
	</g>
	<g style="clip-path:url(#SVGID_00000036965377264602040570000005199168172321063829_);">
		<path class="st9" d="M134.6,127.81c-0.76-0.11,9.29-14.01,13.52-14.67c3.09-0.49,21.01,2.77,24.13,5.55
			c3.12,2.78,4.16,9.12,4.16,9.12C172.97,128.48,143.85,117.76,134.6,127.81z"/>
	</g>
	<g style="clip-path:url(#SVGID_00000036965377264602040570000005199168172321063829_);">
		<g>
			<g>
				<path class="st10" d="M175.63,119.37c0.09-0.06,1.07,1.74,1.8,4.12c0.37,1.19,0.64,2.29,0.69,3.12c0.07,0.83-0.2,1.33-0.24,1.3
					c-0.03-0.01,0.15-0.49,0.03-1.29c-0.1-0.79-0.39-1.87-0.76-3.05c-0.37-1.18-0.76-2.23-1.05-2.98
					C175.82,119.84,175.6,119.39,175.63,119.37z"/>
			</g>
		</g>
	</g>
	<g style="clip-path:url(#SVGID_00000036965377264602040570000005199168172321063829_);">
		<g>
			<g>
				<path class="st10" d="M175.63,117.98c0.03-0.02,0.4,0.42,0.94,1.19c0.53,0.77,1.24,1.87,1.73,3.24
					c0.48,1.37,0.58,2.69,0.59,3.62c0,0.94-0.06,1.52-0.1,1.51c-0.05,0-0.05-0.58-0.11-1.51c-0.07-0.92-0.2-2.21-0.66-3.54
					c-0.47-1.33-1.14-2.43-1.62-3.22C175.91,118.5,175.6,118.01,175.63,117.98z"/>
			</g>
		</g>
	</g>
	<g style="clip-path:url(#SVGID_00000036965377264602040570000005199168172321063829_);">
		<g>
			<g>
				<path class="st10" d="M174.43,120.46c0.08-0.07,1.16,1.42,1.96,3.5c0.41,1.03,0.69,2,0.83,2.72c0.14,0.72,0.13,1.18,0.09,1.18
					c-0.04,0-0.1-0.44-0.29-1.13c-0.18-0.69-0.5-1.64-0.9-2.66c-0.41-1.02-0.82-1.92-1.15-2.56
					C174.64,120.86,174.4,120.49,174.43,120.46z"/>
			</g>
		</g>
	</g>
	<g style="clip-path:url(#SVGID_00000036965377264602040570000005199168172321063829_);">
		<g>
			<g>
				<path class="st10" d="M180.02,124.08c0.08,0.01-0.02,0.85-0.23,1.86c-0.2,1.02-0.43,1.83-0.51,1.81
					c-0.08-0.02,0.02-0.85,0.23-1.86C179.72,124.87,179.94,124.06,180.02,124.08z"/>
			</g>
		</g>
	</g>
	<g style="clip-path:url(#SVGID_00000036965377264602040570000005199168172321063829_);">
		<g>
			<g>
				<path class="st10" d="M172.21,119.35c0.03-0.02,0.39,0.36,0.89,1.04c0.5,0.68,1.13,1.67,1.69,2.83
					c0.56,1.16,0.93,2.27,1.15,3.08c0.22,0.82,0.29,1.33,0.25,1.34c-0.09,0.02-0.55-2.01-1.66-4.3
					C173.43,121.04,172.13,119.41,172.21,119.35z"/>
			</g>
		</g>
	</g>
	<g style="clip-path:url(#SVGID_00000036965377264602040570000005199168172321063829_);">
		<g>
			<g>
				<path class="st10" d="M168.18,119.26c0.02-0.03,0.58,0.28,1.41,0.9c0.83,0.61,1.93,1.55,2.99,2.72c1.06,1.18,1.88,2.36,2.4,3.25
					c0.53,0.89,0.78,1.48,0.75,1.5c-0.04,0.02-0.36-0.53-0.92-1.39c-0.56-0.86-1.4-2-2.44-3.17c-1.05-1.16-2.11-2.1-2.9-2.75
					C168.67,119.67,168.15,119.3,168.18,119.26z"/>
			</g>
		</g>
	</g>
	<g style="clip-path:url(#SVGID_00000036965377264602040570000005199168172321063829_);">
		<g>
			<g>
				<path class="st10" d="M163.23,119.49c0.01-0.02,0.2,0.04,0.53,0.17c0.34,0.13,0.82,0.33,1.4,0.6c1.17,0.55,2.73,1.41,4.34,2.54
					c1.61,1.14,2.94,2.33,3.84,3.25c0.45,0.46,0.8,0.84,1.03,1.12c0.23,0.28,0.35,0.43,0.34,0.45c-0.03,0.03-0.58-0.55-1.52-1.42
					c-0.93-0.88-2.27-2.03-3.87-3.16c-1.59-1.13-3.13-2.01-4.27-2.6C163.94,119.86,163.21,119.53,163.23,119.49z"/>
			</g>
		</g>
	</g>
	<g style="clip-path:url(#SVGID_00000036965377264602040570000005199168172321063829_);">
		<g>
			<g>
				<path class="st10" d="M168.01,117.57c0.02-0.03,0.41,0.14,1,0.51c0.59,0.36,1.37,0.92,2.15,1.64c0.78,0.72,1.4,1.45,1.81,2.01
					c0.41,0.56,0.62,0.94,0.58,0.96c-0.07,0.05-1.05-1.35-2.59-2.76C169.43,118.51,167.96,117.65,168.01,117.57z"/>
			</g>
		</g>
	</g>
	<g style="clip-path:url(#SVGID_00000036965377264602040570000005199168172321063829_);">
		<g>
			<g>
				<path class="st10" d="M162.77,117.44c0.01-0.03,0.59,0.12,1.46,0.52c0.87,0.39,2.02,1.07,3.19,1.95
					c1.17,0.88,2.14,1.77,2.83,2.43c0.69,0.66,1.1,1.08,1.07,1.11c-0.07,0.08-1.79-1.54-4.08-3.31c-1.15-0.87-2.27-1.56-3.11-2
					C163.3,117.7,162.75,117.48,162.77,117.44z"/>
			</g>
		</g>
	</g>
	<g style="clip-path:url(#SVGID_00000036965377264602040570000005199168172321063829_);">
		<g>
			<g>
				<path class="st10" d="M161.55,116.26c0-0.07,1.43,0.03,3.06,0.66c1.63,0.62,2.76,1.49,2.72,1.54c-0.05,0.07-1.23-0.67-2.82-1.27
					C162.91,116.57,161.53,116.34,161.55,116.26z"/>
			</g>
		</g>
	</g>
	<g style="clip-path:url(#SVGID_00000036965377264602040570000005199168172321063829_);">
		<g>
			<g>
				<path class="st10" d="M160.98,120.76c0.01-0.02,0.18,0.03,0.49,0.12c0.31,0.1,0.76,0.25,1.31,0.46
					c1.09,0.41,2.58,1.05,4.16,1.88c1.58,0.83,2.96,1.68,3.92,2.34c0.48,0.33,0.86,0.61,1.12,0.81c0.26,0.2,0.39,0.32,0.38,0.34
					c-0.03,0.04-0.63-0.36-1.62-0.97c-0.99-0.61-2.37-1.43-3.94-2.25c-1.57-0.82-3.04-1.48-4.1-1.94
					C161.63,121.07,160.96,120.8,160.98,120.76z"/>
			</g>
		</g>
	</g>
	<g style="clip-path:url(#SVGID_00000036965377264602040570000005199168172321063829_);">
		<g>
			<g>
				<path class="st10" d="M157.94,118.4c0.01-0.04,0.56,0.06,1.43,0.3c0.87,0.24,2.06,0.63,3.32,1.17c1.27,0.54,2.37,1.13,3.14,1.6
					c0.77,0.47,1.22,0.8,1.2,0.83c-0.02,0.04-0.51-0.23-1.3-0.65c-0.79-0.42-1.9-0.97-3.15-1.51c-1.26-0.54-2.42-0.95-3.27-1.24
					C158.46,118.61,157.93,118.45,157.94,118.4z"/>
			</g>
		</g>
	</g>
	<g style="clip-path:url(#SVGID_00000036965377264602040570000005199168172321063829_);">
		<g>
			<g>
				<path class="st10" d="M159.56,117.04c0.02-0.06,1.29,0.26,2.77,0.9c1.5,0.64,2.51,1.51,2.46,1.57
					c-0.05,0.06-1.11-0.68-2.57-1.31C160.76,117.57,159.53,117.12,159.56,117.04z"/>
			</g>
		</g>
	</g>
	<g style="clip-path:url(#SVGID_00000036965377264602040570000005199168172321063829_);">
		<g>
			<g>
				<path class="st10" d="M154.61,114.88c0-0.07,1.48-0.09,3.24,0.36c1.76,0.44,3.06,1.17,3.02,1.23c-0.04,0.08-1.37-0.51-3.09-0.95
					C156.05,115.07,154.6,114.96,154.61,114.88z"/>
			</g>
		</g>
	</g>
	<g style="clip-path:url(#SVGID_00000036965377264602040570000005199168172321063829_);">
		<g>
			<g>
				<path class="st10" d="M155.84,116.81c0.01-0.07,1.41,0.13,3.03,0.73c1.63,0.59,2.82,1.34,2.79,1.41
					c-0.04,0.08-1.28-0.55-2.89-1.13C157.17,117.22,155.82,116.9,155.84,116.81z"/>
			</g>
		</g>
	</g>
	<g style="clip-path:url(#SVGID_00000036965377264602040570000005199168172321063829_);">
		<g>
			<g>
				<path class="st10" d="M155.62,114.34c0-0.08,1.17-0.06,2.55,0.27c1.39,0.33,2.43,0.85,2.39,0.92c-0.03,0.08-1.1-0.31-2.46-0.64
					C156.74,114.56,155.61,114.42,155.62,114.34z"/>
			</g>
		</g>
	</g>
	<g style="clip-path:url(#SVGID_00000036965377264602040570000005199168172321063829_);">
		<g>
			<g>
				<path class="st10" d="M164.56,116.3c0.02-0.07,1.12,0.19,2.31,0.89c1.2,0.7,1.97,1.53,1.91,1.58c-0.06,0.06-0.89-0.65-2.06-1.33
					C165.57,116.76,164.53,116.38,164.56,116.3z"/>
			</g>
		</g>
	</g>
	<g style="clip-path:url(#SVGID_00000036965377264602040570000005199168172321063829_);">
		<g>
			<g>
				<path class="st10" d="M166.3,123.92c0.03-0.07,1.1,0.33,2.27,1.11c1.17,0.78,1.95,1.62,1.89,1.67
					c-0.06,0.06-0.91-0.67-2.05-1.43C167.27,124.5,166.27,123.99,166.3,123.92z"/>
			</g>
		</g>
	</g>
	<g style="clip-path:url(#SVGID_00000036965377264602040570000005199168172321063829_);">
		<g>
			<g>
				<path class="st10" d="M160.47,121.76c0.02-0.03,0.44,0.11,1.1,0.41c0.66,0.3,1.54,0.76,2.47,1.36c0.93,0.6,1.72,1.21,2.26,1.69
					c0.55,0.47,0.85,0.8,0.83,0.83c-0.06,0.07-1.41-1.09-3.25-2.27C162.05,122.59,160.43,121.84,160.47,121.76z"/>
			</g>
		</g>
	</g>
	<g style="clip-path:url(#SVGID_00000036965377264602040570000005199168172321063829_);">
		<g>
			<g>
				<path class="st10" d="M155.29,118.3c0.02-0.07,1.38,0.32,2.9,1.15c1.52,0.83,2.58,1.76,2.54,1.82
					c-0.05,0.07-1.18-0.75-2.68-1.56C156.55,118.89,155.26,118.38,155.29,118.3z"/>
			</g>
		</g>
	</g>
	<g style="clip-path:url(#SVGID_00000036965377264602040570000005199168172321063829_);">
		<g>
			<g>
				<path class="st10" d="M157.2,120.94c0.02-0.07,1.52,0.45,3.15,1.51c1.63,1.06,2.71,2.22,2.66,2.27
					c-0.06,0.06-1.21-0.99-2.81-2.03C158.59,121.65,157.16,121.03,157.2,120.94z"/>
			</g>
		</g>
	</g>
	<g style="clip-path:url(#SVGID_00000036965377264602040570000005199168172321063829_);">
		<g>
			<g>
				<path class="st10" d="M150.34,117.07c0.02-0.07,1.6,0.36,3.44,1.2c1.84,0.83,3.2,1.74,3.16,1.8c-0.04,0.07-1.46-0.71-3.28-1.54
					C151.84,117.7,150.32,117.15,150.34,117.07z"/>
			</g>
		</g>
	</g>
	<g style="clip-path:url(#SVGID_00000036965377264602040570000005199168172321063829_);">
		<g>
			<g>
				<path class="st10" d="M148.67,116.09c0-0.04,0.49-0.05,1.26,0.02c0.78,0.07,1.85,0.22,3.01,0.5c1.16,0.28,2.18,0.64,2.9,0.93
					c0.72,0.3,1.15,0.53,1.13,0.56c-0.03,0.08-1.81-0.66-4.1-1.21C150.58,116.33,148.66,116.18,148.67,116.09z"/>
			</g>
		</g>
	</g>
	<g style="clip-path:url(#SVGID_00000036965377264602040570000005199168172321063829_);">
		<g>
			<g>
				<path class="st10" d="M152.57,115.41c0-0.08,1.35-0.03,2.96,0.34c1.61,0.37,2.84,0.91,2.81,0.98c-0.03,0.08-1.29-0.34-2.88-0.7
					C153.88,115.67,152.56,115.5,152.57,115.41z"/>
			</g>
		</g>
	</g>
	<g style="clip-path:url(#SVGID_00000036965377264602040570000005199168172321063829_);">
		<g>
			<g>
				<path class="st10" d="M148.85,114.73c-0.03-0.07,1.2-0.59,2.83-0.77c1.63-0.19,2.95,0.04,2.93,0.11
					c-0.01,0.09-1.31-0.01-2.9,0.18C150.13,114.43,148.88,114.82,148.85,114.73z"/>
			</g>
		</g>
	</g>
	<g style="clip-path:url(#SVGID_00000036965377264602040570000005199168172321063829_);">
		<g>
			<g>
				<path class="st10" d="M149.3,115.23c-0.02-0.07,0.86-0.4,1.99-0.63c1.14-0.24,2.1-0.16,2.09-0.08c0,0.08-0.92,0.13-2.04,0.36
					C150.24,115.11,149.33,115.31,149.3,115.23z"/>
			</g>
		</g>
	</g>
	<g style="clip-path:url(#SVGID_00000036965377264602040570000005199168172321063829_);">
		<g>
			<g>
				<path class="st10" d="M145.35,115.11c-0.03-0.07,1.18-0.71,2.81-1.13c1.63-0.42,3.01-0.44,3.01-0.37
					c0.01,0.09-1.33,0.24-2.93,0.65C146.63,114.68,145.38,115.19,145.35,115.11z"/>
			</g>
		</g>
	</g>
	<g style="clip-path:url(#SVGID_00000036965377264602040570000005199168172321063829_);">
		<g>
			<g>
				<path class="st10" d="M144.32,115.59c-0.05-0.05,0.57-0.74,1.49-1.45c0.92-0.71,1.83-1.02,1.85-0.94
					c0.03,0.07-0.79,0.48-1.68,1.17C145.09,115.07,144.38,115.66,144.32,115.59z"/>
			</g>
		</g>
	</g>
	<g style="clip-path:url(#SVGID_00000036965377264602040570000005199168172321063829_);">
		<g>
			<g>
				<path class="st10" d="M142.51,117.4c-0.05-0.05,1.06-1.02,2.72-1.68c0.83-0.33,1.61-0.53,2.19-0.62
					c0.29-0.05,0.52-0.07,0.68-0.08c0.08-0.01,0.17,0.02,0.2,0.06c0.03,0.05,0,0.08-0.01,0.08c0.01,0.01-0.03-0.09-0.18-0.03
					c-0.16,0.04-0.38,0.1-0.66,0.17c-0.55,0.14-1.31,0.36-2.12,0.69C143.72,116.63,142.56,117.47,142.51,117.4z"/>
			</g>
		</g>
	</g>
	<g style="clip-path:url(#SVGID_00000036965377264602040570000005199168172321063829_);">
		<g>
			<g>
				<path class="st10" d="M140.95,119.23c-0.04-0.06,1.23-0.99,2.96-1.87c0.86-0.44,1.67-0.79,2.26-1.01
					c0.3-0.12,0.57-0.17,0.76-0.14c0.19,0.03,0.27,0.11,0.26,0.12c-0.01,0.02-0.39-0.1-0.94,0.21c-0.57,0.27-1.36,0.64-2.21,1.08
					C142.33,118.49,141,119.3,140.95,119.23z"/>
			</g>
		</g>
	</g>
	<g style="clip-path:url(#SVGID_00000036965377264602040570000005199168172321063829_);">
		<g>
			<g>
				<path class="st10" d="M142.61,118.69c-0.04-0.06,1.21-0.83,2.93-1.34c1.72-0.52,3.18-0.56,3.18-0.49
					c0.01,0.09-1.42,0.26-3.1,0.77C143.93,118.13,142.65,118.77,142.61,118.69z"/>
			</g>
		</g>
	</g>
	<g style="clip-path:url(#SVGID_00000036965377264602040570000005199168172321063829_);">
		<g>
			<g>
				<path class="st10" d="M146.94,117.54c0-0.07,1.39-0.13,3.07,0.23c0.84,0.17,1.57,0.41,2.09,0.62c0.26,0.11,0.46,0.19,0.61,0.28
					c0.16,0.1,0.12,0.26,0.1,0.24c-0.02,0-0.01-0.09-0.15-0.14c-0.15-0.04-0.36-0.1-0.62-0.18c-0.53-0.15-1.26-0.36-2.09-0.53
					C148.31,117.71,146.94,117.63,146.94,117.54z"/>
			</g>
		</g>
	</g>
	<g style="clip-path:url(#SVGID_00000036965377264602040570000005199168172321063829_);">
		<g>
			<g>
				<path class="st10" d="M153.11,120.63c0.01-0.04,0.46,0.04,1.16,0.23c0.7,0.2,1.66,0.53,2.67,1.01c1.01,0.48,1.88,1,2.48,1.42
					c0.6,0.42,0.94,0.72,0.92,0.75c-0.05,0.07-1.52-0.97-3.52-1.91C154.83,121.18,153.09,120.71,153.11,120.63z"/>
			</g>
		</g>
	</g>
	<g style="clip-path:url(#SVGID_00000036965377264602040570000005199168172321063829_);">
		<g>
			<g>
				<path class="st10" d="M149.17,118.59c0-0.07,1.54-0.01,3.36,0.48c1.82,0.48,3.18,1.2,3.15,1.26c-0.04,0.08-1.43-0.51-3.22-0.98
					C150.66,118.86,149.16,118.67,149.17,118.59z"/>
			</g>
		</g>
	</g>
	<g style="clip-path:url(#SVGID_00000036965377264602040570000005199168172321063829_);">
		<g>
			<g>
				<path class="st10" d="M154.89,122.69c0.02-0.07,0.98,0.18,2.08,0.68c1.1,0.5,1.92,1.05,1.88,1.12c-0.04,0.07-0.91-0.36-2-0.85
					C155.76,123.14,154.86,122.77,154.89,122.69z"/>
			</g>
		</g>
	</g>
	<g style="clip-path:url(#SVGID_00000036965377264602040570000005199168172321063829_);">
		<g>
			<g>
				<path class="st10" d="M145.22,119.39c0-0.04,0.54-0.05,1.41,0.02c0.87,0.07,2.07,0.26,3.36,0.61c1.29,0.36,2.41,0.81,3.2,1.2
					c0.79,0.38,1.24,0.68,1.22,0.71c-0.02,0.04-0.51-0.19-1.31-0.52c-0.8-0.33-1.92-0.75-3.19-1.1c-1.27-0.35-2.45-0.56-3.31-0.69
					C145.75,119.49,145.21,119.43,145.22,119.39z"/>
			</g>
		</g>
	</g>
	<g style="clip-path:url(#SVGID_00000036965377264602040570000005199168172321063829_);">
		<g>
			<g>
				<path class="st10" d="M149.07,119.18c0.01-0.08,0.78-0.08,1.7,0.15c0.92,0.22,1.61,0.58,1.58,0.65
					c-0.03,0.08-0.75-0.15-1.64-0.37C149.81,119.4,149.07,119.27,149.07,119.18z"/>
			</g>
		</g>
	</g>
	<g style="clip-path:url(#SVGID_00000036965377264602040570000005199168172321063829_);">
		<g>
			<g>
				<path class="st10" d="M151.07,121.6c0.03-0.07,1,0.33,2.16,0.9c1.16,0.57,2.07,1.09,2.03,1.16c-0.04,0.07-1-0.33-2.16-0.9
					C151.95,122.2,151.04,121.68,151.07,121.6z"/>
			</g>
		</g>
	</g>
	<g style="clip-path:url(#SVGID_00000036965377264602040570000005199168172321063829_);">
		<g>
			<g>
				<path class="st10" d="M143.31,120.3c-0.01-0.07,1.49-0.23,3.31,0.09c1.82,0.31,3.18,0.95,3.15,1.02
					c-0.03,0.08-1.42-0.43-3.2-0.73C144.78,120.36,143.31,120.39,143.31,120.3z"/>
			</g>
		</g>
	</g>
	<g style="clip-path:url(#SVGID_00000036965377264602040570000005199168172321063829_);">
		<g>
			<g>
				<path class="st10" d="M144.03,119.07c-0.04-0.07,0.74-0.5,1.82-0.61c1.08-0.12,1.93,0.14,1.91,0.22
					c-0.02,0.08-0.85-0.04-1.88,0.07C144.86,118.86,144.06,119.15,144.03,119.07z"/>
			</g>
		</g>
	</g>
	<g style="clip-path:url(#SVGID_00000036965377264602040570000005199168172321063829_);">
		<g>
			<g>
				<path class="st10" d="M138.67,122.46c-0.05-0.05,0.75-0.93,1.89-1.83c1.14-0.91,2.18-1.48,2.22-1.42
					c0.04,0.07-0.91,0.75-2.04,1.65C139.61,121.75,138.73,122.52,138.67,122.46z"/>
			</g>
		</g>
	</g>
	<g style="clip-path:url(#SVGID_00000036965377264602040570000005199168172321063829_);">
		<g>
			<g>
				<path class="st10" d="M144.17,121.17c0-0.08,1.3-0.07,2.85,0.23c0.78,0.16,1.48,0.33,1.96,0.55c0.48,0.22,0.72,0.47,0.69,0.5
					c-0.03,0.04-0.29-0.14-0.77-0.31c-0.47-0.17-1.17-0.31-1.94-0.46C145.43,121.39,144.16,121.25,144.17,121.17z"/>
			</g>
		</g>
	</g>
	<g style="clip-path:url(#SVGID_00000036965377264602040570000005199168172321063829_);">
		<g>
			<g>
				<path class="st10" d="M139.86,122.02c-0.04-0.07,0.5-0.44,1.25-0.7c0.76-0.26,1.41-0.29,1.42-0.22c0.01,0.08-0.6,0.24-1.33,0.49
					C140.47,121.84,139.9,122.09,139.86,122.02z"/>
			</g>
		</g>
	</g>
	<g style="clip-path:url(#SVGID_00000036965377264602040570000005199168172321063829_);">
		<g>
			<g>
				<path class="st10" d="M136.38,125.46c-0.05-0.06,0.37-0.5,0.94-0.97c0.57-0.48,1.08-0.81,1.13-0.75s-0.37,0.5-0.94,0.97
					C136.94,125.19,136.43,125.52,136.38,125.46z"/>
			</g>
		</g>
	</g>
	<g style="clip-path:url(#SVGID_00000036965377264602040570000005199168172321063829_);">
		<g>
			<g>
				<path class="st10" d="M136.01,125.45c-0.07-0.04,0.31-0.71,0.91-1.44c0.59-0.73,1.17-1.23,1.22-1.18c0.06,0.06-0.41,0.64-1,1.36
					C136.55,124.91,136.07,125.49,136.01,125.45z"/>
			</g>
		</g>
	</g>
	<g style="clip-path:url(#SVGID_00000036965377264602040570000005199168172321063829_);">
		<g>
			<g>
				<path class="st10" d="M134.72,127.38c-0.05-0.06,0.19-0.37,0.54-0.69s0.68-0.54,0.73-0.48c0.05,0.06-0.19,0.37-0.54,0.69
					C135.11,127.22,134.78,127.43,134.72,127.38z"/>
			</g>
		</g>
	</g>
	<g style="clip-path:url(#SVGID_00000036965377264602040570000005199168172321063829_);">
		<g>
			<g>
				<path class="st10" d="M138.26,125.08c-0.05-0.06,0.75-0.69,1.94-1.02c1.17-0.33,2.14-0.41,2.16-0.34
					c0.02,0.09-0.94,0.3-2.07,0.62C139.14,124.66,138.31,125.15,138.26,125.08z"/>
			</g>
		</g>
	</g>
	<g style="clip-path:url(#SVGID_00000036965377264602040570000005199168172321063829_);">
		<g>
			<g>
				<path class="st10" d="M138.39,123.68c-0.01-0.03,0.43-0.2,1.18-0.36c0.74-0.17,1.79-0.32,2.95-0.35
					c1.16-0.02,2.21,0.09,2.96,0.22c0.75,0.14,1.2,0.28,1.19,0.31c-0.02,0.09-1.85-0.3-4.14-0.25
					C140.23,123.3,138.41,123.77,138.39,123.68z"/>
			</g>
		</g>
	</g>
	<g style="clip-path:url(#SVGID_00000036965377264602040570000005199168172321063829_);">
		<g>
			<g>
				<path class="st10" d="M141.9,122.28c0-0.07,1.66-0.14,3.67,0.2c2.01,0.33,3.56,0.93,3.53,1c-0.03,0.08-1.59-0.39-3.58-0.72
					C143.53,122.43,141.9,122.37,141.9,122.28z"/>
			</g>
		</g>
	</g>
	<g style="clip-path:url(#SVGID_00000036965377264602040570000005199168172321063829_);">
		<g>
			<g>
				<path class="st10" d="M149.85,122.05c0.04-0.07,0.66,0.17,1.39,0.55c0.36,0.19,0.69,0.36,0.92,0.55
					c0.23,0.19,0.27,0.39,0.23,0.4c-0.04,0.02-0.13-0.11-0.35-0.24c-0.21-0.12-0.57-0.26-0.93-0.45
					C150.38,122.48,149.82,122.12,149.85,122.05z"/>
			</g>
		</g>
	</g>
	<g style="clip-path:url(#SVGID_00000036965377264602040570000005199168172321063829_);">
		<g>
			<g>
				<path class="st10" d="M146.58,122.24c0.02-0.08,0.67,0.04,1.45,0.27c0.79,0.23,1.4,0.48,1.37,0.55
					c-0.03,0.08-0.68-0.05-1.45-0.27C147.17,122.57,146.56,122.32,146.58,122.24z"/>
			</g>
		</g>
	</g>
	<path style="clip-path:url(#SVGID_00000036965377264602040570000005199168172321063829_);fill:#EDEDED;" d="M204.58,145.4
		c0,0-2.44,1.09,0.33,1.67c3.08,0.65,21.05,3.2,27.97-4.74C232.88,142.34,217.34,133.15,204.58,145.4z"/>
	<g style="opacity:0.6;clip-path:url(#SVGID_00000036965377264602040570000005199168172321063829_);">
		<g>
			<g>
				<path class="st13" d="M232.67,136.05c-0.05,0.1-1.59-0.42-4.24-0.72c-2.62-0.34-6.3-0.6-10.28,0.04
					c-3.97,0.62-7.35,2.12-9.57,3.54c-2.23,1.4-3.38,2.61-3.49,2.5c-0.07-0.05,0.93-1.43,3.15-3.02c2.19-1.59,5.67-3.25,9.77-3.89
					c4.1-0.65,7.88-0.29,10.51,0.22C231.19,135.18,232.73,135.93,232.67,136.05z"/>
			</g>
		</g>
	</g>
	<g style="opacity:0.42;clip-path:url(#SVGID_00000036965377264602040570000005199168172321063829_);">
		<g>
			<g>
				<path class="st13" d="M215.54,149.97c0,0.01-0.16,0-0.44-0.02c-0.28-0.02-0.69-0.07-1.19-0.13c-1-0.13-2.38-0.31-3.88-0.65
					c-1.5-0.32-2.84-0.77-3.75-1.22c-0.92-0.44-1.38-0.87-1.38-0.87c0.02-0.03,0.5,0.37,1.42,0.78c0.91,0.42,2.23,0.85,3.73,1.17
					c1.5,0.33,2.87,0.53,3.87,0.69c0.5,0.07,0.9,0.13,1.18,0.17C215.39,149.93,215.54,149.96,215.54,149.97z"/>
			</g>
		</g>
	</g>
	<path style="clip-path:url(#SVGID_00000036965377264602040570000005199168172321063829_);fill:#200C0E;" d="M224.98,142.51
		c0,1.99-0.95,3.75-2.42,4.86c0,0-1.9,0.36-3.54,0.45c-0.97,0.06-2.83,0.15-2.83,0.15c-2.01-1-3.4-3.07-3.4-5.47
		c0-0.87,0.18-1.69,0.51-2.43c1.12-0.42,2.99-0.91,5.59-1.04c2.66-0.1,4.55,0.2,5.24,0.37
		C224.67,140.31,224.98,141.37,224.98,142.51z"/>
	<g style="opacity:0.6;clip-path:url(#SVGID_00000036965377264602040570000005199168172321063829_);">
		<g>
			<g>
				<path class="st13" d="M200.68,183.39c-0.02-0.17,0.31-0.33,0.71-0.64c0.4-0.31,0.89-0.81,1.27-1.47
					c0.74-1.36,1.04-2.82,1.39-2.76c0.16,0.02,0.26,0.39,0.25,1c-0.01,0.6-0.14,1.47-0.63,2.33c-0.5,0.87-1.28,1.45-1.92,1.63
					C201.11,183.68,200.69,183.54,200.68,183.39z"/>
			</g>
		</g>
	</g>
	<g style="opacity:0.6;clip-path:url(#SVGID_00000036965377264602040570000005199168172321063829_);">
		<g>
			<g>
				<path class="st13" d="M191.36,187.7c0.11,0.11-0.06,0.5-0.61,0.86c-0.54,0.36-1.42,0.57-2.34,0.53
					c-0.46-0.01-0.88-0.09-1.29-0.2c-0.39-0.09-0.75-0.22-1.02-0.42c-0.53-0.37-0.69-0.75-0.59-0.87c0.11-0.12,0.45,0.01,0.94,0.12
					c0.24,0.07,0.53,0.09,0.88,0.11c0.33,0.04,0.71,0.08,1.11,0.09c0.8,0.03,1.48-0.02,1.97-0.12
					C190.92,187.7,191.25,187.57,191.36,187.7z"/>
			</g>
		</g>
	</g>
	<g style="opacity:0.6;clip-path:url(#SVGID_00000036965377264602040570000005199168172321063829_);">
		<g>
			<g>
				<path class="st13" d="M198.43,184.24c-0.03-0.03-0.06-0.06-0.09-0.07c-0.03-0.01-0.09,0.03-0.05,0
					c-0.07,0.12-0.03,0.11-0.12,0.16c-0.09,0.04-0.19,0.08-0.3,0.13c-0.43,0.18-1,0.47-1.68,0.81c-1.33,0.75-2.55,1.13-2.72,0.86
					c-0.18-0.27,0.81-1.12,2.2-1.9c0.71-0.36,1.47-0.59,2.05-0.58c0.14,0,0.27,0.01,0.39,0.03c0.12,0.02,0.3,0.05,0.42,0.18
					C198.73,184.16,198.46,184.33,198.43,184.24z"/>
			</g>
		</g>
	</g>
	<g style="opacity:0.6;clip-path:url(#SVGID_00000036965377264602040570000005199168172321063829_);">
		<g>
			<g>
				<path class="st13" d="M195.19,160.8c-0.13,0.07-0.74-0.9-1.14-2.63c-0.43-1.72-0.71-4.13-0.79-6.8
					c-0.09-2.67,0.07-5.09,0.33-6.83c0.24-1.75,0.75-2.79,0.89-2.72c0.15,0.06-0.04,1.07-0.07,2.8c-0.05,1.71-0.07,4.09,0.01,6.72
					c0.08,2.62,0.23,4.99,0.44,6.69C195.04,159.73,195.34,160.73,195.19,160.8z"/>
			</g>
		</g>
	</g>
	<g style="clip-path:url(#SVGID_00000036965377264602040570000005199168172321063829_);">
		<g>
			<g>
				<path class="st17" d="M232.88,142.34c-0.06,0.13-1.63-0.56-4.25-1.36c-2.61-0.78-6.35-1.68-10.49-1.46
					c-4.13,0.27-7.63,1.96-9.92,3.4c-2.31,1.46-3.53,2.67-3.63,2.57c-0.07-0.06,1.01-1.44,3.29-3.08c2.26-1.61,5.85-3.47,10.21-3.76
					c4.32-0.24,8.14,0.8,10.74,1.74C231.44,141.35,232.92,142.24,232.88,142.34z"/>
			</g>
		</g>
	</g>
	<g style="opacity:0.34;clip-path:url(#SVGID_00000036965377264602040570000005199168172321063829_);">
		<g>
			<g>
				<path class="st19" d="M222.1,147.13c-0.12-0.11,0.07-0.49,0.35-0.9c0.29-0.41,0.59-0.71,0.73-0.63
					c0.14,0.07,0.06,0.52-0.26,0.97C222.61,147.01,222.21,147.24,222.1,147.13z"/>
			</g>
		</g>
	</g>
	<g style="opacity:0.34;clip-path:url(#SVGID_00000036965377264602040570000005199168172321063829_);">
		<g>
			<g>
				<path class="st19" d="M224.26,142.45c-0.16,0.02-0.37-0.57-0.68-1.26c-0.15-0.34-0.3-0.65-0.4-0.87
					c-0.09-0.2-0.19-0.3-0.17-0.38c0.01-0.08,0.26-0.1,0.49,0.12c0.23,0.21,0.43,0.51,0.61,0.9
					C224.45,141.73,224.42,142.43,224.26,142.45z"/>
			</g>
		</g>
	</g>
	<g style="opacity:0.34;clip-path:url(#SVGID_00000036965377264602040570000005199168172321063829_);">
		<g>
			<g>
				<path class="st19" d="M213.57,143.01c-0.14,0.07-0.5-0.45-0.45-1.19c0.05-0.74,0.47-1.21,0.6-1.12
					c0.14,0.08,0.01,0.57-0.02,1.16C213.66,142.45,213.72,142.95,213.57,143.01z"/>
			</g>
		</g>
	</g>
	<g style="opacity:0.34;clip-path:url(#SVGID_00000036965377264602040570000005199168172321063829_);">
		<g>
			<g>
				<path class="st19" d="M188.38,156.68c-0.32,0-0.53-2.68-0.47-5.99c0.06-3.3,0.37-5.98,0.69-5.97c0.32,0.01,0.53,2.69,0.47,5.99
					S188.7,156.68,188.38,156.68z"/>
			</g>
		</g>
	</g>
	<g style="opacity:0.34;clip-path:url(#SVGID_00000036965377264602040570000005199168172321063829_);">
		<g>
			<g>
				<path class="st19" d="M190.78,177.02c0.16,0.01,0.29,0.26,0.3,0.68c0.01,0.42-0.14,0.99-0.5,1.52
					c-0.36,0.53-0.84,0.88-1.23,1.02c-0.39,0.15-0.68,0.11-0.74-0.03c-0.13-0.3,0.49-0.86,1.01-1.65
					C190.16,177.79,190.45,177.01,190.78,177.02z"/>
			</g>
		</g>
	</g>
	<g style="opacity:0.34;clip-path:url(#SVGID_00000036965377264602040570000005199168172321063829_);">
		<g>
			<g>
				<path class="st19" d="M204.59,147.1c0.03,0.07-0.13,0.25-0.51,0.33c-0.34,0.09-1.15-0.11-1.21-0.92
					c0.04-0.79,0.74-1.04,1.06-1.08c0.36-0.04,0.57,0.01,0.58,0.09c0.02,0.08-0.19,0.18-0.47,0.31c-0.27,0.11-0.6,0.38-0.59,0.67
					c0,0.28,0.34,0.5,0.61,0.52C204.35,147.05,204.56,147.02,204.59,147.1z"/>
			</g>
		</g>
	</g>
	<g style="opacity:0.34;clip-path:url(#SVGID_00000036965377264602040570000005199168172321063829_);">
		<g>
			<g>
				<path class="st19" d="M192.48,205.08c0.07,0.15-1.07,0.67-2.55,0.63c-1.48-0.02-2.6-0.48-2.55-0.63
					c0.04-0.16,1.17,0.03,2.56,0.05C191.32,205.16,192.42,204.92,192.48,205.08z"/>
			</g>
		</g>
	</g>
	<g style="clip-path:url(#SVGID_00000036965377264602040570000005199168172321063829_);">
		<g>
			<g>
				<path class="st20" d="M199.99,209.1c0.01,0.02-0.27,0.13-0.77,0.31c-0.51,0.18-1.24,0.43-2.15,0.75c-0.91,0.31-2,0.66-3.22,1
					c-1.23,0.33-2.61,0.64-4.1,0.66c-1.49,0.01-2.88-0.28-4.11-0.61c-1.23-0.34-2.31-0.7-3.22-1.02c-0.91-0.32-1.64-0.59-2.14-0.78
					c-0.5-0.19-0.78-0.31-0.77-0.33c0.01-0.02,0.29,0.06,0.81,0.22c0.51,0.16,1.25,0.4,2.16,0.69c0.91,0.29,2,0.63,3.22,0.96
					c1.22,0.32,2.59,0.59,4.04,0.58c1.45-0.02,2.81-0.31,4.03-0.63c1.22-0.33,2.31-0.66,3.23-0.94c0.92-0.28,1.66-0.5,2.17-0.66
					C199.7,209.16,199.98,209.08,199.99,209.1z"/>
			</g>
		</g>
	</g>
	<path style="clip-path:url(#SVGID_00000036965377264602040570000005199168172321063829_);fill:#EDEDED;" d="M171.75,145.4
		c0,0,2.44,1.09-0.33,1.67c-3.08,0.65-21.05,3.2-27.97-4.74C143.44,142.34,158.99,133.15,171.75,145.4z"/>
	<g style="opacity:0.6;clip-path:url(#SVGID_00000036965377264602040570000005199168172321063829_);">
		<g>
			<g>
				<path class="st13" d="M143.65,136.05c-0.06-0.12,1.48-0.87,4.14-1.33c2.63-0.5,6.41-0.87,10.51-0.22
					c4.11,0.64,7.59,2.29,9.77,3.89c2.21,1.58,3.22,2.96,3.15,3.02c-0.11,0.11-1.26-1.1-3.49-2.5c-2.21-1.42-5.59-2.92-9.57-3.54
					c-3.97-0.63-7.66-0.38-10.28-0.04C145.24,135.63,143.7,136.15,143.65,136.05z"/>
			</g>
		</g>
	</g>
	<path style="clip-path:url(#SVGID_00000036965377264602040570000005199168172321063829_);fill:#200C0E;" d="M151.34,142.51
		c0,1.99,0.95,3.75,2.42,4.86c0,0,1.9,0.36,3.54,0.45c0.97,0.06,2.83,0.15,2.83,0.15c2.01-1,3.4-3.07,3.4-5.47
		c0-0.87-0.18-1.69-0.51-2.43c-1.12-0.42-2.99-0.91-5.59-1.04c-2.66-0.1-4.55,0.2-5.24,0.37
		C151.65,140.31,151.34,141.37,151.34,142.51z"/>
	<g style="opacity:0.6;clip-path:url(#SVGID_00000036965377264602040570000005199168172321063829_);">
		<g>
			<g>
				<path class="st13" d="M177.02,183.6c-0.01,0.15-0.43,0.29-1.07,0.1c-0.64-0.18-1.42-0.76-1.92-1.63
					c-0.49-0.87-0.62-1.73-0.63-2.33c-0.01-0.61,0.1-0.98,0.25-1c0.35-0.06,0.65,1.4,1.39,2.76c0.38,0.66,0.87,1.16,1.27,1.47
					C176.71,183.27,177.04,183.43,177.02,183.6z"/>
			</g>
		</g>
	</g>
	<g style="opacity:0.6;clip-path:url(#SVGID_00000036965377264602040570000005199168172321063829_);">
		<g>
			<g>
				<path class="st13" d="M179.27,184.44c-0.03,0.09-0.3-0.08-0.09-0.38c0.12-0.13,0.3-0.17,0.42-0.18
					c0.11-0.02,0.24-0.03,0.39-0.03c0.58-0.01,1.34,0.22,2.05,0.58c1.39,0.78,2.38,1.64,2.2,1.9c-0.18,0.27-1.39-0.12-2.72-0.86
					c-0.68-0.35-1.25-0.63-1.68-0.81c-0.11-0.05-0.21-0.09-0.3-0.13c-0.09-0.05-0.05-0.03-0.12-0.16c0.04,0.04-0.02-0.01-0.05,0
					C179.33,184.38,179.3,184.42,179.27,184.44z"/>
			</g>
		</g>
	</g>
	<g style="clip-path:url(#SVGID_00000036965377264602040570000005199168172321063829_);">
		<g>
			<g>
				<path class="st17" d="M143.44,142.34c-0.05-0.09,1.44-0.98,4.06-1.94c2.6-0.94,6.42-1.98,10.74-1.74
					c4.35,0.29,7.95,2.15,10.21,3.76c2.29,1.63,3.36,3.02,3.29,3.08c-0.1,0.11-1.32-1.11-3.63-2.57c-2.29-1.44-5.79-3.13-9.92-3.4
					c-4.14-0.23-7.88,0.68-10.49,1.46C145.07,141.77,143.5,142.46,143.44,142.34z"/>
			</g>
		</g>
	</g>
	<g style="opacity:0.34;clip-path:url(#SVGID_00000036965377264602040570000005199168172321063829_);">
		<g>
			<g>
				<path class="st19" d="M154.22,147.13c-0.11,0.11-0.51-0.12-0.83-0.57c-0.31-0.44-0.4-0.9-0.26-0.97
					c0.14-0.07,0.44,0.23,0.73,0.63C154.16,146.63,154.34,147.02,154.22,147.13z"/>
			</g>
		</g>
	</g>
	<g style="opacity:0.34;clip-path:url(#SVGID_00000036965377264602040570000005199168172321063829_);">
		<g>
			<g>
				<path class="st19" d="M152.06,142.45c-0.16-0.02-0.19-0.72,0.15-1.49c0.18-0.39,0.38-0.69,0.61-0.9
					c0.24-0.22,0.48-0.2,0.49-0.12c0.02,0.08-0.08,0.18-0.17,0.38c-0.1,0.22-0.24,0.53-0.4,0.87
					C152.44,141.88,152.23,142.47,152.06,142.45z"/>
			</g>
		</g>
	</g>
	<g style="opacity:0.34;clip-path:url(#SVGID_00000036965377264602040570000005199168172321063829_);">
		<g>
			<g>
				<path class="st19" d="M162.76,143.01c-0.15-0.06-0.09-0.56-0.13-1.15c-0.03-0.59-0.16-1.08-0.02-1.16
					c0.13-0.09,0.55,0.38,0.6,1.12C163.25,142.56,162.9,143.08,162.76,143.01z"/>
			</g>
		</g>
	</g>
	<g style="opacity:0.34;clip-path:url(#SVGID_00000036965377264602040570000005199168172321063829_);">
		<g>
			<g>
				<path class="st19" d="M143.31,143.01c0.02-0.04,0.36,0.11,0.82,0.47c0.46,0.35,1.06,0.87,1.78,1.36c1.43,1,2.8,1.43,2.77,1.52
					c-0.01,0.06-1.46-0.25-2.93-1.28c-0.74-0.5-1.32-1.06-1.75-1.44C143.57,143.25,143.29,143.05,143.31,143.01z"/>
			</g>
		</g>
	</g>
	<g style="opacity:0.34;clip-path:url(#SVGID_00000036965377264602040570000005199168172321063829_);">
		<g>
			<g>
				<path class="st19" d="M171.73,147.1c0.03-0.08,0.25-0.05,0.53-0.09c0.27-0.02,0.61-0.24,0.61-0.52c0-0.29-0.32-0.56-0.59-0.67
					c-0.28-0.13-0.48-0.22-0.47-0.31c0.01-0.07,0.22-0.13,0.58-0.09c0.32,0.04,1.02,0.29,1.06,1.08c-0.06,0.81-0.86,1.02-1.21,0.92
					C171.86,147.34,171.7,147.16,171.73,147.1z"/>
			</g>
		</g>
	</g>
	<g style="opacity:0.34;clip-path:url(#SVGID_00000036965377264602040570000005199168172321063829_);">
		<g>
			<g>
				<path class="st19" d="M233.15,143.81c0.02,0.04-0.27,0.24-0.68,0.63c-0.42,0.38-1.01,0.94-1.75,1.44
					c-1.47,1.03-2.92,1.34-2.93,1.28c-0.03-0.09,1.34-0.52,2.77-1.52c0.72-0.49,1.32-1.01,1.78-1.36
					C232.79,143.93,233.13,143.78,233.15,143.81z"/>
			</g>
		</g>
	</g>
	<g style="opacity:0.42;clip-path:url(#SVGID_00000036965377264602040570000005199168172321063829_);">
		<g>
			<g>
				<path class="st13" d="M232.88,142.34c0.01,0-0.04,0.08-0.13,0.23c-0.1,0.15-0.25,0.37-0.43,0.65c-0.22,0.25-0.53,0.53-0.87,0.87
					c-0.39,0.27-0.81,0.63-1.34,0.93c-1.03,0.63-2.36,1.2-3.87,1.71c-1.52,0.47-3.22,0.89-5.04,1.16c-3.63,0.55-6.98,0.53-9.36,0.3
					c-1.19-0.13-2.16-0.25-2.81-0.41c-0.33-0.07-0.58-0.13-0.76-0.17c-0.17-0.04-0.26-0.07-0.26-0.08c0-0.01,0.1,0,0.27,0.02
					c0.17,0.03,0.43,0.06,0.76,0.11c0.66,0.12,1.62,0.21,2.81,0.31c2.38,0.17,5.7,0.16,9.3-0.39c1.8-0.27,3.49-0.68,5-1.13
					c1.5-0.49,2.81-1.03,3.84-1.63c0.52-0.28,0.94-0.62,1.34-0.88c0.34-0.32,0.65-0.59,0.89-0.82c0.2-0.26,0.36-0.47,0.47-0.6
					C232.81,142.4,232.87,142.33,232.88,142.34z"/>
			</g>
		</g>
	</g>
	<g style="opacity:0.42;clip-path:url(#SVGID_00000036965377264602040570000005199168172321063829_);">
		<g>
			<g>
				<path class="st13" d="M160.79,149.9c0-0.01,0.15-0.04,0.43-0.08c0.28-0.04,0.68-0.1,1.18-0.17c0.99-0.15,2.37-0.35,3.87-0.69
					c1.5-0.32,2.82-0.75,3.73-1.17c0.92-0.41,1.4-0.81,1.42-0.78c0,0-0.46,0.44-1.38,0.87c-0.91,0.45-2.24,0.89-3.75,1.22
					c-1.5,0.33-2.89,0.52-3.88,0.65c-0.5,0.06-0.91,0.1-1.19,0.13C160.95,149.9,160.79,149.91,160.79,149.9z"/>
			</g>
		</g>
	</g>
	<g style="opacity:0.42;clip-path:url(#SVGID_00000036965377264602040570000005199168172321063829_);">
		<g>
			<g>
				<path class="st13" d="M143.45,142.26c0.01,0,0.07,0.07,0.18,0.2c0.11,0.14,0.27,0.34,0.48,0.61c0.24,0.23,0.55,0.5,0.9,0.82
					c0.4,0.26,0.83,0.6,1.36,0.88c1.04,0.6,2.37,1.14,3.89,1.63c1.53,0.45,3.23,0.87,5.05,1.14c3.64,0.56,6.99,0.58,9.4,0.41
					c1.2-0.1,2.18-0.19,2.84-0.31c0.33-0.05,0.59-0.09,0.77-0.11c0.18-0.02,0.27-0.03,0.27-0.02c0,0.01-0.09,0.04-0.26,0.08
					c-0.17,0.04-0.43,0.09-0.76,0.17c-0.66,0.15-1.64,0.28-2.84,0.41c-2.41,0.22-5.79,0.23-9.46-0.33c-1.83-0.27-3.55-0.7-5.09-1.17
					c-1.52-0.51-2.87-1.08-3.91-1.71c-0.53-0.3-0.96-0.66-1.36-0.93c-0.35-0.34-0.65-0.63-0.88-0.88c-0.19-0.28-0.34-0.5-0.44-0.65
					C143.49,142.35,143.44,142.27,143.45,142.26z"/>
			</g>
		</g>
	</g>
	<g style="opacity:0.6;clip-path:url(#SVGID_00000036965377264602040570000005199168172321063829_);">
		<g>
			<g>
				<path class="st13" d="M180.48,160.39c-0.15-0.08,0.15-1.07,0.33-2.78c0.21-1.7,0.36-4.07,0.44-6.69c0.08-2.62,0.06-5,0.01-6.72
					c-0.03-1.73-0.22-2.74-0.07-2.8c0.15-0.07,0.65,0.98,0.89,2.72c0.27,1.74,0.42,4.16,0.33,6.83c-0.09,2.67-0.37,5.08-0.79,6.8
					C181.22,159.49,180.62,160.47,180.48,160.39z"/>
			</g>
		</g>
	</g>
	<g style="clip-path:url(#SVGID_00000036965377264602040570000005199168172321063829_);">
		<g>
			<g>
				<path class="st0" d="M236.95,261.77c-0.04,0.01-0.24-0.56-0.57-1.63c-0.12-0.54-0.27-1.2-0.44-1.97
					c-0.13-0.77-0.29-1.66-0.45-2.63c-0.58-3.91-1.07-9.36-1.33-15.38c-0.26-6.02-0.2-11.49,0.06-15.44
					c0.12-1.97,0.34-3.57,0.55-4.66c0.08-0.55,0.26-0.96,0.33-1.24c0.09-0.28,0.15-0.42,0.17-0.41c0.05,0.02-0.11,0.61-0.27,1.69
					c-0.14,1.09-0.29,2.67-0.36,4.64c-0.16,3.93-0.14,9.38,0.11,15.39c0.26,6.01,0.68,11.44,1.15,15.35
					c0.14,0.97,0.26,1.86,0.37,2.63c0.13,0.77,0.25,1.43,0.34,1.97C236.86,261.15,236.99,261.75,236.95,261.77z"/>
			</g>
		</g>
	</g>
	<g style="clip-path:url(#SVGID_00000036965377264602040570000005199168172321063829_);">
		<g>
			<g>
				<path class="st0" d="M297.05,266.47c-0.02,0.01-0.15-0.12-0.38-0.39c-0.23-0.27-0.58-0.66-0.99-1.19
					c-0.84-1.05-2-2.61-3.29-4.64c-2.61-4.03-5.61-10.01-7.88-16.99c-2.27-6.98-3.49-13.52-4.21-18.26
					c-0.36-2.37-0.59-4.3-0.73-5.63c-0.07-0.67-0.11-1.19-0.14-1.54c-0.03-0.35-0.03-0.54-0.01-0.54c0.02,0,0.06,0.18,0.13,0.53
					c0.06,0.35,0.14,0.86,0.25,1.52c0.21,1.32,0.5,3.24,0.91,5.59c0.82,4.71,2.1,11.21,4.35,18.14c2.25,6.94,5.17,12.89,7.68,16.96
					c1.24,2.04,2.34,3.63,3.12,4.72C296.65,265.85,297.09,266.44,297.05,266.47z"/>
			</g>
		</g>
	</g>
	<g style="clip-path:url(#SVGID_00000036965377264602040570000005199168172321063829_);">
		<g>
			<g>
				<path class="st0" d="M245.99,89.86c-0.02,0.01-0.15-0.11-0.39-0.36c-0.24-0.25-0.6-0.62-1.04-1.11
					c-0.89-0.98-2.14-2.41-3.68-4.2c-3.09-3.55-7.21-8.63-12.61-13.35c-2.71-2.34-5.52-4.29-8.24-5.77c-2.72-1.48-5.33-2.5-7.6-3.1
					c-2.26-0.6-4.15-0.86-5.46-0.94c-1.31-0.09-2.04-0.09-2.04-0.14c0-0.02,0.18-0.04,0.53-0.06c0.35-0.01,0.86-0.06,1.52-0.03
					c1.32,0.01,3.25,0.21,5.55,0.77c2.31,0.55,4.98,1.55,7.75,3.02c2.77,1.47,5.63,3.44,8.37,5.8c5.45,4.77,9.53,9.91,12.55,13.52
					c1.49,1.82,2.7,3.3,3.54,4.32C245.57,89.26,246.02,89.83,245.99,89.86z"/>
			</g>
		</g>
	</g>
	<g style="clip-path:url(#SVGID_00000036965377264602040570000005199168172321063829_);">
		<g>
			<g>
				<path class="st0" d="M91.7,267.91c-0.02-0.01,0.02-0.19,0.11-0.54c0.1-0.34,0.24-0.85,0.42-1.51c0.38-1.3,0.94-3.19,1.62-5.51
					c1.37-4.65,3.21-11.1,5.09-18.26c1.87-7.16,3.43-13.68,4.51-18.41c0.54-2.36,0.98-4.28,1.29-5.6c0.16-0.66,0.28-1.17,0.37-1.52
					c0.09-0.35,0.15-0.53,0.17-0.52s0,0.19-0.05,0.55c-0.06,0.35-0.15,0.87-0.26,1.54c-0.24,1.34-0.61,3.27-1.11,5.64
					c-0.99,4.76-2.48,11.3-4.35,18.47c-1.88,7.17-3.79,13.61-5.26,18.23c-0.74,2.31-1.35,4.18-1.8,5.46
					c-0.23,0.64-0.41,1.14-0.53,1.47C91.79,267.75,91.72,267.92,91.7,267.91z"/>
			</g>
		</g>
	</g>
	<g style="clip-path:url(#SVGID_00000036965377264602040570000005199168172321063829_);">
		<g>
			<g>
				<path class="st0" d="M119.55,153.38c-0.02,0-0.06-0.21-0.11-0.61c-0.05-0.4-0.13-1-0.21-1.77c-0.16-1.54-0.36-3.77-0.52-6.53
					c-0.32-5.51-0.49-13.19,0.52-21.59c1-8.4,3.15-15.82,5.29-20.93c1.06-2.56,2.06-4.57,2.82-5.92c0.36-0.68,0.69-1.19,0.89-1.54
					c0.21-0.35,0.33-0.52,0.35-0.51c0.02,0.01-0.07,0.21-0.25,0.57c-0.17,0.37-0.46,0.89-0.79,1.59c-0.69,1.38-1.63,3.4-2.63,5.97
					c-2.04,5.11-4.11,12.49-5.1,20.84c-1,8.35-0.9,16-0.69,21.5c0.11,2.76,0.24,4.99,0.34,6.53c0.04,0.77,0.07,1.37,0.1,1.78
					C119.57,153.17,119.57,153.38,119.55,153.38z"/>
			</g>
		</g>
	</g>
	<g style="clip-path:url(#SVGID_00000036965377264602040570000005199168172321063829_);">
		<g>
			<g>
				<path class="st0" d="M126.47,204.5c-0.02,0-0.07-0.26-0.14-0.77c-0.06-0.51-0.18-1.26-0.26-2.24c-0.15-1.95-0.25-4.79-0.02-8.28
					c0.22-3.49,0.79-7.63,1.61-12.18c0.81-4.55,1.89-9.51,2.76-14.76c1.81-10.49,1.77-20.17,1.7-27.14
					c-0.07-3.49-0.12-6.31-0.16-8.26c-0.01-0.98-0.02-1.73-0.03-2.25c0-0.51,0.01-0.78,0.03-0.79c0.02,0,0.05,0.27,0.09,0.78
					c0.03,0.51,0.08,1.27,0.14,2.24c0.11,1.95,0.25,4.77,0.34,8.26c0.18,6.97,0.28,16.7-1.54,27.24c-0.88,5.27-1.97,10.22-2.8,14.76
					c-0.85,4.53-1.46,8.64-1.73,12.11c-0.28,3.47-0.25,6.29-0.17,8.24c0.04,0.97,0.12,1.73,0.15,2.24
					C126.48,204.23,126.49,204.5,126.47,204.5z"/>
			</g>
		</g>
	</g>
	<g style="clip-path:url(#SVGID_00000036965377264602040570000005199168172321063829_);">
		<g>
			<g>
				<path class="st0" d="M131.85,130.94c-0.01,0-0.01-0.09,0.01-0.27c0.02-0.18,0.05-0.44,0.1-0.78c0.09-0.69,0.25-1.7,0.52-2.98
					c0.52-2.58,1.5-6.28,3.23-10.66c1.72-4.38,4.17-9.44,7.29-14.82c3.14-5.36,7.03-11.07,12.03-16.26
					c2.48-2.61,5.16-4.91,7.89-6.92c2.74-2,5.55-3.69,8.29-5.17c5.47-3,10.81-4.85,15.32-6.17c4.52-1.31,8.22-2.18,10.77-2.82
					c1.28-0.31,2.27-0.55,2.94-0.72c0.34-0.08,0.59-0.14,0.77-0.17c0.17-0.04,0.26-0.05,0.27-0.04c0,0.01-0.08,0.04-0.25,0.1
					c-0.17,0.05-0.42,0.13-0.75,0.23c-0.67,0.19-1.65,0.47-2.91,0.82c-2.53,0.71-6.22,1.64-10.7,3c-4.48,1.36-9.76,3.24-15.18,6.24
					c-2.72,1.49-5.5,3.17-8.21,5.16c-2.7,2-5.35,4.28-7.81,6.87c-4.96,5.14-8.83,10.8-11.98,16.12c-3.14,5.34-5.61,10.36-7.38,14.7
					c-1.77,4.34-2.8,8-3.39,10.55c-0.3,1.28-0.5,2.28-0.62,2.95c-0.07,0.34-0.12,0.6-0.15,0.77
					C131.88,130.85,131.86,130.94,131.85,130.94z"/>
			</g>
		</g>
	</g>
	<g style="clip-path:url(#SVGID_00000036965377264602040570000005199168172321063829_);">
		<g>
			<g>
				<path class="st0" d="M256.72,185.07c-0.01,0.01-0.08-0.09-0.22-0.29c-0.13-0.2-0.33-0.5-0.59-0.89
					c-0.25-0.39-0.56-0.88-0.93-1.46c-0.32-0.6-0.69-1.3-1.1-2.09c-0.43-0.78-0.76-1.71-1.2-2.7c-0.41-1-0.76-2.13-1.16-3.32
					c-0.7-2.43-1.29-5.25-1.69-8.4c-0.8-6.31-0.7-13.88-1.14-22.23c-0.12-2.08-0.26-4.24-0.53-6.38c-0.36-2.15-0.86-4.33-1.38-6.54
					c-1.07-4.42-2.27-8.99-3.59-13.63c-0.67-2.32-1.33-4.62-2.11-6.82c-0.82-2.18-1.8-4.29-2.79-6.33c-2-4.09-4.11-7.92-6.63-11.27
					c-4.8-6.85-9.82-12.5-14.41-16.84c-4.47-4.5-9.02-6.98-11.86-9.1c-1.44-1.04-2.49-1.94-3.15-2.6c-0.34-0.32-0.57-0.59-0.73-0.77
					c-0.16-0.18-0.24-0.27-0.23-0.28c0.02-0.02,0.36,0.34,1.04,0.96c0.68,0.63,1.75,1.5,3.21,2.5c2.86,2.05,7.47,4.49,12.01,8.98
					c4.65,4.31,9.73,9.97,14.57,16.83c2.53,3.35,4.7,7.24,6.71,11.33c1,2.05,1.99,4.16,2.83,6.38c0.79,2.24,1.45,4.53,2.12,6.86
					c1.32,4.65,2.52,9.22,3.58,13.66c0.52,2.22,1.02,4.41,1.38,6.59c0.28,2.21,0.4,4.34,0.52,6.44c0.42,8.38,0.27,15.93,1.01,22.21
					c0.37,3.14,0.93,5.94,1.6,8.36c0.38,1.19,0.71,2.31,1.1,3.31c0.42,0.99,0.74,1.92,1.15,2.7c0.4,0.79,0.75,1.49,1.05,2.1
					c0.35,0.58,0.64,1.08,0.88,1.48c0.24,0.4,0.41,0.71,0.54,0.92C256.68,184.95,256.73,185.06,256.72,185.07z"/>
			</g>
		</g>
	</g>
	<g style="clip-path:url(#SVGID_00000036965377264602040570000005199168172321063829_);">
		<g>
			<g>
				<path class="st0" d="M122.77,204.28c-0.04,0.01-0.12-0.34-0.22-0.98c-0.11-0.64-0.2-1.57-0.26-2.72
					c-0.12-2.31,0.05-5.51,0.65-8.98c0.6-3.47,1.43-6.54,2.07-8.75c0.64-2.21,1.1-3.55,1.18-3.53c0.08,0.02-0.24,1.41-0.78,3.64
					c-0.54,2.23-1.3,5.31-1.9,8.74c-0.6,3.44-0.83,6.59-0.81,8.88C122.71,202.86,122.87,204.27,122.77,204.28z"/>
			</g>
		</g>
	</g>
	<g style="clip-path:url(#SVGID_00000036965377264602040570000005199168172321063829_);">
		<g>
			<g>
				<path class="st0" d="M138.63,102.96c-0.03-0.02,0.19-0.46,0.62-1.23c0.43-0.78,1.09-1.88,1.94-3.22c1.7-2.68,4.23-6.28,7.34-10
					c3.12-3.72,6.21-6.84,8.55-8.99c1.17-1.08,2.14-1.92,2.83-2.48c0.69-0.56,1.08-0.86,1.11-0.83c0.03,0.03-0.32,0.38-0.96,1
					c-0.64,0.62-1.56,1.51-2.69,2.61c-2.26,2.22-5.29,5.37-8.39,9.07c-3.09,3.7-5.66,7.24-7.45,9.85c-0.88,1.31-1.6,2.38-2.09,3.11
					C138.95,102.58,138.66,102.98,138.63,102.96z"/>
			</g>
		</g>
	</g>
	<g style="clip-path:url(#SVGID_00000036965377264602040570000005199168172321063829_);">
		<g>
			<g>
				<path class="st0" d="M273.85,156.87c-0.02,0-0.08-0.32-0.17-0.93c-0.08-0.61-0.26-1.5-0.48-2.65c-0.46-2.3-1.27-5.59-2.4-9.63
					c-2.27-8.07-5.85-19.1-10.39-31.07c-4.54-11.96-9.21-22.59-13.21-29.95c-1.99-3.69-3.81-6.55-5.24-8.41
					c-0.73-0.91-1.29-1.63-1.74-2.05c-0.42-0.45-0.64-0.69-0.63-0.7s0.26,0.2,0.71,0.62c0.47,0.4,1.07,1.1,1.83,2
					c1.49,1.82,3.38,4.67,5.42,8.35c4.1,7.34,8.84,17.97,13.39,29.95c4.54,11.99,8.07,23.05,10.24,31.17
					c1.09,4.06,1.83,7.38,2.23,9.7c0.19,1.16,0.33,2.06,0.38,2.68C273.85,156.54,273.87,156.87,273.85,156.87z"/>
			</g>
		</g>
	</g>
	<g style="clip-path:url(#SVGID_00000036965377264602040570000005199168172321063829_);">
		<g>
			<g>
				<path class="st0" d="M289.71,255.11c-0.02,0.01-0.14-0.13-0.35-0.4c-0.21-0.28-0.52-0.68-0.92-1.21
					c-0.78-1.07-1.86-2.65-3.09-4.67c-2.47-4.02-5.5-9.84-8.08-16.58c-1.31-3.36-2.28-6.67-3.07-9.7c-0.33-1.53-0.71-2.97-0.9-4.35
					c-0.11-0.69-0.22-1.35-0.33-1.99c-0.06-0.64-0.13-1.26-0.19-1.85c-0.05-0.59-0.13-1.15-0.15-1.68
					c-0.01-0.53-0.02-1.04-0.03-1.51c-0.01-0.47-0.02-0.91-0.02-1.31c0.01-0.4,0.05-0.77,0.07-1.1c0.06-0.66,0.1-1.17,0.13-1.52
					c0.04-0.35,0.07-0.53,0.09-0.52c0.02,0,0.03,0.19,0.03,0.53c-0.01,0.35-0.01,0.86-0.02,1.52c0,0.33-0.03,0.69-0.02,1.09
					c0.02,0.4,0.04,0.83,0.07,1.3c0.02,0.47,0.05,0.96,0.07,1.49c0.03,0.53,0.12,1.08,0.19,1.66c0.07,0.58,0.14,1.19,0.22,1.83
					c0.11,0.63,0.23,1.29,0.36,1.97c0.21,1.37,0.6,2.79,0.94,4.31c0.81,3,1.78,6.28,3.09,9.62c2.57,6.7,5.52,12.52,7.89,16.58
					c1.18,2.04,2.2,3.64,2.92,4.75c0.36,0.55,0.64,0.98,0.83,1.27C289.64,254.94,289.73,255.1,289.71,255.11z"/>
			</g>
		</g>
	</g>
	<g style="opacity:0.39;clip-path:url(#SVGID_00000036965377264602040570000005199168172321063829_);">
		<g>
			<g>
				<path class="st13" d="M195.26,223.12c0.01,0.02-0.15,0.08-0.44,0.19c-0.29,0.1-0.72,0.21-1.26,0.31
					c-1.08,0.21-2.6,0.33-4.27,0.3c-1.67-0.04-3.19-0.23-4.26-0.48c-0.54-0.12-0.96-0.26-1.25-0.37c-0.29-0.12-0.44-0.19-0.43-0.21
					c0.02-0.05,0.65,0.18,1.72,0.37c1.07,0.2,2.56,0.35,4.22,0.39c1.66,0.03,3.16-0.06,4.24-0.21
					C194.6,223.28,195.25,223.08,195.26,223.12z"/>
			</g>
		</g>
	</g>
	<g style="clip-path:url(#SVGID_00000036965377264602040570000005199168172321063829_);">
		<path class="st22" d="M186.39,281.83c-12.33-1.82-25.35-4.31-33.48-19.88c-17.22,7.33-105.46,0.84-120.41,84.46
			c65.21,19.23,128.73,37,168.4,34.32c33.99,4.86,94.78-13.54,158.02-34.07c-15.33-83.62-104.13-77.13-121.79-84.46
			C228.81,277.77,204.49,283.22,186.39,281.83z"/>
		<g class="st23">
			<g>
				<g>
					<path class="st24" d="M180.23,282.13c0.01-0.08,1.26,0,3.27,0.16c2.01,0.16,4.79,0.42,7.85,0.53c3.07,0.11,5.84-0.01,7.84-0.21
						c2-0.2,3.23-0.43,3.25-0.33c0.02,0.06-1.19,0.44-3.2,0.74c-2.01,0.31-4.82,0.5-7.91,0.39c-3.09-0.11-5.87-0.43-7.88-0.7
						C181.45,282.43,180.22,282.21,180.23,282.13z"/>
				</g>
			</g>
		</g>
		<g class="st23">
			<g>
				<g>
					<path class="st24" d="M167.21,277.41c-0.05,0.06-1.05-0.55-2.63-1.62c-1.57-1.07-3.72-2.61-5.95-4.5
						c-2.22-1.9-4.04-3.84-5.2-5.36c-1.17-1.52-1.73-2.57-1.68-2.6c0.08-0.05,0.76,0.91,2,2.34c1.23,1.44,3.07,3.31,5.26,5.18
						c2.2,1.88,4.3,3.45,5.81,4.61C166.34,276.61,167.26,277.35,167.21,277.41z"/>
				</g>
			</g>
		</g>
		<g class="st23">
			<g>
				<g>
					<path class="st24" d="M35.06,345.79c-0.03,0-0.03-0.33-0.01-0.95c0.01-0.62,0.11-1.54,0.27-2.71c0.34-2.34,1.07-5.7,2.36-9.73
						c2.59-8.03,7.42-18.86,15.27-29.17c7.78-10.37,17.32-17.67,24.95-21.35c3.79-1.92,7.08-2.94,9.33-3.65
						c1.14-0.3,2.04-0.5,2.65-0.64c0.61-0.14,0.93-0.19,0.94-0.16s-0.3,0.14-0.89,0.33c-0.59,0.18-1.47,0.45-2.59,0.8
						c-2.21,0.8-5.44,1.9-9.15,3.87c-7.47,3.79-16.82,11.06-24.53,21.33c-7.77,10.21-12.66,20.91-15.38,28.84
						c-1.35,3.98-2.17,7.29-2.61,9.59C35.22,344.49,35.14,345.79,35.06,345.79z"/>
				</g>
			</g>
		</g>
		<g id="Capa_4_00000142145559199988365970000003485555896676485800_">
			<path class="st25" d="M259.03,339.4h0.55c0.28,0,0.48,0.16,0.48,0.43c0,0.27-0.19,0.44-0.49,0.44h-0.42v0.68h-0.12V339.4z
				 M259.15,340.16h0.43c0.25,0,0.35-0.13,0.35-0.33c0.01-0.17-0.12-0.32-0.29-0.33c-0.02,0-0.04,0-0.05,0h-0.44V340.16z"/>
			<path class="st25" d="M260.52,340.22v0.72h-0.12v-1.55h0.55c0.31,0,0.47,0.16,0.47,0.41c0.01,0.18-0.12,0.33-0.29,0.36
				c0.16,0.04,0.27,0.14,0.27,0.41v0.06c-0.01,0.11,0,0.21,0.02,0.31h-0.12c-0.02-0.11-0.03-0.22-0.02-0.32v-0.04
				c0-0.25-0.08-0.36-0.37-0.36H260.52z M260.52,340.11h0.37c0.27,0,0.4-0.1,0.4-0.31s-0.12-0.3-0.37-0.3h-0.41V340.11z"/>
			<path class="st25" d="M263.12,340.16c0,0.42-0.22,0.81-0.7,0.81c-0.44,0-0.69-0.35-0.69-0.8c0-0.45,0.25-0.8,0.71-0.8
				C262.85,339.37,263.12,339.71,263.12,340.16z M261.85,340.16c0,0.36,0.2,0.69,0.57,0.69c0.4,0,0.57-0.33,0.57-0.7
				s-0.19-0.68-0.56-0.68C262.02,339.49,261.85,339.82,261.85,340.16L261.85,340.16z"/>
			<path class="st25" d="M263.81,340.95v-0.58c0-0.01,0-0.02-0.01-0.04l-0.55-0.93h0.14c0.16,0.26,0.43,0.72,0.49,0.84
				c0.07-0.11,0.34-0.57,0.5-0.84h0.13l-0.58,0.94c0,0.01-0.01,0.02-0.01,0.03v0.58H263.81z"/>
			<path class="st25" d="M265.66,340.18h-0.79v0.65h0.87l-0.02,0.11h-0.97v-1.55h0.95v0.11h-0.83v0.57h0.79V340.18z"/>
			<path class="st25" d="M267.23,340.53c-0.06,0.27-0.31,0.45-0.58,0.43c-0.44,0-0.68-0.35-0.68-0.79c0-0.42,0.23-0.8,0.68-0.8
				c0.33,0,0.53,0.19,0.58,0.44h-0.12c-0.06-0.21-0.25-0.35-0.47-0.33c-0.39,0-0.55,0.35-0.55,0.69c0,0.33,0.16,0.68,0.55,0.68
				c0.21,0.01,0.4-0.12,0.46-0.32L267.23,340.53z"/>
			<path class="st25" d="M267.91,339.51h-0.52v-0.11h1.17v0.11h-0.52v1.44h-0.12V339.51z"/>
			<path class="st25" d="M270.07,340.16c0,0.42-0.22,0.81-0.7,0.81c-0.44,0-0.69-0.35-0.69-0.8c0-0.45,0.25-0.8,0.71-0.8
				C269.8,339.37,270.07,339.71,270.07,340.16z M268.8,340.16c0,0.36,0.2,0.69,0.57,0.69c0.4,0,0.57-0.33,0.57-0.7
				s-0.19-0.68-0.56-0.68C268.98,339.49,268.8,339.82,268.8,340.16L268.8,340.16z"/>
			<path class="st25" d="M271.94,340.18h-0.79v0.65h0.87l-0.02,0.11h-0.97v-1.55h0.95v0.11h-0.83v0.57h0.79V340.18z"/>
			<path class="st25" d="M272.34,339.4h0.51c0.43,0,0.72,0.3,0.72,0.76c0,0.47-0.29,0.79-0.72,0.79h-0.51V339.4z M272.46,340.84
				h0.38c0.41,0,0.61-0.29,0.61-0.67c0-0.34-0.18-0.66-0.61-0.66h-0.38V340.84z"/>
			<path class="st25" d="M274.06,339.4v0.94c0,0.41,0.23,0.52,0.45,0.52c0.26,0,0.45-0.11,0.45-0.52v-0.94h0.12v0.93
				c0,0.49-0.26,0.64-0.58,0.64c-0.32,0-0.57-0.17-0.57-0.62v-0.95H274.06z"/>
			<path class="st25" d="M276.71,340.53c-0.06,0.27-0.31,0.45-0.58,0.43c-0.44,0-0.68-0.35-0.68-0.79c0-0.42,0.23-0.8,0.68-0.8
				c0.33,0,0.53,0.19,0.58,0.44h-0.12c-0.06-0.21-0.25-0.35-0.47-0.33c-0.39,0-0.55,0.35-0.55,0.69c0,0.33,0.16,0.68,0.55,0.68
				c0.21,0.01,0.4-0.12,0.46-0.32L276.71,340.53z"/>
			<path class="st25" d="M277.21,340.41l-0.2,0.54h-0.12l0.57-1.55h0.14l0.59,1.55h-0.13l-0.2-0.54H277.21z M277.82,340.3
				c-0.17-0.46-0.26-0.68-0.29-0.79l0,0c-0.04,0.12-0.14,0.39-0.28,0.79H277.82z"/>
			<path class="st25" d="M278.61,339.51h-0.52v-0.11h1.17v0.11h-0.52v1.44h-0.12V339.51z"/>
			<path class="st25" d="M279.63,339.4v1.55h-0.12v-1.55H279.63z"/>
			<path class="st25" d="M280.47,340.95l-0.58-1.55h0.13l0.3,0.81c0.09,0.23,0.18,0.49,0.22,0.62l0,0c0.03-0.11,0.14-0.39,0.22-0.62
				l0.31-0.82h0.13l-0.6,1.55H280.47z"/>
			<path class="st25" d="M282.79,340.16c0,0.42-0.22,0.81-0.71,0.81c-0.44,0-0.69-0.35-0.69-0.8c0-0.45,0.25-0.8,0.71-0.8
				C282.52,339.37,282.79,339.71,282.79,340.16z M281.52,340.16c0,0.36,0.2,0.69,0.57,0.69c0.4,0,0.57-0.33,0.57-0.7
				s-0.19-0.68-0.57-0.68C281.69,339.49,281.52,339.82,281.52,340.16L281.52,340.16z"/>
			<path class="st25" d="M259.25,346.77l-0.57,0.11l-0.73-3.94l0,0c-0.09,0.19-0.3,0.63-0.61,1.32c-0.31,0.69-0.62,1.38-0.92,2.08
				h-0.49c-0.28-0.64-0.59-1.34-0.92-2.09s-0.54-1.19-0.59-1.31h-0.01c-0.01,0.06-0.11,0.51-0.28,1.34s-0.34,1.7-0.5,2.6l-0.54-0.1
				c0.23-1.01,0.45-2.01,0.66-3c0.21-0.99,0.32-1.53,0.33-1.61l0.56-0.08l0.5,1.13c0.31,0.7,0.67,1.51,1.09,2.42h0.02
				c0.32-0.72,0.66-1.48,1.01-2.29c0.36-0.81,0.54-1.23,0.55-1.26l0.53,0.04c0.01,0.05,0.1,0.56,0.29,1.54
				C258.81,344.65,259.02,345.68,259.25,346.77z"/>
			<path class="st25" d="M263.45,346.84h-0.47c-0.29,0-0.65,0-1.08,0c-0.3,0-0.57,0-0.82,0c-0.25,0-0.46,0-0.63,0
				c0-0.14,0.01-0.43,0.01-0.89c0-0.45,0-0.92,0-1.4c0-0.26,0-0.62,0-1.05c0-0.44-0.01-0.89-0.01-1.35h0.62c0.25,0,0.51,0,0.78,0
				c0.45,0,0.81,0,1.09,0h0.46v0.49h-0.44c-0.27,0-0.61,0-1.01-0.01h-0.52h-0.4c0,0.26,0,0.53-0.01,0.79s-0.01,0.51-0.01,0.75h0.37
				h0.39c0.41,0,0.78,0,1.11,0l0.52-0.01v0.49h-0.58c-0.37,0-0.7,0-1.01,0h-0.4h-0.39c0,0.44,0,0.79,0,1.05c0,0.26,0,0.48,0.01,0.65
				c0.14,0,0.31,0,0.5,0.01h0.64c0.35,0,0.64,0,0.88,0h0.4L263.45,346.84z"/>
			<path class="st25" d="M270.55,346.77l-0.57,0.11l-0.73-3.94l0,0c-0.09,0.19-0.3,0.63-0.61,1.32c-0.31,0.69-0.62,1.39-0.92,2.08
				h-0.49c-0.28-0.64-0.59-1.34-0.92-2.09c-0.34-0.75-0.54-1.19-0.6-1.31h-0.01c-0.01,0.06-0.11,0.51-0.28,1.34
				c-0.18,0.83-0.34,1.7-0.5,2.6l-0.54-0.1c0.23-1.01,0.45-2.01,0.66-3c0.2-0.99,0.31-1.53,0.33-1.61l0.56-0.08l0.5,1.13
				c0.31,0.7,0.67,1.51,1.09,2.42h0.02c0.32-0.72,0.66-1.48,1.01-2.29c0.36-0.81,0.54-1.23,0.55-1.26l0.53,0.04
				c0.01,0.05,0.1,0.56,0.29,1.54C270.12,344.65,270.32,345.68,270.55,346.77z"/>
			<path class="st25" d="M275.93,344.49c0,0.36-0.06,0.71-0.19,1.05c-0.11,0.29-0.29,0.56-0.51,0.79c-0.41,0.43-0.98,0.67-1.57,0.66
				c-0.28,0-0.56-0.05-0.82-0.15c-0.26-0.1-0.5-0.25-0.7-0.44c-0.24-0.23-0.43-0.5-0.55-0.81c-0.14-0.35-0.22-0.72-0.21-1.1
				c0-0.34,0.05-0.67,0.17-0.99c0.11-0.3,0.28-0.57,0.49-0.8c0.2-0.22,0.45-0.39,0.73-0.51c0.56-0.24,1.2-0.24,1.77-0.01
				c0.26,0.11,0.5,0.27,0.7,0.47c0.23,0.24,0.41,0.52,0.52,0.83C275.86,343.81,275.93,344.15,275.93,344.49z M275.33,344.55
				c0-0.31-0.05-0.61-0.15-0.9c-0.09-0.28-0.25-0.53-0.47-0.74c-0.14-0.13-0.3-0.24-0.47-0.32c-0.19-0.08-0.39-0.11-0.59-0.11
				c-0.41,0-0.8,0.16-1.08,0.45c-0.2,0.2-0.35,0.44-0.44,0.7c-0.21,0.57-0.21,1.2,0,1.77c0.1,0.26,0.25,0.49,0.45,0.68
				c0.14,0.13,0.3,0.24,0.47,0.31c0.38,0.15,0.8,0.15,1.17,0c0.18-0.08,0.35-0.19,0.49-0.33c0.19-0.18,0.33-0.4,0.43-0.64
				C275.27,345.14,275.33,344.85,275.33,344.55L275.33,344.55z"/>
			<path class="st25" d="M280.9,346.56l-0.44,0.36c-0.05-0.05-0.23-0.26-0.55-0.61c-0.31-0.35-0.8-0.9-1.45-1.65v-0.03
				c0.12-0.04,0.24-0.09,0.36-0.15c0.13-0.07,0.26-0.16,0.37-0.26c0.09-0.08,0.17-0.18,0.23-0.29c0.07-0.15,0.1-0.31,0.1-0.47
				c0-0.17-0.05-0.33-0.14-0.47c-0.1-0.13-0.24-0.23-0.39-0.29c-0.14-0.05-0.28-0.08-0.43-0.09c-0.15-0.01-0.29-0.02-0.42-0.02
				h-0.19h-0.1c0,0.44-0.01,0.84-0.01,1.18c0,0.34,0,0.58,0,0.72c0,0.32,0,0.76,0.01,1.31s0.01,0.9,0.01,1.04h-0.58
				c0-0.14,0-0.41,0.01-0.82c0.01-0.4,0.01-0.91,0.01-1.51v-0.65c0-0.32-0.01-0.89-0.02-1.73l0.35-0.01c0.21,0,0.41-0.01,0.58-0.01
				c0.2,0,0.4,0.01,0.59,0.03c0.19,0.02,0.38,0.07,0.56,0.15c0.22,0.09,0.41,0.24,0.55,0.43c0.14,0.2,0.21,0.43,0.2,0.68
				c0.01,0.31-0.1,0.6-0.31,0.83c-0.17,0.19-0.36,0.36-0.58,0.49v0.02c0.32,0.38,0.67,0.76,1.06,1.16
				C280.67,346.32,280.88,346.53,280.9,346.56z"/>
			<path class="st25" d="M282.49,346.85h-0.58c0-0.14,0.01-0.39,0.01-0.75c0-0.36,0.01-0.88,0.01-1.55c0-0.27,0-0.62,0-1.05
				s-0.01-0.89-0.01-1.35h0.58c0,0.34-0.01,0.72-0.01,1.17c0,0.44-0.01,0.81-0.01,1.09c0,0.71,0,1.26,0.01,1.65
				C282.49,346.44,282.5,346.71,282.49,346.85z"/>
			<path class="st25" d="M288.12,346.66l-0.55,0.28c-0.01-0.03-0.09-0.2-0.22-0.52c-0.14-0.32-0.33-0.74-0.55-1.25h-2.09
				c-0.25,0.55-0.44,0.97-0.57,1.27c-0.13,0.3-0.21,0.47-0.22,0.5l-0.47-0.25c0.06-0.12,0.31-0.66,0.75-1.61
				c0.44-0.95,0.9-1.95,1.38-3h0.46c0.47,1.05,0.93,2.07,1.38,3.05C287.87,346.11,288.11,346.62,288.12,346.66z M286.6,344.73
				c-0.12-0.29-0.26-0.58-0.39-0.9c-0.14-0.31-0.28-0.64-0.44-0.98h-0.01c-0.12,0.26-0.26,0.57-0.43,0.95
				c-0.17,0.38-0.3,0.68-0.41,0.92l0,0L286.6,344.73L286.6,344.73z"/>
			<path class="st26" d="M284.32,315.01c-1.41-0.62-2.91,0.6-3.72,2.39c-0.88,1.93-0.87,4.58-2.1,6.71
				c-0.91,1.75-2.44,2.66-3.74,2.14c-1.3-0.52-1.5-1.89-1.04-3.91c2.1-7.2,5.25-7.75,7.12-12.81c0.42-1.66-0.09-3.77-1.67-4.25
				c-1.82-0.56-3.43,1.01-4.47,2.75c-1.86,3.53-0.29,6.78-1.8,11.3c-0.44,1.81-1.62,3.22-3.02,2.98c-1.4-0.24-2.07-1.11-2.29-3.37
				c-0.46-3.37-0.98-7.19-1.15-8.42c-0.27-2.05-1.82-3.56-3.46-3.37c-1.64,0.19-2.69,2.02-2.67,4.06c0.1,1.18,0.36,1.95,0.85,2.77
				c2.21,3.36,4.88,4.62,6.99,10.52c0.75,1.99,0.54,3.71-0.74,4.34c-1.28,0.63-3,0.04-3.78-1.83c-0.96-2.3-2.24-4.02-4.19-4.92
				c-1.2-0.64-2.79-0.7-3.41,0.02c-0.62,0.73-0.17,2.15,0.42,2.88c1.46,1.82,3.32,1.82,5.45,2.99c1.18,0.65,2.99,1.66,4.4,3.47
				c2.38-3.92,6.55-4.67,9.88-2.04c-3.83-2.1-7.01-1.48-9.86,2.05c0.36,0.47,0.68,0.97,0.96,1.49c1.26,2.88,1.31,4.1,4.65,4.1
				c4.94,0,3.14-4.58,5.32-8.49c2.36-4.58,3.21-4.53,6.2-7.16c0.68-0.6,1.52-1.2,1.95-2.47
				C286.02,317.13,285.48,315.52,284.32,315.01z M275.2,311.51c0.86,0.41,1.7,0.15,2.15,0.01c0.77-0.24,1.44-0.72,1.92-1.38
				c0.93-1.33,0.9-3.41-0.06-3.95c-0.46-0.26-1.02-0.09-1.19-0.05c-0.85,0.25-1.33,1.05-1.43,1.72c-0.11,0.74,0.2,1.72,0.8,1.83
				c0.46,0.08,1.02-0.36,1.16-0.95c0.13-0.55-0.15-1.16-0.72-1.48c0.61,0.33,0.95,0.95,0.86,1.55c-0.08,0.57-0.51,1.19-1.19,1.2
				c-0.8,0.01-1.26-0.87-1.35-1.56c-0.06-1.08,0.51-2.1,1.45-2.62c0.26-0.14,0.99-0.38,1.56-0.16c0.8,0.3,1.09,1.28,1.17,1.74
				c0.05,0.29,0.17,1.93-1.02,3.23c-0.66,0.7-1.55,1.14-2.5,1.26c-0.45,0.05-1.13,0.13-1.79-0.27c-0.84-0.5-1.02-1.39-1.06-1.57
				C274.17,310.7,274.61,311.22,275.2,311.51L275.2,311.51z M265.92,311.49c-0.11,0.93-0.57,1.78-1.27,2.39
				c-0.34,0.29-0.85,0.72-1.63,0.76c-0.99,0.05-1.68-0.57-1.82-0.71c0.17,0.12,0.91,0.64,1.88,0.5c0.95-0.13,1.48-0.81,1.76-1.17
				c0.48-0.62,0.74-1.39,0.72-2.17c-0.06-1.59-1.34-3.28-2.45-3.19c-0.53,0.04-0.89,0.48-1,0.61c-0.55,0.66-0.45,1.58-0.12,2.19
				c0.36,0.66,1.22,1.3,1.76,1.06c0.43-0.19,0.61-0.86,0.37-1.41c-0.23-0.53-0.83-0.86-1.49-0.82c0.7-0.06,1.35,0.26,1.65,0.8
				c0.28,0.51,0.31,1.25-0.24,1.63c-0.64,0.45-1.56-0.03-2.06-0.54c-0.75-0.92-0.84-2.09-0.41-2.93c0.13-0.25,0.58-0.85,1.18-0.98
				c0.84-0.19,1.67,0.44,2.02,0.78C265,308.51,266.1,309.78,265.92,311.49L265.92,311.49z M260.64,324.93
				c-0.03,0.31-0.07,0.79-0.46,1.19c-0.5,0.51-1.19,0.54-1.34,0.55c0.16-0.02,0.82-0.13,1.26-0.68s0.36-1.14,0.32-1.47
				c-0.07-0.56-0.34-1.08-0.76-1.46c-0.87-0.78-2.44-1-2.98-0.4c-0.26,0.28-0.22,0.69-0.21,0.81c0.06,0.61,0.6,1.02,1.09,1.16
				c0.54,0.15,1.33,0.05,1.49-0.34c0.13-0.3-0.13-0.74-0.55-0.9c-0.43-0.14-0.91-0.02-1.22,0.33c0.32-0.37,0.82-0.53,1.29-0.41
				c0.42,0.12,0.83,0.48,0.74,0.94c-0.1,0.55-0.84,0.76-1.37,0.75c-0.89-0.09-1.54-0.64-1.76-1.28c-0.07-0.19-0.14-0.71,0.1-1.08
				c0.34-0.51,1.12-0.6,1.48-0.61c0.22,0,1.48,0.1,2.29,1.05C260.48,323.6,260.69,324.26,260.64,324.93L260.64,324.93z
				 M273.63,336.73c0.18-0.19,0.84-0.93,0.82-1.99c0-0.12-0.05-1.56-1.24-2.22c-0.19-0.1-0.86-0.47-1.56-0.22
				c-0.8,0.28-1.27,1.23-1.05,2.03c0.21,0.77,0.97,1.57,1.72,1.3c0.39-0.17,0.62-0.57,0.58-1c-0.07-0.52-0.62-0.95-1.31-0.92
				c0.59-0.15,1.19,0.11,1.45,0.58c0.21,0.42,0.13,0.92-0.19,1.26c-0.43,0.48-1.11,0.4-1.19,0.39c-0.8-0.11-1.3-0.89-1.45-1.48
				c-0.23-0.92,0.21-2.09,1.19-2.48c0.87-0.34,1.73,0.11,1.92,0.21c0.98,0.51,1.25,1.47,1.31,1.72
				C274.99,335.45,273.71,336.65,273.63,336.73z M267.87,334.33c0.2-4.8,5.06-5.77,8.13-2.91
				C272.03,328.74,268.49,330.47,267.87,334.33L267.87,334.33z M284.21,319.33c-0.43,0.6-1.05,1.04-1.76,1.22
				c-0.34,0.09-0.85,0.21-1.4-0.02c-0.47-0.21-0.83-0.6-1-1.09c0.23,0.46,0.62,0.81,1.11,0.97c0.71,0.22,1.32-0.06,1.65-0.22
				c0.56-0.26,1.02-0.71,1.3-1.26c0.55-1.12,0.29-2.7-0.5-3.01c-0.38-0.15-0.79,0.04-0.91,0.09c-0.62,0.28-0.9,0.94-0.89,1.47
				c0,0.57,0.36,1.3,0.82,1.31c0.36,0.01,0.74-0.39,0.78-0.85c0.04-0.44-0.25-0.87-0.72-1.06c0.5,0.19,0.83,0.63,0.84,1.1
				c0,0.44-0.25,0.97-0.77,1.05c-0.61,0.09-1.06-0.54-1.22-1.06c-0.17-0.81,0.14-1.65,0.8-2.16c0.18-0.13,0.71-0.39,1.17-0.29
				c0.65,0.15,0.99,0.86,1.1,1.21C284.69,316.97,284.98,318.21,284.21,319.33z"/>
		</g>
	</g>
	<g style="clip-path:url(#SVGID_00000036965377264602040570000005199168172321063829_);">
		<g>
			<g>
				<path class="st0" d="M252.27,227.8c-0.01,0-0.05-0.09-0.11-0.26c-0.06-0.18-0.15-0.44-0.27-0.79c-0.23-0.7-0.55-1.74-0.92-3.09
					c-0.73-2.7-1.67-6.65-2.29-11.63c-0.63-4.97-0.92-10.96-0.42-17.57c0.46-6.61,1.67-13.8,2.66-21.35
					c0.49-3.78,0.9-7.47,1.07-11.06c0.19-3.58,0.17-7.04-0.01-10.34c-0.36-6.58-1.32-12.46-2.45-17.32
					c-1.13-4.86-2.39-8.7-3.33-11.33c-0.46-1.32-0.85-2.33-1.11-3.02c-0.13-0.35-0.22-0.61-0.29-0.79
					c-0.06-0.18-0.09-0.27-0.08-0.28c0.01,0,0.05,0.08,0.13,0.25c0.08,0.17,0.19,0.43,0.34,0.77c0.3,0.67,0.72,1.67,1.22,2.98
					c1,2.61,2.32,6.45,3.51,11.32c1.18,4.86,2.2,10.77,2.59,17.39c0.2,3.31,0.22,6.79,0.04,10.39c-0.17,3.6-0.58,7.32-1.07,11.1
					c-1,7.57-2.22,14.73-2.7,21.31c-0.53,6.57-0.29,12.53,0.29,17.48c0.57,4.96,1.43,8.91,2.1,11.62c0.33,1.36,0.61,2.4,0.81,3.11
					c0.09,0.36,0.17,0.63,0.21,0.81C252.26,227.7,252.27,227.8,252.27,227.8z"/>
			</g>
		</g>
	</g>
	<g style="clip-path:url(#SVGID_00000036965377264602040570000005199168172321063829_);">
		<g>
			<g>
				<path class="st0" d="M149.52,257.09c-0.16,0.01-1.01-7.67-1.89-17.16s-1.47-17.2-1.31-17.21c0.16-0.01,1.01,7.67,1.89,17.16
					C149.1,249.37,149.68,257.07,149.52,257.09z"/>
			</g>
		</g>
	</g>
</g>
</svg>
