<?xml version="1.0" encoding="UTF-8"?><svg id="Capa_1" xmlns="http://www.w3.org/2000/svg" viewBox="0 0 1062.23 307.73"><defs><style>.cls-1,.cls-2{fill:#fff;}.cls-2{font-family:Skia-Regular, Skia;font-size:91.72px;font-variation-settings:'wght' 1, 'wdth' 1;}</style></defs><path class="cls-1" d="M460.67,168.99l-10.91,2.14-13.87-75.34h0c-1.75,3.61-5.62,12.02-11.61,25.23-5.99,13.22-11.83,26.46-17.54,39.71h-9.16c-5.34-12.22-11.23-25.53-17.69-39.93-6.45-14.3-10.2-22.64-11.33-24.99h0c-.26,1.16-2.09,9.72-5.47,25.66-3.38,15.95-6.58,32.45-9.59,49.52l-10.33-1.86c4.48-19.29,8.67-38.4,12.56-57.34s6.02-29.21,6.38-30.79l10.66-1.56,9.5,21.63c5.89,13.38,12.81,28.8,20.77,46.25h.4c6.11-13.69,12.56-28.28,19.34-43.78l10.6-24.1,10.14,.82c.15,.98,1.99,10.78,5.59,29.42,3.6,18.64,7.21,38.37,11.55,59.3Z"/><path class="cls-1" d="M540.86,170.18h-57.13c0-2.6,.18-8.22,.24-16.83,.06-8.62,0-17.57,0-26.79v-20.07c0-8.31,0-16.96-.28-25.85h56.27v9.16h-45.24v29.54h45.52v9.16h-45.64v32.63h46.28l-.03,9.04Z"/><path class="cls-1" d="M676.62,168.99l-10.94,2.14-13.84-75.34h0c-1.77,3.6-5.62,12.04-11.64,25.23-6.02,13.2-11.85,26.49-17.54,39.71h-9.16c-5.32-12.22-11.2-25.53-17.66-39.93-6.46-14.4-10.24-22.73-11.36-24.99h0c-.26,1.16-2.08,9.72-5.44,25.66-3.36,15.95-6.57,32.45-9.62,49.52l-10.3-1.86c4.46-19.29,8.65-38.4,12.56-57.34,3.91-18.94,6.03-29.21,6.35-30.79l10.69-1.56c.43,1.04,3.59,8.25,9.5,21.63,5.91,13.38,12.83,28.8,20.77,46.25h.4c6.11-13.69,12.56-28.28,19.34-43.78,6.78-15.5,10.32-23.53,10.6-24.1l10.14,.82c.12,.98,1.98,10.78,5.56,29.42,3.58,18.64,7.44,38.4,11.58,59.3Z"/><path class="cls-1" d="M779.24,125.39c.08,6.84-1.19,13.63-3.73,19.98-2.19,5.61-5.49,10.71-9.71,15-4,4.11-8.79,7.36-14.08,9.56-5.07,2.05-10.48,3.09-15.95,3.05-5.37,.03-10.69-.93-15.7-2.84-4.95-1.92-9.47-4.81-13.29-8.49-4.51-4.32-8.07-9.52-10.48-15.27-2.74-6.63-4.11-13.75-4-20.93-.12-6.41,.92-12.78,3.05-18.82,2.1-5.67,5.32-10.87,9.47-15.27,3.88-4.2,8.61-7.53,13.87-9.78,10.74-4.5,22.82-4.56,33.6-.18,5.02,2.12,9.56,5.24,13.35,9.16,4.4,4.52,7.79,9.91,9.96,15.82,2.33,6.07,3.56,12.5,3.64,19Zm-11.43,1.1c-.04-5.85-1.08-11.66-3.05-17.17-1.77-5.36-4.82-10.2-8.89-14.11-2.65-2.58-5.76-4.65-9.16-6.11-3.54-1.47-7.35-2.2-11.18-2.14-3.87-.04-7.7,.7-11.27,2.17-3.53,1.52-6.73,3.69-9.44,6.42-3.71,3.78-6.55,8.31-8.34,13.29-4.02,10.91-4.02,22.9,0,33.82,1.89,4.9,4.83,9.32,8.62,12.95,2.65,2.58,5.76,4.66,9.16,6.11,7.18,2.97,15.24,2.97,22.42,0,3.49-1.45,6.69-3.52,9.44-6.11,3.54-3.48,6.35-7.63,8.25-12.22,2.33-5.32,3.51-11.08,3.45-16.89h0Z"/><path class="cls-1" d="M874.28,164.95l-8.4,6.9c-.98-1.04-4.46-4.92-10.45-11.64-5.99-6.72-15.22-17.24-27.71-31.56v-.61c2.37-.75,4.65-1.78,6.78-3.05,2.56-1.34,4.95-2.98,7.12-4.89,1.74-1.64,3.2-3.55,4.34-5.65,1.35-2.8,1.98-5.88,1.83-8.98,.08-3.19-.88-6.32-2.72-8.92-1.89-2.54-4.49-4.44-7.48-5.47-2.63-.99-5.39-1.59-8.19-1.77-2.87-.21-5.5-.31-7.91-.31h-5.53v61.28c0,10.54,0,17.11,.18,19.8h-11.18c0-2.66,0-7.88,.21-15.58,.21-7.7,0-17.35,0-28.84v-12.43c0-6.11,0-17.05-.34-33.02h17.84c3.79,0,7.57,.23,11.33,.67,3.7,.52,7.31,1.55,10.72,3.05,4.22,1.7,7.86,4.58,10.51,8.28,2.65,3.76,4.02,8.27,3.91,12.86,.18,5.85-1.92,11.54-5.87,15.86-3.23,3.65-6.96,6.82-11.09,9.41v.34c6.11,7.19,12.83,14.58,20.16,22.18,7.45,7.39,11.39,11.52,11.91,12.1Z"/><path class="cls-1" d="M904.68,170.3h-11.06c0-2.66,0-7.45,.18-14.36s.15-16.77,.15-29.66v-20.07c0-8.29-.08-16.88-.24-25.78h11.06c0,6.42-.15,13.84-.24,22.33s0,15.27,0,20.77v31.59c.03,7.45,.12,12.53,.15,15.18Z"/><path class="cls-1" d="M1012.18,166.72l-10.45,5.41c-.18-.49-1.62-3.82-4.31-10.02s-6.11-14.11-10.63-23.83h-39.71c-4.7,10.45-8.34,18.51-10.91,24.26s-3.97,8.92-4.25,9.59l-8.98-4.89c1.14-2.22,5.91-12.49,14.3-30.82,8.39-18.33,17.15-37.43,26.27-57.31h8.74c8.94,20.04,17.73,39.45,26.36,58.23,8.64,18.78,13.16,28.57,13.56,29.39Zm-29.11-37.03c-2.34-5.46-4.85-11.17-7.52-17.14-2.63-6.11-5.38-12.22-8.28-18.67h-.28c-2.26,4.93-4.98,10.98-8.16,18.15-3.18,7.17-5.79,13.03-7.85,17.6h32.08v.06Z"/><path class="cls-1" d="M261.01,94.89c-12.88-6-26.56,5.83-34,23.07-8,18.63-8,44.19-19.21,64.72-8.28,16.89-22.28,25.7-34.16,20.65s-13.69-18.26-9.48-37.69c19.24-69.37,47.93-74.78,65.05-123.52,3.79-16-.85-36.33-15.23-41-16.61-5.43-31.35,9.7-40.83,26.54-17,34.09-2.62,65.45-16.47,108.92-4,17.43-14.81,31.08-27.58,28.78s-18.92-10.69-20.89-32.53c-4.19-32.51-8.93-69.32-10.47-81.22-2.43-19.81-16.58-34.38-31.6-32.53s-24.53,19.53-24.39,39.22c.94,11.33,3.32,18.83,7.74,26.73,20.23,32.4,44.58,44.58,63.87,101.48,6.85,19.19,5,35.79-6.72,41.9s-27.43,.38-34.54-17.62c-8.81-22.18-20.46-38.75-38.29-47.41-11-6.2-25.48-6.79-31.11,.22s-1.54,20.74,3.82,27.77c13.37,17.52,30.36,17.52,49.78,28.81,10.76,6.22,27.33,16,40.22,33.43,21.7-37.85,59.83-45.06,90.21-19.65-35-20.26-64-14.29-90.11,19.78,3.35,4.53,6.27,9.36,8.74,14.42,11.54,27.8,12,39.57,42.43,39.57,45.11,0,28.66-44.2,48.6-81.86,21.52-44.19,29.29-43.73,56.69-69.06,6.25-5.78,13.87-11.54,17.83-23.8,5.7-17.62,.73-33.12-9.9-38.12Zm-83.27-33.69c7.84,3.95,15.54,1.44,19.66,.1,7.14-2.38,13.3-7.05,17.51-13.29,8.46-12.85,8.26-32.9-.5-38.06-4.21-2.48-9.36-.91-10.87-.45-7.8,2.38-12.17,10.1-13.07,16.63-1,7.11,1.85,16.63,7.27,17.63,4.21,.78,9.34-3.51,10.63-9.14,1.11-5.68-1.54-11.43-6.57-14.29,5.43,2.93,8.53,8.87,7.84,15-.76,5.49-4.63,11.5-10.85,11.62-7.31,.14-11.49-8.42-12.35-15.09-.47-11.18,5.36-20.85,13.25-25.27,2.34-1.31,9-3.65,14.25-1.55,7.29,2.93,10,12.35,10.72,16.79,.46,2.78,1.57,18.6-9.29,31.14-1.16,1.34-9.41,10.56-22.84,12.14-4.14,.49-10.34,1.22-16.37-2.58-7.65-4.83-9.35-13.38-9.67-15.17,.58,1.86,3.27,9.84,11.25,13.86v-.02Zm-84.74-.2c-.17,1.76-1.58,14.05-11.63,23.09-3.1,2.79-7.75,7-14.86,7.34-9,.48-15.36-5.52-16.65-6.8,1.55,1.19,8.35,6.15,17.19,4.83,8.68-1.29,13.52-7.79,16.11-11.26,4.47-6.08,6.79-13.46,6.62-21-.51-15.38-12.24-31.64-22.38-30.8-4.86,.41-8.16,4.66-9.13,5.91-5,6.45-4.1,15.27-1.07,21.13,3.3,6.37,11.11,12.51,16.11,10.2,3.89-1.79,5.6-8.26,3.4-13.6-2.08-5.08-7.57-8.33-13.6-7.88,6.1-.72,12.03,2.32,15,7.7,2.54,4.92,2.86,12.06-2.15,15.75-5.9,4.34-14.25-.24-18.8-5.19-6.84-8.86-7.65-20.12-3.76-28.29,1.15-2.41,5.25-8.18,10.74-9.49,7.64-1.81,15.29,4.32,18.44,7.52,2.02,2.07,12.06,14.35,10.42,30.86v-.02ZM44.75,190.6c-.25,3-.62,7.57-4.2,11.49-4.55,5-10.89,5.26-12.22,5.29,4.53-.64,8.65-2.99,11.52-6.56,4-5.21,3.27-11,2.91-14.13-.65-5.35-3.13-10.31-7-14.05-8-7.5-22.28-9.57-27.23-3.83-2.37,2.76-2,6.63-1.88,7.77,.57,5.87,5.45,9.86,10,11.23,4.92,1.48,12.13,.49,13.62-3.29,1.17-2.95-1.15-7.11-5-8.65-3.64-1.47-8.17-.25-11.14,3.15,3.08-3.66,7.78-5.22,11.81-4,3.81,1.15,7.54,4.59,6.73,9.08-1,5.27-7.66,7.34-12.55,7.22-8-.89-14.1-6.15-16.12-12.31-.59-1.82-1.3-6.88,1-10.42,3.13-4.92,10.25-5.83,13.52-5.86,2.05,0,13.5,.91,20.87,10.11,3.91,5.06,5.82,11.38,5.36,17.76Zm118.61,113.82c1.68-1.86,7.68-8.93,7.52-19.26,0-1.13-.45-15.1-11.34-21.44-1.7-1-7.85-4.57-14.29-2.17-7.31,2.72-11.62,11.9-9.63,19.57,1.92,7.4,8.88,15.18,15.69,12.58,3.33-1.27,5.79-5.59,5.28-9.63-.63-5-5.69-9.17-12-8.85,5.17-1.46,10.65,.86,13.2,5.59,1.88,4.02,1.22,8.77-1.7,12.11-4,4.59-10.1,3.84-10.88,3.73-7.3-1-11.85-8.6-13.2-14.29-2.11-8.87,1.9-20.18,10.87-23.92,8-3.31,15.79,1,17.55,2,8.92,5,11.4,14.13,12,16.62,3.42,15-8.29,26.62-9.07,27.36Zm-52.59-23.14c1.87-46.29,46.24-55.67,74.24-28.12-36.16-25.77-68.6-9.08-74.23,28.12h-.01Zm149.35-144.67c-3.79,5.73-9.51,9.92-16.12,11.81-3.11,.84-7.77,2.08-12.8-.16-6.39-2.84-8.63-9.19-9.07-10.53,.64,1.37,3.58,7.17,10.13,9.36s12.05-.61,15.05-2.1c5.2-2.61,9.38-6.86,11.91-12.1,5-10.76,2.69-26.08-4.59-29.05-3.49-1.43-7.25,.34-8.36,.86-5.7,2.68-8.19,9.07-8.16,14.16,0,5.55,3.26,12.52,7.51,12.69,3.31,.12,6.76-3.72,7.12-8.18,.23-4.47-2.43-8.58-6.6-10.2,4.47,1.64,7.49,5.83,7.65,10.58,0,4.29-2.26,9.32-7,10.1-5.58,.91-9.72-5.17-11.12-10.18-1.59-8.5,1.8-16.54,7.34-20.79,1.65-1.26,6.49-3.79,10.73-2.76,5.9,1.43,9,8.34,10.06,11.65,.65,2.12,3.25,14.05-3.68,24.84Z"/><path class="cls-1" d="M95.87,254.72c.25-.34,.5-.65,.75-1l-.1-.13c-.16,.39-.44,.75-.65,1.13Z"/><text class="cls-2" transform="translate(338.37 262.24)"><tspan x="0" y="0">DE UNA FAUNA</tspan></text></svg>